<svg width="230" height="56" viewBox="0 0 230 56" fill="none" xmlns="http://www.w3.org/2000/svg">
<path d="M1.44 13V0.399999H3.078V11.452H8.442V13H1.44ZM17.4835 8.374C17.4835 8.602 17.4655 8.914 17.4295 9.31H11.0035C11.0155 10.102 11.2555 10.726 11.7235 11.182C12.1915 11.626 12.8215 11.848 13.6135 11.848C14.7175 11.848 15.4495 11.44 15.8095 10.624H17.3755C17.2315 11.392 16.8115 12.016 16.1155 12.496C15.4195 12.976 14.5855 13.216 13.6135 13.216C12.3415 13.216 11.3275 12.826 10.5715 12.046C9.82748 11.254 9.45548 10.186 9.45548 8.842C9.45548 7.522 9.82748 6.466 10.5715 5.674C11.3155 4.882 12.3055 4.486 13.5415 4.486C14.7175 4.486 15.6655 4.846 16.3855 5.566C17.1175 6.286 17.4835 7.222 17.4835 8.374ZM11.0035 8.104H15.9355C15.9355 7.372 15.7195 6.796 15.2875 6.376C14.8675 5.956 14.2795 5.746 13.5235 5.746C12.7795 5.746 12.1795 5.962 11.7235 6.394C11.2795 6.826 11.0395 7.396 11.0035 8.104ZM23.0868 13.216C21.8028 13.216 20.7948 12.808 20.0628 11.992C19.3428 11.176 18.9828 10.132 18.9828 8.86C18.9828 7.6 19.3548 6.556 20.0988 5.728C20.8548 4.9 21.8628 4.486 23.1228 4.486C23.7708 4.486 24.3528 4.636 24.8688 4.936C25.3848 5.236 25.7748 5.644 26.0388 6.16V4.702H27.5868V13H26.0388V11.542C25.7748 12.046 25.3728 12.454 24.8328 12.766C24.2928 13.066 23.7108 13.216 23.0868 13.216ZM23.3028 11.812C24.1788 11.812 24.8628 11.53 25.3548 10.966C25.8588 10.39 26.1108 9.688 26.1108 8.86C26.1108 8.02 25.8588 7.318 25.3548 6.754C24.8628 6.178 24.1788 5.89 23.3028 5.89C22.4628 5.89 21.7908 6.172 21.2868 6.736C20.7828 7.288 20.5308 7.996 20.5308 8.86C20.5308 9.724 20.7828 10.432 21.2868 10.984C21.7908 11.536 22.4628 11.812 23.3028 11.812ZM30.2836 13V4.702H31.8496V6.592C32.0056 5.932 32.3116 5.434 32.7676 5.098C33.2236 4.75 33.7276 4.576 34.2796 4.576C34.6036 4.576 34.8556 4.6 35.0356 4.648V6.088C34.8556 6.052 34.5976 6.034 34.2616 6.034C33.4816 6.034 32.8816 6.346 32.4616 6.97C32.0536 7.594 31.8496 8.392 31.8496 9.364V13H30.2836ZM36.7875 13V4.702H38.3535V6.232C38.5815 5.692 38.9415 5.266 39.4335 4.954C39.9375 4.642 40.5435 4.486 41.2515 4.486C43.3155 4.486 44.3475 5.62 44.3475 7.888V13H42.7815V8.572C42.7815 7.636 42.6135 6.946 42.2775 6.502C41.9535 6.058 41.4255 5.836 40.6935 5.836C39.9375 5.836 39.3555 6.082 38.9475 6.574C38.5515 7.066 38.3535 7.744 38.3535 8.608V13H36.7875ZM56 4.486C58.064 4.486 59.096 5.62 59.096 7.888V13H57.53V8.572C57.53 7.636 57.362 6.946 57.026 6.502C56.702 6.058 56.174 5.836 55.442 5.836C54.686 5.836 54.104 6.082 53.696 6.574C53.3 7.066 53.102 7.744 53.102 8.608V13H51.536V0.399999H53.102V6.232C53.33 5.692 53.69 5.266 54.182 4.954C54.686 4.642 55.292 4.486 56 4.486ZM65.3673 13.216C64.0473 13.216 62.9973 12.802 62.2173 11.974C61.4373 11.134 61.0473 10.09 61.0473 8.842C61.0473 7.594 61.4373 6.556 62.2173 5.728C62.9973 4.9 64.0473 4.486 65.3673 4.486C66.6753 4.486 67.7193 4.906 68.4993 5.746C69.2913 6.574 69.6873 7.606 69.6873 8.842C69.6873 10.09 69.2913 11.134 68.4993 11.974C67.7193 12.802 66.6753 13.216 65.3673 13.216ZM63.3333 10.984C63.8373 11.536 64.5153 11.812 65.3673 11.812C66.2193 11.812 66.8913 11.536 67.3833 10.984C67.8753 10.42 68.1213 9.706 68.1213 8.842C68.1213 7.99 67.8753 7.288 67.3833 6.736C66.8913 6.172 66.2193 5.89 65.3673 5.89C64.5153 5.89 63.8373 6.172 63.3333 6.736C62.8413 7.288 62.5953 7.996 62.5953 8.86C62.5953 9.712 62.8413 10.42 63.3333 10.984ZM73.1825 13L70.1225 4.702H71.8325L73.8305 10.75L75.8465 4.702H77.5205L79.5365 10.75L81.5345 4.702H83.2625L80.1845 13H78.8525L76.6745 6.628L74.5145 13H73.1825ZM92.7674 11.686C93.1994 11.686 93.5474 11.656 93.8114 11.596V12.982C93.4514 13.066 92.9894 13.108 92.4254 13.108C92.1734 13.108 91.9514 13.096 91.7594 13.072C91.5794 13.048 91.3634 12.982 91.1114 12.874C90.8594 12.766 90.6494 12.616 90.4814 12.424C90.3134 12.22 90.1694 11.938 90.0494 11.578C89.9294 11.206 89.8694 10.762 89.8694 10.246V6.016H88.3754V4.702H89.8694V2.074H91.4354V4.702H93.5234V6.016H91.4354V9.904C91.4354 10.636 91.5434 11.116 91.7594 11.344C91.9754 11.572 92.3114 11.686 92.7674 11.686ZM99.2579 13.216C97.9379 13.216 96.8879 12.802 96.1079 11.974C95.3279 11.134 94.9379 10.09 94.9379 8.842C94.9379 7.594 95.3279 6.556 96.1079 5.728C96.8879 4.9 97.9379 4.486 99.2579 4.486C100.566 4.486 101.61 4.906 102.39 5.746C103.182 6.574 103.578 7.606 103.578 8.842C103.578 10.09 103.182 11.134 102.39 11.974C101.61 12.802 100.566 13.216 99.2579 13.216ZM97.2239 10.984C97.7279 11.536 98.4059 11.812 99.2579 11.812C100.11 11.812 100.782 11.536 101.274 10.984C101.766 10.42 102.012 9.706 102.012 8.842C102.012 7.99 101.766 7.288 101.274 6.736C100.782 6.172 100.11 5.89 99.2579 5.89C98.4059 5.89 97.7279 6.172 97.2239 6.736C96.7319 7.288 96.4859 7.996 96.4859 8.86C96.4859 9.712 96.7319 10.42 97.2239 10.984ZM112.949 13.216C111.905 13.216 111.065 12.958 110.429 12.442C109.805 11.914 109.493 11.272 109.493 10.516H111.041C111.041 10.936 111.221 11.284 111.581 11.56C111.941 11.824 112.421 11.956 113.021 11.956C113.489 11.956 113.861 11.848 114.137 11.632C114.413 11.416 114.551 11.122 114.551 10.75C114.551 10.162 114.281 9.802 113.741 9.67L111.527 9.094C110.339 8.77 109.745 8.026 109.745 6.862C109.745 6.178 110.033 5.614 110.609 5.17C111.185 4.714 111.935 4.486 112.859 4.486C113.867 4.486 114.647 4.72 115.199 5.188C115.763 5.644 116.045 6.244 116.045 6.988H114.497C114.497 6.592 114.347 6.28 114.047 6.052C113.747 5.812 113.327 5.692 112.787 5.692C112.355 5.692 111.995 5.794 111.707 5.998C111.431 6.19 111.293 6.454 111.293 6.79C111.293 7.354 111.599 7.708 112.211 7.852L114.281 8.428C114.869 8.584 115.325 8.86 115.649 9.256C115.973 9.652 116.135 10.102 116.135 10.606C116.135 11.398 115.853 12.034 115.289 12.514C114.725 12.982 113.945 13.216 112.949 13.216ZM125.624 8.374C125.624 8.602 125.606 8.914 125.57 9.31H119.144C119.156 10.102 119.396 10.726 119.864 11.182C120.332 11.626 120.962 11.848 121.754 11.848C122.858 11.848 123.59 11.44 123.95 10.624H125.516C125.372 11.392 124.952 12.016 124.256 12.496C123.56 12.976 122.726 13.216 121.754 13.216C120.482 13.216 119.468 12.826 118.712 12.046C117.968 11.254 117.596 10.186 117.596 8.842C117.596 7.522 117.968 6.466 118.712 5.674C119.456 4.882 120.446 4.486 121.682 4.486C122.858 4.486 123.806 4.846 124.526 5.566C125.258 6.286 125.624 7.222 125.624 8.374ZM119.144 8.104H124.076C124.076 7.372 123.86 6.796 123.428 6.376C123.008 5.956 122.42 5.746 121.664 5.746C120.92 5.746 120.32 5.962 119.864 6.394C119.42 6.826 119.18 7.396 119.144 8.104ZM127.649 13V0.399999H129.215V13H127.649ZM131.92 13V0.399999H133.486V13H131.92ZM145.353 4.486C146.541 4.486 147.507 4.894 148.251 5.71C148.995 6.514 149.367 7.564 149.367 8.86C149.367 10.132 148.983 11.176 148.215 11.992C147.447 12.808 146.463 13.216 145.263 13.216C144.627 13.216 144.039 13.066 143.499 12.766C142.971 12.466 142.575 12.058 142.311 11.542V16.834H140.745V4.702H142.311V6.16C142.575 5.644 142.977 5.236 143.517 4.936C144.069 4.636 144.681 4.486 145.353 4.486ZM145.047 11.812C145.851 11.812 146.511 11.536 147.027 10.984C147.543 10.432 147.801 9.724 147.801 8.86C147.801 7.996 147.543 7.288 147.027 6.736C146.511 6.172 145.851 5.89 145.047 5.89C144.219 5.89 143.541 6.166 143.013 6.718C142.497 7.27 142.239 7.984 142.239 8.86C142.239 9.724 142.497 10.432 143.013 10.984C143.541 11.536 144.219 11.812 145.047 11.812ZM151.379 13V4.702H152.945V6.592C153.101 5.932 153.407 5.434 153.863 5.098C154.319 4.75 154.823 4.576 155.375 4.576C155.699 4.576 155.951 4.6 156.131 4.648V6.088C155.951 6.052 155.693 6.034 155.357 6.034C154.577 6.034 153.977 6.346 153.557 6.97C153.149 7.594 152.945 8.392 152.945 9.364V13H151.379ZM161.291 13.216C159.971 13.216 158.921 12.802 158.141 11.974C157.361 11.134 156.971 10.09 156.971 8.842C156.971 7.594 157.361 6.556 158.141 5.728C158.921 4.9 159.971 4.486 161.291 4.486C162.599 4.486 163.643 4.906 164.423 5.746C165.215 6.574 165.611 7.606 165.611 8.842C165.611 10.09 165.215 11.134 164.423 11.974C163.643 12.802 162.599 13.216 161.291 13.216ZM159.257 10.984C159.761 11.536 160.439 11.812 161.291 11.812C162.143 11.812 162.815 11.536 163.307 10.984C163.799 10.42 164.045 9.706 164.045 8.842C164.045 7.99 163.799 7.288 163.307 6.736C162.815 6.172 162.143 5.89 161.291 5.89C160.439 5.89 159.761 6.172 159.257 6.736C158.765 7.288 158.519 7.996 158.519 8.86C158.519 9.712 158.765 10.42 159.257 10.984ZM174.152 0.399999H175.718V13H174.17V11.542C173.906 12.046 173.504 12.454 172.964 12.766C172.424 13.066 171.842 13.216 171.218 13.216C169.934 13.216 168.926 12.808 168.194 11.992C167.474 11.176 167.114 10.132 167.114 8.86C167.114 7.6 167.486 6.556 168.23 5.728C168.986 4.9 169.994 4.486 171.254 4.486C171.902 4.486 172.484 4.636 173 4.936C173.516 5.236 173.906 5.644 174.17 6.16V5.296H174.152V0.399999ZM171.434 11.812C172.31 11.812 172.994 11.53 173.486 10.966C173.99 10.39 174.242 9.688 174.242 8.86C174.242 8.02 173.99 7.318 173.486 6.754C172.994 6.178 172.31 5.89 171.434 5.89C170.594 5.89 169.922 6.172 169.418 6.736C168.914 7.288 168.662 7.996 168.662 8.86C168.662 9.724 168.914 10.432 169.418 10.984C169.922 11.536 170.594 11.812 171.434 11.812ZM181.474 13.216C180.514 13.216 179.746 12.928 179.17 12.352C178.606 11.764 178.324 10.918 178.324 9.814V4.702H179.89V9.436C179.89 11.056 180.562 11.866 181.906 11.866C182.698 11.866 183.286 11.614 183.67 11.11C184.066 10.594 184.264 9.97 184.264 9.238V4.702H185.83V13H184.264V11.488C184.036 12.016 183.676 12.436 183.184 12.748C182.704 13.06 182.134 13.216 181.474 13.216ZM191.978 13.216C190.718 13.216 189.716 12.82 188.972 12.028C188.228 11.224 187.856 10.168 187.856 8.86C187.856 7.552 188.228 6.502 188.972 5.71C189.716 4.906 190.718 4.504 191.978 4.504C193.094 4.504 193.994 4.786 194.678 5.35C195.362 5.902 195.752 6.646 195.848 7.582H194.282C194.066 6.466 193.298 5.908 191.978 5.908C191.174 5.908 190.544 6.172 190.088 6.7C189.632 7.216 189.404 7.936 189.404 8.86C189.404 9.784 189.632 10.51 190.088 11.038C190.544 11.554 191.174 11.812 191.978 11.812C193.286 11.812 194.054 11.272 194.282 10.192H195.848C195.752 11.116 195.362 11.854 194.678 12.406C193.994 12.946 193.094 13.216 191.978 13.216ZM201.277 11.686C201.709 11.686 202.057 11.656 202.321 11.596V12.982C201.961 13.066 201.499 13.108 200.935 13.108C200.683 13.108 200.461 13.096 200.269 13.072C200.089 13.048 199.873 12.982 199.621 12.874C199.369 12.766 199.159 12.616 198.991 12.424C198.823 12.22 198.679 11.938 198.559 11.578C198.439 11.206 198.379 10.762 198.379 10.246V6.016H196.885V4.702H198.379V2.074H199.945V4.702H202.033V6.016H199.945V9.904C199.945 10.636 200.053 11.116 200.269 11.344C200.485 11.572 200.821 11.686 201.277 11.686ZM206.904 13.216C205.86 13.216 205.02 12.958 204.384 12.442C203.76 11.914 203.448 11.272 203.448 10.516H204.996C204.996 10.936 205.176 11.284 205.536 11.56C205.896 11.824 206.376 11.956 206.976 11.956C207.444 11.956 207.816 11.848 208.092 11.632C208.368 11.416 208.506 11.122 208.506 10.75C208.506 10.162 208.236 9.802 207.696 9.67L205.482 9.094C204.294 8.77 203.7 8.026 203.7 6.862C203.7 6.178 203.988 5.614 204.564 5.17C205.14 4.714 205.89 4.486 206.814 4.486C207.822 4.486 208.602 4.72 209.154 5.188C209.718 5.644 210 6.244 210 6.988H208.452C208.452 6.592 208.302 6.28 208.002 6.052C207.702 5.812 207.282 5.692 206.742 5.692C206.31 5.692 205.95 5.794 205.662 5.998C205.386 6.19 205.248 6.454 205.248 6.79C205.248 7.354 205.554 7.708 206.166 7.852L208.236 8.428C208.824 8.584 209.28 8.86 209.604 9.256C209.928 9.652 210.09 10.102 210.09 10.606C210.09 11.398 209.808 12.034 209.244 12.514C208.68 12.982 207.9 13.216 206.904 13.216ZM5.004 34.216C3.684 34.216 2.634 33.802 1.854 32.974C1.074 32.134 0.684 31.09 0.684 29.842C0.684 28.594 1.074 27.556 1.854 26.728C2.634 25.9 3.684 25.486 5.004 25.486C6.312 25.486 7.356 25.906 8.136 26.746C8.928 27.574 9.324 28.606 9.324 29.842C9.324 31.09 8.928 32.134 8.136 32.974C7.356 33.802 6.312 34.216 5.004 34.216ZM2.97 31.984C3.474 32.536 4.152 32.812 5.004 32.812C5.856 32.812 6.528 32.536 7.02 31.984C7.512 31.42 7.758 30.706 7.758 29.842C7.758 28.99 7.512 28.288 7.02 27.736C6.528 27.172 5.856 26.89 5.004 26.89C4.152 26.89 3.474 27.172 2.97 27.736C2.478 28.288 2.232 28.996 2.232 29.86C2.232 30.712 2.478 31.42 2.97 31.984ZM11.352 34V25.702H12.918V27.232C13.146 26.692 13.506 26.266 13.998 25.954C14.502 25.642 15.108 25.486 15.816 25.486C17.88 25.486 18.912 26.62 18.912 28.888V34H17.346V29.572C17.346 28.636 17.178 27.946 16.842 27.502C16.518 27.058 15.99 26.836 15.258 26.836C14.502 26.836 13.92 27.082 13.512 27.574C13.116 28.066 12.918 28.744 12.918 29.608V34H11.352ZM21.477 34V21.4H23.043V34H21.477ZM26.5404 24.28C26.1684 24.28 25.8624 24.16 25.6224 23.92C25.3824 23.68 25.2624 23.38 25.2624 23.02C25.2624 22.66 25.3824 22.36 25.6224 22.12C25.8624 21.868 26.1684 21.742 26.5404 21.742C26.9004 21.742 27.2004 21.868 27.4404 22.12C27.6804 22.36 27.8004 22.66 27.8004 23.02C27.8004 23.38 27.6804 23.68 27.4404 23.92C27.2004 24.16 26.9004 24.28 26.5404 24.28ZM25.7484 34V25.702H27.3144V34H25.7484ZM30.0199 34V25.702H31.5859V27.232C31.8139 26.692 32.1739 26.266 32.6659 25.954C33.1699 25.642 33.7759 25.486 34.4839 25.486C36.5479 25.486 37.5799 26.62 37.5799 28.888V34H36.0139V29.572C36.0139 28.636 35.8459 27.946 35.5099 27.502C35.1859 27.058 34.6579 26.836 33.9259 26.836C33.1699 26.836 32.5879 27.082 32.1799 27.574C31.7839 28.066 31.5859 28.744 31.5859 29.608V34H30.0199ZM47.5597 29.374C47.5597 29.602 47.5417 29.914 47.5057 30.31H41.0797C41.0917 31.102 41.3317 31.726 41.7997 32.182C42.2677 32.626 42.8977 32.848 43.6897 32.848C44.7937 32.848 45.5257 32.44 45.8857 31.624H47.4517C47.3077 32.392 46.8877 33.016 46.1917 33.496C45.4957 33.976 44.6617 34.216 43.6897 34.216C42.4177 34.216 41.4037 33.826 40.6477 33.046C39.9037 32.254 39.5317 31.186 39.5317 29.842C39.5317 28.522 39.9037 27.466 40.6477 26.674C41.3917 25.882 42.3817 25.486 43.6177 25.486C44.7937 25.486 45.7417 25.846 46.4617 26.566C47.1937 27.286 47.5597 28.222 47.5597 29.374ZM41.0797 29.104H46.0117C46.0117 28.372 45.7957 27.796 45.3637 27.376C44.9437 26.956 44.3557 26.746 43.5997 26.746C42.8557 26.746 42.2557 26.962 41.7997 27.394C41.3557 27.826 41.1157 28.396 41.0797 29.104ZM57.5751 34.216C56.2911 34.216 55.2831 33.808 54.5511 32.992C53.8311 32.176 53.4711 31.132 53.4711 29.86C53.4711 28.6 53.8431 27.556 54.5871 26.728C55.3431 25.9 56.3511 25.486 57.6111 25.486C58.2591 25.486 58.8411 25.636 59.3571 25.936C59.8731 26.236 60.2631 26.644 60.5271 27.16V25.702H62.0751V34H60.5271V32.542C60.2631 33.046 59.8611 33.454 59.3211 33.766C58.7811 34.066 58.1991 34.216 57.5751 34.216ZM57.7911 32.812C58.6671 32.812 59.3511 32.53 59.8431 31.966C60.3471 31.39 60.5991 30.688 60.5991 29.86C60.5991 29.02 60.3471 28.318 59.8431 27.754C59.3511 27.178 58.6671 26.89 57.7911 26.89C56.9511 26.89 56.2791 27.172 55.7751 27.736C55.2711 28.288 55.0191 28.996 55.0191 29.86C55.0191 30.724 55.2711 31.432 55.7751 31.984C56.2791 32.536 56.9511 32.812 57.7911 32.812ZM64.7719 34V25.702H66.3379V27.232C66.5659 26.692 66.9259 26.266 67.4179 25.954C67.9219 25.642 68.5279 25.486 69.2359 25.486C71.2999 25.486 72.3319 26.62 72.3319 28.888V34H70.7659V29.572C70.7659 28.636 70.5979 27.946 70.2619 27.502C69.9379 27.058 69.4099 26.836 68.6779 26.836C67.9219 26.836 67.3399 27.082 66.9319 27.574C66.5359 28.066 66.3379 28.744 66.3379 29.608V34H64.7719ZM81.3216 21.4H82.8876V34H81.3396V32.542C81.0756 33.046 80.6736 33.454 80.1336 33.766C79.5936 34.066 79.0116 34.216 78.3876 34.216C77.1036 34.216 76.0956 33.808 75.3636 32.992C74.6436 32.176 74.2836 31.132 74.2836 29.86C74.2836 28.6 74.6556 27.556 75.3996 26.728C76.1556 25.9 77.1636 25.486 78.4236 25.486C79.0716 25.486 79.6536 25.636 80.1696 25.936C80.6856 26.236 81.0756 26.644 81.3396 27.16V26.296H81.3216V21.4ZM78.6036 32.812C79.4796 32.812 80.1636 32.53 80.6556 31.966C81.1596 31.39 81.4116 30.688 81.4116 29.86C81.4116 29.02 81.1596 28.318 80.6556 27.754C80.1636 27.178 79.4796 26.89 78.6036 26.89C77.7636 26.89 77.0916 27.172 76.5876 27.736C76.0836 28.288 75.8316 28.996 75.8316 29.86C75.8316 30.724 76.0836 31.432 76.5876 31.984C77.0916 32.536 77.7636 32.812 78.6036 32.812ZM98.1458 34.216C96.8858 34.216 95.8838 33.82 95.1398 33.028C94.3958 32.224 94.0238 31.168 94.0238 29.86C94.0238 28.552 94.3958 27.502 95.1398 26.71C95.8838 25.906 96.8858 25.504 98.1458 25.504C99.2618 25.504 100.162 25.786 100.846 26.35C101.53 26.902 101.92 27.646 102.016 28.582H100.45C100.234 27.466 99.4658 26.908 98.1458 26.908C97.3418 26.908 96.7118 27.172 96.2558 27.7C95.7998 28.216 95.5718 28.936 95.5718 29.86C95.5718 30.784 95.7998 31.51 96.2558 32.038C96.7118 32.554 97.3418 32.812 98.1458 32.812C99.4538 32.812 100.222 32.272 100.45 31.192H102.016C101.92 32.116 101.53 32.854 100.846 33.406C100.162 33.946 99.2618 34.216 98.1458 34.216ZM104.041 34V25.702H105.607V27.592C105.763 26.932 106.069 26.434 106.525 26.098C106.981 25.75 107.485 25.576 108.037 25.576C108.361 25.576 108.613 25.6 108.793 25.648V27.088C108.613 27.052 108.355 27.034 108.019 27.034C107.239 27.034 106.639 27.346 106.219 27.97C105.811 28.594 105.607 29.392 105.607 30.364V34H104.041ZM117.661 29.374C117.661 29.602 117.643 29.914 117.607 30.31H111.181C111.193 31.102 111.433 31.726 111.901 32.182C112.369 32.626 112.999 32.848 113.791 32.848C114.895 32.848 115.627 32.44 115.987 31.624H117.553C117.409 32.392 116.989 33.016 116.293 33.496C115.597 33.976 114.763 34.216 113.791 34.216C112.519 34.216 111.505 33.826 110.749 33.046C110.005 32.254 109.633 31.186 109.633 29.842C109.633 28.522 110.005 27.466 110.749 26.674C111.493 25.882 112.483 25.486 113.719 25.486C114.895 25.486 115.843 25.846 116.563 26.566C117.295 27.286 117.661 28.222 117.661 29.374ZM111.181 29.104H116.113C116.113 28.372 115.897 27.796 115.465 27.376C115.045 26.956 114.457 26.746 113.701 26.746C112.957 26.746 112.357 26.962 111.901 27.394C111.457 27.826 111.217 28.396 111.181 29.104ZM123.265 34.216C121.981 34.216 120.973 33.808 120.241 32.992C119.521 32.176 119.161 31.132 119.161 29.86C119.161 28.6 119.533 27.556 120.277 26.728C121.033 25.9 122.041 25.486 123.301 25.486C123.949 25.486 124.531 25.636 125.047 25.936C125.563 26.236 125.953 26.644 126.217 27.16V25.702H127.765V34H126.217V32.542C125.953 33.046 125.551 33.454 125.011 33.766C124.471 34.066 123.889 34.216 123.265 34.216ZM123.481 32.812C124.357 32.812 125.041 32.53 125.533 31.966C126.037 31.39 126.289 30.688 126.289 29.86C126.289 29.02 126.037 28.318 125.533 27.754C125.041 27.178 124.357 26.89 123.481 26.89C122.641 26.89 121.969 27.172 121.465 27.736C120.961 28.288 120.709 28.996 120.709 29.86C120.709 30.724 120.961 31.432 121.465 31.984C121.969 32.536 122.641 32.812 123.481 32.812ZM133.935 32.686C134.367 32.686 134.715 32.656 134.979 32.596V33.982C134.619 34.066 134.157 34.108 133.593 34.108C133.341 34.108 133.119 34.096 132.927 34.072C132.747 34.048 132.531 33.982 132.279 33.874C132.027 33.766 131.817 33.616 131.649 33.424C131.481 33.22 131.337 32.938 131.217 32.578C131.097 32.206 131.037 31.762 131.037 31.246V27.016H129.543V25.702H131.037V23.074H132.603V25.702H134.691V27.016H132.603V30.904C132.603 31.636 132.711 32.116 132.927 32.344C133.143 32.572 133.479 32.686 133.935 32.686ZM144.134 29.374C144.134 29.602 144.116 29.914 144.08 30.31H137.654C137.666 31.102 137.906 31.726 138.374 32.182C138.842 32.626 139.472 32.848 140.264 32.848C141.368 32.848 142.1 32.44 142.46 31.624H144.026C143.882 32.392 143.462 33.016 142.766 33.496C142.07 33.976 141.236 34.216 140.264 34.216C138.992 34.216 137.978 33.826 137.222 33.046C136.478 32.254 136.106 31.186 136.106 29.842C136.106 28.522 136.478 27.466 137.222 26.674C137.966 25.882 138.956 25.486 140.192 25.486C141.368 25.486 142.316 25.846 143.036 26.566C143.768 27.286 144.134 28.222 144.134 29.374ZM137.654 29.104H142.586C142.586 28.372 142.37 27.796 141.938 27.376C141.518 26.956 140.93 26.746 140.174 26.746C139.43 26.746 138.83 26.962 138.374 27.394C137.93 27.826 137.69 28.396 137.654 29.104ZM154.149 34.216C152.865 34.216 151.857 33.808 151.125 32.992C150.405 32.176 150.045 31.132 150.045 29.86C150.045 28.6 150.417 27.556 151.161 26.728C151.917 25.9 152.925 25.486 154.185 25.486C154.833 25.486 155.415 25.636 155.931 25.936C156.447 26.236 156.837 26.644 157.101 27.16V25.702H158.649V34H157.101V32.542C156.837 33.046 156.435 33.454 155.895 33.766C155.355 34.066 154.773 34.216 154.149 34.216ZM154.365 32.812C155.241 32.812 155.925 32.53 156.417 31.966C156.921 31.39 157.173 30.688 157.173 29.86C157.173 29.02 156.921 28.318 156.417 27.754C155.925 27.178 155.241 26.89 154.365 26.89C153.525 26.89 152.853 27.172 152.349 27.736C151.845 28.288 151.593 28.996 151.593 29.86C151.593 30.724 151.845 31.432 152.349 31.984C152.853 32.536 153.525 32.812 154.365 32.812ZM167.718 21.4H169.284V34H167.736V32.542C167.472 33.046 167.07 33.454 166.53 33.766C165.99 34.066 165.408 34.216 164.784 34.216C163.5 34.216 162.492 33.808 161.76 32.992C161.04 32.176 160.68 31.132 160.68 29.86C160.68 28.6 161.052 27.556 161.796 26.728C162.552 25.9 163.56 25.486 164.82 25.486C165.468 25.486 166.05 25.636 166.566 25.936C167.082 26.236 167.472 26.644 167.736 27.16V26.296H167.718V21.4ZM165 32.812C165.876 32.812 166.56 32.53 167.052 31.966C167.556 31.39 167.808 30.688 167.808 29.86C167.808 29.02 167.556 28.318 167.052 27.754C166.56 27.178 165.876 26.89 165 26.89C164.16 26.89 163.488 27.172 162.984 27.736C162.48 28.288 162.228 28.996 162.228 29.86C162.228 30.724 162.48 31.432 162.984 31.984C163.488 32.536 164.16 32.812 165 32.812ZM178.353 21.4H179.919V34H178.371V32.542C178.107 33.046 177.705 33.454 177.165 33.766C176.625 34.066 176.043 34.216 175.419 34.216C174.135 34.216 173.127 33.808 172.395 32.992C171.675 32.176 171.315 31.132 171.315 29.86C171.315 28.6 171.687 27.556 172.431 26.728C173.187 25.9 174.195 25.486 175.455 25.486C176.103 25.486 176.685 25.636 177.201 25.936C177.717 26.236 178.107 26.644 178.371 27.16V26.296H178.353V21.4ZM175.635 32.812C176.511 32.812 177.195 32.53 177.687 31.966C178.191 31.39 178.443 30.688 178.443 29.86C178.443 29.02 178.191 28.318 177.687 27.754C177.195 27.178 176.511 26.89 175.635 26.89C174.795 26.89 174.123 27.172 173.619 27.736C173.115 28.288 172.863 28.996 172.863 29.86C172.863 30.724 173.115 31.432 173.619 31.984C174.123 32.536 174.795 32.812 175.635 32.812ZM183.408 24.28C183.036 24.28 182.73 24.16 182.49 23.92C182.25 23.68 182.13 23.38 182.13 23.02C182.13 22.66 182.25 22.36 182.49 22.12C182.73 21.868 183.036 21.742 183.408 21.742C183.768 21.742 184.068 21.868 184.308 22.12C184.548 22.36 184.668 22.66 184.668 23.02C184.668 23.38 184.548 23.68 184.308 23.92C184.068 24.16 183.768 24.28 183.408 24.28ZM182.616 34V25.702H184.182V34H182.616ZM190.361 32.686C190.793 32.686 191.141 32.656 191.405 32.596V33.982C191.045 34.066 190.583 34.108 190.019 34.108C189.767 34.108 189.545 34.096 189.353 34.072C189.173 34.048 188.957 33.982 188.705 33.874C188.453 33.766 188.243 33.616 188.075 33.424C187.907 33.22 187.763 32.938 187.643 32.578C187.523 32.206 187.463 31.762 187.463 31.246V27.016H185.969V25.702H187.463V23.074H189.029V25.702H191.117V27.016H189.029V30.904C189.029 31.636 189.137 32.116 189.353 32.344C189.569 32.572 189.905 32.686 190.361 32.686ZM194.095 24.28C193.723 24.28 193.417 24.16 193.177 23.92C192.937 23.68 192.817 23.38 192.817 23.02C192.817 22.66 192.937 22.36 193.177 22.12C193.417 21.868 193.723 21.742 194.095 21.742C194.455 21.742 194.755 21.868 194.995 22.12C195.235 22.36 195.355 22.66 195.355 23.02C195.355 23.38 195.235 23.68 194.995 23.92C194.755 24.16 194.455 24.28 194.095 24.28ZM193.303 34V25.702H194.869V34H193.303ZM201.229 34.216C199.909 34.216 198.859 33.802 198.079 32.974C197.299 32.134 196.909 31.09 196.909 29.842C196.909 28.594 197.299 27.556 198.079 26.728C198.859 25.9 199.909 25.486 201.229 25.486C202.537 25.486 203.581 25.906 204.361 26.746C205.153 27.574 205.549 28.606 205.549 29.842C205.549 31.09 205.153 32.134 204.361 32.974C203.581 33.802 202.537 34.216 201.229 34.216ZM199.195 31.984C199.699 32.536 200.377 32.812 201.229 32.812C202.081 32.812 202.753 32.536 203.245 31.984C203.737 31.42 203.983 30.706 203.983 29.842C203.983 28.99 203.737 28.288 203.245 27.736C202.753 27.172 202.081 26.89 201.229 26.89C200.377 26.89 199.699 27.172 199.195 27.736C198.703 28.288 198.457 28.996 198.457 29.86C198.457 30.712 198.703 31.42 199.195 31.984ZM207.577 34V25.702H209.143V27.232C209.371 26.692 209.731 26.266 210.223 25.954C210.727 25.642 211.333 25.486 212.041 25.486C214.105 25.486 215.137 26.62 215.137 28.888V34H213.571V29.572C213.571 28.636 213.403 27.946 213.067 27.502C212.743 27.058 212.215 26.836 211.483 26.836C210.727 26.836 210.145 27.082 209.737 27.574C209.341 28.066 209.143 28.744 209.143 29.608V34H207.577ZM221.192 34.216C219.908 34.216 218.9 33.808 218.168 32.992C217.448 32.176 217.088 31.132 217.088 29.86C217.088 28.6 217.46 27.556 218.204 26.728C218.96 25.9 219.968 25.486 221.228 25.486C221.876 25.486 222.458 25.636 222.974 25.936C223.49 26.236 223.88 26.644 224.144 27.16V25.702H225.692V34H224.144V32.542C223.88 33.046 223.478 33.454 222.938 33.766C222.398 34.066 221.816 34.216 221.192 34.216ZM221.408 32.812C222.284 32.812 222.968 32.53 223.46 31.966C223.964 31.39 224.216 30.688 224.216 29.86C224.216 29.02 223.964 28.318 223.46 27.754C222.968 27.178 222.284 26.89 221.408 26.89C220.568 26.89 219.896 27.172 219.392 27.736C218.888 28.288 218.636 28.996 218.636 29.86C218.636 30.724 218.888 31.432 219.392 31.984C219.896 32.536 220.568 32.812 221.408 32.812ZM228.389 34V21.4H229.955V34H228.389ZM2.142 45.28C1.77 45.28 1.464 45.16 1.224 44.92C0.984 44.68 0.864 44.38 0.864 44.02C0.864 43.66 0.984 43.36 1.224 43.12C1.464 42.868 1.77 42.742 2.142 42.742C2.502 42.742 2.802 42.868 3.042 43.12C3.282 43.36 3.402 43.66 3.402 44.02C3.402 44.38 3.282 44.68 3.042 44.92C2.802 45.16 2.502 45.28 2.142 45.28ZM1.35 55V46.702H2.916V55H1.35ZM5.62148 55V46.702H7.18748V48.232C7.41548 47.692 7.77548 47.266 8.26748 46.954C8.77148 46.642 9.37748 46.486 10.0855 46.486C12.1495 46.486 13.1815 47.62 13.1815 49.888V55H11.6155V50.572C11.6155 49.636 11.4475 48.946 11.1115 48.502C10.7875 48.058 10.2595 47.836 9.52748 47.836C8.77148 47.836 8.18948 48.082 7.78148 48.574C7.38548 49.066 7.18748 49.744 7.18748 50.608V55H5.62148ZM19.2552 55.216C17.9952 55.216 16.9932 54.82 16.2492 54.028C15.5052 53.224 15.1332 52.168 15.1332 50.86C15.1332 49.552 15.5052 48.502 16.2492 47.71C16.9932 46.906 17.9952 46.504 19.2552 46.504C20.3712 46.504 21.2712 46.786 21.9552 47.35C22.6392 47.902 23.0292 48.646 23.1252 49.582H21.5592C21.3432 48.466 20.5752 47.908 19.2552 47.908C18.4512 47.908 17.8212 48.172 17.3652 48.7C16.9092 49.216 16.6812 49.936 16.6812 50.86C16.6812 51.784 16.9092 52.51 17.3652 53.038C17.8212 53.554 18.4512 53.812 19.2552 53.812C20.5632 53.812 21.3312 53.272 21.5592 52.192H23.1252C23.0292 53.116 22.6392 53.854 21.9552 54.406C21.2712 54.946 20.3712 55.216 19.2552 55.216ZM28.9103 55.216C27.5903 55.216 26.5403 54.802 25.7603 53.974C24.9803 53.134 24.5903 52.09 24.5903 50.842C24.5903 49.594 24.9803 48.556 25.7603 47.728C26.5403 46.9 27.5903 46.486 28.9103 46.486C30.2183 46.486 31.2623 46.906 32.0423 47.746C32.8343 48.574 33.2303 49.606 33.2303 50.842C33.2303 52.09 32.8343 53.134 32.0423 53.974C31.2623 54.802 30.2183 55.216 28.9103 55.216ZM26.8763 52.984C27.3803 53.536 28.0583 53.812 28.9103 53.812C29.7623 53.812 30.4343 53.536 30.9263 52.984C31.4183 52.42 31.6643 51.706 31.6643 50.842C31.6643 49.99 31.4183 49.288 30.9263 48.736C30.4343 48.172 29.7623 47.89 28.9103 47.89C28.0583 47.89 27.3803 48.172 26.8763 48.736C26.3843 49.288 26.1383 49.996 26.1383 50.86C26.1383 51.712 26.3843 52.42 26.8763 52.984ZM35.2582 55V46.702H36.8242V48.214C36.9922 47.722 37.2922 47.314 37.7242 46.99C38.1562 46.654 38.6842 46.486 39.3082 46.486C40.7362 46.486 41.6242 47.08 41.9722 48.268C42.1642 47.752 42.5002 47.326 42.9802 46.99C43.4602 46.654 44.0122 46.486 44.6362 46.486C46.6282 46.486 47.6242 47.572 47.6242 49.744V55H46.0582V50.05C46.0582 48.574 45.4582 47.836 44.2582 47.836C42.9022 47.836 42.2242 48.784 42.2242 50.68V55H40.6582V50.158C40.6582 48.61 40.0642 47.836 38.8762 47.836C38.2282 47.836 37.7242 48.076 37.3642 48.556C37.0042 49.024 36.8242 49.732 36.8242 50.68V55H35.2582ZM57.5968 50.374C57.5968 50.602 57.5788 50.914 57.5428 51.31H51.1168C51.1288 52.102 51.3688 52.726 51.8368 53.182C52.3048 53.626 52.9348 53.848 53.7268 53.848C54.8308 53.848 55.5628 53.44 55.9228 52.624H57.4888C57.3448 53.392 56.9248 54.016 56.2288 54.496C55.5328 54.976 54.6988 55.216 53.7268 55.216C52.4548 55.216 51.4408 54.826 50.6848 54.046C49.9408 53.254 49.5688 52.186 49.5688 50.842C49.5688 49.522 49.9408 48.466 50.6848 47.674C51.4288 46.882 52.4188 46.486 53.6548 46.486C54.8308 46.486 55.7788 46.846 56.4988 47.566C57.2308 48.286 57.5968 49.222 57.5968 50.374ZM51.1168 50.104H56.0488C56.0488 49.372 55.8328 48.796 55.4008 48.376C54.9808 47.956 54.3928 47.746 53.6368 47.746C52.8928 47.746 52.2928 47.962 51.8368 48.394C51.3928 48.826 51.1528 49.396 51.1168 50.104ZM66.9642 55.216C65.9202 55.216 65.0802 54.958 64.4442 54.442C63.8202 53.914 63.5082 53.272 63.5082 52.516H65.0562C65.0562 52.936 65.2362 53.284 65.5962 53.56C65.9562 53.824 66.4362 53.956 67.0362 53.956C67.5042 53.956 67.8762 53.848 68.1522 53.632C68.4282 53.416 68.5662 53.122 68.5662 52.75C68.5662 52.162 68.2962 51.802 67.7562 51.67L65.5422 51.094C64.3542 50.77 63.7602 50.026 63.7602 48.862C63.7602 48.178 64.0482 47.614 64.6242 47.17C65.2002 46.714 65.9502 46.486 66.8742 46.486C67.8822 46.486 68.6622 46.72 69.2142 47.188C69.7782 47.644 70.0602 48.244 70.0602 48.988H68.5122C68.5122 48.592 68.3622 48.28 68.0622 48.052C67.7622 47.812 67.3422 47.692 66.8022 47.692C66.3702 47.692 66.0102 47.794 65.7222 47.998C65.4462 48.19 65.3082 48.454 65.3082 48.79C65.3082 49.354 65.6142 49.708 66.2262 49.852L68.2962 50.428C68.8842 50.584 69.3402 50.86 69.6642 51.256C69.9882 51.652 70.1502 52.102 70.1502 52.606C70.1502 53.398 69.8682 54.034 69.3042 54.514C68.7402 54.982 67.9602 55.216 66.9642 55.216ZM75.4705 53.686C75.9025 53.686 76.2505 53.656 76.5145 53.596V54.982C76.1545 55.066 75.6925 55.108 75.1285 55.108C74.8765 55.108 74.6545 55.096 74.4625 55.072C74.2825 55.048 74.0665 54.982 73.8145 54.874C73.5625 54.766 73.3525 54.616 73.1845 54.424C73.0165 54.22 72.8725 53.938 72.7525 53.578C72.6325 53.206 72.5725 52.762 72.5725 52.246V48.016H71.0785V46.702H72.5725V44.074H74.1385V46.702H76.2265V48.016H74.1385V51.904C74.1385 52.636 74.2465 53.116 74.4625 53.344C74.6785 53.572 75.0145 53.686 75.4705 53.686ZM78.4125 55V46.702H79.9785V48.592C80.1345 47.932 80.4405 47.434 80.8965 47.098C81.3525 46.75 81.8565 46.576 82.4085 46.576C82.7325 46.576 82.9845 46.6 83.1645 46.648V48.088C82.9845 48.052 82.7265 48.034 82.3905 48.034C81.6105 48.034 81.0105 48.346 80.5905 48.97C80.1825 49.594 79.9785 50.392 79.9785 51.364V55H78.4125ZM92.0323 50.374C92.0323 50.602 92.0143 50.914 91.9783 51.31H85.5523C85.5643 52.102 85.8043 52.726 86.2723 53.182C86.7403 53.626 87.3703 53.848 88.1623 53.848C89.2663 53.848 89.9983 53.44 90.3583 52.624H91.9243C91.7803 53.392 91.3603 54.016 90.6643 54.496C89.9683 54.976 89.1343 55.216 88.1623 55.216C86.8903 55.216 85.8763 54.826 85.1203 54.046C84.3763 53.254 84.0043 52.186 84.0043 50.842C84.0043 49.522 84.3763 48.466 85.1203 47.674C85.8643 46.882 86.8543 46.486 88.0903 46.486C89.2663 46.486 90.2143 46.846 90.9343 47.566C91.6663 48.286 92.0323 49.222 92.0323 50.374ZM85.5523 50.104H90.4843C90.4843 49.372 90.2683 48.796 89.8363 48.376C89.4163 47.956 88.8283 47.746 88.0723 47.746C87.3283 47.746 86.7283 47.962 86.2723 48.394C85.8283 48.826 85.5883 49.396 85.5523 50.104ZM97.6357 55.216C96.3517 55.216 95.3437 54.808 94.6117 53.992C93.8917 53.176 93.5317 52.132 93.5317 50.86C93.5317 49.6 93.9037 48.556 94.6477 47.728C95.4037 46.9 96.4117 46.486 97.6717 46.486C98.3197 46.486 98.9017 46.636 99.4177 46.936C99.9337 47.236 100.324 47.644 100.588 48.16V46.702H102.136V55H100.588V53.542C100.324 54.046 99.9217 54.454 99.3817 54.766C98.8417 55.066 98.2597 55.216 97.6357 55.216ZM97.8517 53.812C98.7277 53.812 99.4117 53.53 99.9037 52.966C100.408 52.39 100.66 51.688 100.66 50.86C100.66 50.02 100.408 49.318 99.9037 48.754C99.4117 48.178 98.7277 47.89 97.8517 47.89C97.0117 47.89 96.3397 48.172 95.8357 48.736C95.3317 49.288 95.0797 49.996 95.0797 50.86C95.0797 51.724 95.3317 52.432 95.8357 52.984C96.3397 53.536 97.0117 53.812 97.8517 53.812ZM104.832 55V46.702H106.398V48.214C106.566 47.722 106.866 47.314 107.298 46.99C107.73 46.654 108.258 46.486 108.882 46.486C110.31 46.486 111.198 47.08 111.546 48.268C111.738 47.752 112.074 47.326 112.554 46.99C113.034 46.654 113.586 46.486 114.21 46.486C116.202 46.486 117.198 47.572 117.198 49.744V55H115.632V50.05C115.632 48.574 115.032 47.836 113.832 47.836C112.476 47.836 111.798 48.784 111.798 50.68V55H110.232V50.158C110.232 48.61 109.638 47.836 108.45 47.836C107.802 47.836 107.298 48.076 106.938 48.556C106.578 49.024 106.398 49.732 106.398 50.68V55H104.832Z" fill="#444053"/>
</svg>
