<svg width="162" height="54" viewBox="0 0 162 54" fill="none" xmlns="http://www.w3.org/2000/svg">
<path d="M1.55 19V1.5H6.75V14.525H12.7V19H1.55ZM28.173 12.15C28.173 12.7667 28.1314 13.375 28.048 13.975H18.898C18.9314 14.625 19.1564 15.1333 19.573 15.5C20.0064 15.8667 20.573 16.05 21.273 16.05C22.323 16.05 22.973 15.7417 23.223 15.125H27.973C27.7564 16.4417 27.0397 17.4917 25.823 18.275C24.6064 19.0417 23.0897 19.425 21.273 19.425C19.0064 19.425 17.223 18.85 15.923 17.7C14.6397 16.5333 13.998 14.9 13.998 12.8C13.998 10.7333 14.648 9.10833 15.948 7.925C17.248 6.725 18.9897 6.125 21.173 6.125C23.2397 6.125 24.923 6.68333 26.223 7.8C27.523 8.91667 28.173 10.3667 28.173 12.15ZM18.898 11.275H23.273C23.2564 10.5917 23.0647 10.0583 22.698 9.675C22.3314 9.29167 21.8064 9.1 21.123 9.1C20.4564 9.1 19.923 9.3 19.523 9.7C19.1397 10.1 18.9314 10.625 18.898 11.275ZM35.0324 19.35C33.3158 19.35 31.9491 18.7417 30.9324 17.525C29.9158 16.3083 29.4074 14.7333 29.4074 12.8C29.4074 10.8667 29.9241 9.29167 30.9574 8.075C31.9908 6.84167 33.3574 6.225 35.0574 6.225C35.9908 6.225 36.7908 6.425 37.4574 6.825C38.1241 7.225 38.6074 7.75833 38.9074 8.425V6.575H43.8324V19H38.9074V17.15C38.6241 17.8 38.1324 18.3333 37.4324 18.75C36.7491 19.15 35.9491 19.35 35.0324 19.35ZM36.7824 15.4C37.4991 15.4 38.0658 15.1583 38.4824 14.675C38.9158 14.175 39.1324 13.55 39.1324 12.8C39.1324 12.0333 38.9158 11.4083 38.4824 10.925C38.0658 10.425 37.4991 10.175 36.7824 10.175C36.0824 10.175 35.5241 10.425 35.1074 10.925C34.6908 11.4083 34.4824 12.0333 34.4824 12.8C34.4824 13.5667 34.6908 14.1917 35.1074 14.675C35.5241 15.1583 36.0824 15.4 36.7824 15.4ZM46.6643 19V6.575H51.5643V9.35C51.7809 8.4 52.2143 7.65833 52.8643 7.125C53.5143 6.59167 54.2726 6.325 55.1393 6.325C55.4559 6.325 55.7643 6.35 56.0643 6.4V11.025C55.6476 10.9583 55.2309 10.925 54.8143 10.925C53.7976 10.925 52.9976 11.2167 52.4143 11.8C51.8476 12.3667 51.5643 13.375 51.5643 14.825V19H46.6643ZM57.8947 19V6.575H62.7947V8.4C63.4614 6.95 64.8031 6.225 66.8197 6.225C69.8531 6.225 71.3697 7.95833 71.3697 11.425V19H66.3697V12.675C66.3697 11.1083 65.7947 10.325 64.6447 10.325C63.4114 10.325 62.7947 11.1417 62.7947 12.775V19H57.8947ZM95.7139 16.85C93.9639 18.65 91.6222 19.55 88.6889 19.55C85.7555 19.55 83.4139 18.65 81.6639 16.85C79.9139 15.05 79.0389 12.85 79.0389 10.25C79.0389 7.65 79.9139 5.45 81.6639 3.65C83.4139 1.85 85.7555 0.949998 88.6889 0.949998C91.6222 0.949998 93.9639 1.85 95.7139 3.65C97.4639 5.45 98.3389 7.65 98.3389 10.25C98.3389 12.85 97.4639 15.05 95.7139 16.85ZM88.6889 14.9C90.0389 14.9 91.0805 14.4583 91.8139 13.575C92.5639 12.675 92.9305 11.5667 92.9139 10.25C92.9305 8.93333 92.5639 7.83333 91.8139 6.95C91.0805 6.05 90.0389 5.6 88.6889 5.6C87.3555 5.6 86.3139 6.05 85.5639 6.95C84.8305 7.83333 84.4639 8.93333 84.4639 10.25C84.4639 11.5667 84.8305 12.675 85.5639 13.575C86.3139 14.4583 87.3555 14.9 88.6889 14.9ZM100.229 19V6.575H105.129V8.4C105.795 6.95 107.137 6.225 109.154 6.225C112.187 6.225 113.704 7.95833 113.704 11.425V19H108.704V12.675C108.704 11.1083 108.129 10.325 106.979 10.325C105.745 10.325 105.129 11.1417 105.129 12.775V19H100.229ZM116.391 19V1.5H121.291V19H116.391ZM126.58 6.15C125.797 6.15 125.147 5.89167 124.63 5.375C124.113 4.84167 123.855 4.20833 123.855 3.475C123.855 2.725 124.113 2.09167 124.63 1.575C125.147 1.05833 125.797 0.799999 126.58 0.799999C127.347 0.799999 127.988 1.05833 128.505 1.575C129.038 2.09167 129.305 2.725 129.305 3.475C129.305 4.20833 129.038 4.84167 128.505 5.375C127.988 5.89167 127.347 6.15 126.58 6.15ZM124.13 19V6.575H129.03V19H124.13ZM131.869 19V6.575H136.769V8.4C137.436 6.95 138.778 6.225 140.794 6.225C143.828 6.225 145.344 7.95833 145.344 11.425V19H140.344V12.675C140.344 11.1083 139.769 10.325 138.619 10.325C137.386 10.325 136.769 11.1417 136.769 12.775V19H131.869ZM161.181 12.15C161.181 12.7667 161.139 13.375 161.056 13.975H151.906C151.939 14.625 152.164 15.1333 152.581 15.5C153.014 15.8667 153.581 16.05 154.281 16.05C155.331 16.05 155.981 15.7417 156.231 15.125H160.981C160.764 16.4417 160.048 17.4917 158.831 18.275C157.614 19.0417 156.098 19.425 154.281 19.425C152.014 19.425 150.231 18.85 148.931 17.7C147.648 16.5333 147.006 14.9 147.006 12.8C147.006 10.7333 147.656 9.10833 148.956 7.925C150.256 6.725 151.998 6.125 154.181 6.125C156.248 6.125 157.931 6.68333 159.231 7.8C160.531 8.91667 161.181 10.3667 161.181 12.15ZM151.906 11.275H156.281C156.264 10.5917 156.073 10.0583 155.706 9.675C155.339 9.29167 154.814 9.1 154.131 9.1C153.464 9.1 152.931 9.3 152.531 9.7C152.148 10.1 151.939 10.625 151.906 11.275ZM7.775 48.55C5.49167 48.55 3.69167 48 2.375 46.9C1.075 45.7833 0.425 44.2417 0.425 42.275H5.625C5.625 43.025 5.81667 43.6167 6.2 44.05C6.6 44.4833 7.15 44.7 7.85 44.7C9.01667 44.7 9.6 44.2167 9.6 43.25C9.6 42.85 9.475 42.5333 9.225 42.3C8.975 42.05 8.55 41.8083 7.95 41.575L4.475 40.3C1.975 39.3667 0.725 37.7167 0.725 35.35C0.725 33.7167 1.33333 32.4083 2.55 31.425C3.78333 30.4417 5.45833 29.95 7.575 29.95C9.70833 29.95 11.4083 30.45 12.675 31.45C13.9583 32.45 14.6 33.8167 14.6 35.55H9.4C9.4 34.9 9.23333 34.4 8.9 34.05C8.58333 33.6833 8.125 33.5 7.525 33.5C7.04167 33.5 6.65833 33.6167 6.375 33.85C6.09167 34.0833 5.95 34.4083 5.95 34.825C5.95 35.175 6.09167 35.4833 6.375 35.75C6.65833 36 7.15833 36.2583 7.875 36.525L11.075 37.75C13.5583 38.7167 14.8 40.4 14.8 42.8C14.8 44.5667 14.1667 45.9667 12.9 47C11.6333 48.0333 9.925 48.55 7.775 48.55ZM30.0285 41.15C30.0285 41.7667 29.9868 42.375 29.9035 42.975H20.7535C20.7868 43.625 21.0118 44.1333 21.4285 44.5C21.8618 44.8667 22.4285 45.05 23.1285 45.05C24.1785 45.05 24.8285 44.7417 25.0785 44.125H29.8285C29.6118 45.4417 28.8952 46.4917 27.6785 47.275C26.4618 48.0417 24.9452 48.425 23.1285 48.425C20.8618 48.425 19.0785 47.85 17.7785 46.7C16.4952 45.5333 15.8535 43.9 15.8535 41.8C15.8535 39.7333 16.5035 38.1083 17.8035 36.925C19.1035 35.725 20.8452 35.125 23.0285 35.125C25.0952 35.125 26.7785 35.6833 28.0785 36.8C29.3785 37.9167 30.0285 39.3667 30.0285 41.15ZM20.7535 40.275H25.1285C25.1118 39.5917 24.9202 39.0583 24.5535 38.675C24.1868 38.2917 23.6618 38.1 22.9785 38.1C22.3118 38.1 21.7785 38.3 21.3785 38.7C20.9952 39.1 20.7868 39.625 20.7535 40.275ZM31.8205 48V30.5H36.7205V48H31.8205ZM39.5598 48V30.5H44.4598V48H39.5598ZM49.749 35.15C48.9657 35.15 48.3157 34.8917 47.799 34.375C47.2824 33.8417 47.024 33.2083 47.024 32.475C47.024 31.725 47.2824 31.0917 47.799 30.575C48.3157 30.0583 48.9657 29.8 49.749 29.8C50.5157 29.8 51.1574 30.0583 51.674 30.575C52.2074 31.0917 52.474 31.725 52.474 32.475C52.474 33.2083 52.2074 33.8417 51.674 34.375C51.1574 34.8917 50.5157 35.15 49.749 35.15ZM47.299 48V35.575H52.199V48H47.299ZM55.0383 48V35.575H59.9383V37.4C60.6049 35.95 61.9466 35.225 63.9633 35.225C66.9966 35.225 68.5133 36.9583 68.5133 40.425V48H63.5133V41.675C63.5133 40.1083 62.9383 39.325 61.7883 39.325C60.5549 39.325 59.9383 40.1417 59.9383 41.775V48H55.0383ZM79.8748 35.575H84.7748V46.875C84.7748 49.2083 83.9248 50.95 82.2248 52.1C81.1748 52.8167 79.6498 53.175 77.6498 53.175C75.6998 53.175 74.1748 52.875 73.0748 52.275C72.3581 51.8917 71.7665 51.375 71.2998 50.725C70.8498 50.075 70.6248 49.4167 70.6248 48.75H75.5748C75.7081 49.4833 76.3748 49.85 77.5748 49.85C79.1081 49.85 79.8748 49.1 79.8748 47.6V45.65C79.6081 46.2667 79.1165 46.7667 78.3998 47.15C77.6831 47.5333 76.8998 47.725 76.0498 47.725C74.3165 47.725 72.9331 47.1583 71.8998 46.025C70.8665 44.875 70.3498 43.3833 70.3498 41.55C70.3498 39.6833 70.8748 38.1667 71.9248 37C72.9748 35.8167 74.3581 35.225 76.0748 35.225C76.9581 35.225 77.7415 35.425 78.4248 35.825C79.1248 36.225 79.6081 36.7583 79.8748 37.425V35.575ZM77.7498 44.25C78.4665 44.25 79.0331 44 79.4498 43.5C79.8665 43 80.0748 42.375 80.0748 41.625C80.0748 40.875 79.8665 40.25 79.4498 39.75C79.0331 39.25 78.4665 39 77.7498 39C77.0665 39 76.5081 39.25 76.0748 39.75C75.6415 40.2333 75.4248 40.8583 75.4248 41.625C75.4248 42.3917 75.6415 43.025 76.0748 43.525C76.5081 44.0083 77.0665 44.25 77.7498 44.25Z" fill="#444053"/>
</svg>
