<svg width="260" height="60" viewBox="0 0 260 60" fill="none" xmlns="http://www.w3.org/2000/svg">
<path d="M1.44 13V0.399999H3.078V5.998H8.946V0.399999H10.584V13H8.946V7.474H3.078V13H1.44ZM16.8114 13.216C15.5274 13.216 14.5194 12.808 13.7874 11.992C13.0674 11.176 12.7074 10.132 12.7074 8.86C12.7074 7.6 13.0794 6.556 13.8234 5.728C14.5794 4.9 15.5874 4.486 16.8474 4.486C17.4954 4.486 18.0774 4.636 18.5934 4.936C19.1094 5.236 19.4994 5.644 19.7634 6.16V4.702H21.3114V13H19.7634V11.542C19.4994 12.046 19.0974 12.454 18.5574 12.766C18.0174 13.066 17.4354 13.216 16.8114 13.216ZM17.0274 11.812C17.9034 11.812 18.5874 11.53 19.0794 10.966C19.5834 10.39 19.8354 9.688 19.8354 8.86C19.8354 8.02 19.5834 7.318 19.0794 6.754C18.5874 6.178 17.9034 5.89 17.0274 5.89C16.1874 5.89 15.5154 6.172 15.0114 6.736C14.5074 7.288 14.2554 7.996 14.2554 8.86C14.2554 9.724 14.5074 10.432 15.0114 10.984C15.5154 11.536 16.1874 11.812 17.0274 11.812ZM26.3662 13L22.7122 4.702H24.3862L26.9962 10.912L29.6242 4.702H31.2982L27.6442 13H26.3662ZM39.7198 8.374C39.7198 8.602 39.7018 8.914 39.6658 9.31H33.2398C33.2518 10.102 33.4918 10.726 33.9598 11.182C34.4278 11.626 35.0578 11.848 35.8498 11.848C36.9538 11.848 37.6858 11.44 38.0458 10.624H39.6118C39.4678 11.392 39.0478 12.016 38.3518 12.496C37.6558 12.976 36.8218 13.216 35.8498 13.216C34.5778 13.216 33.5638 12.826 32.8078 12.046C32.0638 11.254 31.6918 10.186 31.6918 8.842C31.6918 7.522 32.0638 6.466 32.8078 5.674C33.5518 4.882 34.5418 4.486 35.7778 4.486C36.9538 4.486 37.9018 4.846 38.6218 5.566C39.3538 6.286 39.7198 7.222 39.7198 8.374ZM33.2398 8.104H38.1718C38.1718 7.372 37.9558 6.796 37.5238 6.376C37.1038 5.956 36.5158 5.746 35.7598 5.746C35.0158 5.746 34.4158 5.962 33.9598 6.394C33.5158 6.826 33.2758 7.396 33.2398 8.104ZM52.4989 13.216C51.2149 13.216 50.2069 12.808 49.4749 11.992C48.7549 11.176 48.3949 10.132 48.3949 8.86C48.3949 7.6 48.7669 6.556 49.5109 5.728C50.2669 4.9 51.2749 4.486 52.5349 4.486C53.1829 4.486 53.7649 4.636 54.2809 4.936C54.7969 5.236 55.1869 5.644 55.4509 6.16V4.702H56.9989V13H55.4509V11.542C55.1869 12.046 54.7849 12.454 54.2449 12.766C53.7049 13.066 53.1229 13.216 52.4989 13.216ZM52.7149 11.812C53.5909 11.812 54.2749 11.53 54.7669 10.966C55.2709 10.39 55.5229 9.688 55.5229 8.86C55.5229 8.02 55.2709 7.318 54.7669 6.754C54.2749 6.178 53.5909 5.89 52.7149 5.89C51.8749 5.89 51.2029 6.172 50.6989 6.736C50.1949 7.288 49.9429 7.996 49.9429 8.86C49.9429 9.724 50.1949 10.432 50.6989 10.984C51.2029 11.536 51.8749 11.812 52.7149 11.812ZM71.6201 4.486C72.8081 4.486 73.7741 4.894 74.5181 5.71C75.2621 6.514 75.6341 7.564 75.6341 8.86C75.6341 10.132 75.2501 11.176 74.4821 11.992C73.7141 12.808 72.7301 13.216 71.5301 13.216C70.8941 13.216 70.3061 13.066 69.7661 12.766C69.2381 12.466 68.8421 12.058 68.5781 11.542V13H67.0121V0.399999H68.5781V6.16C68.8421 5.644 69.2441 5.236 69.7841 4.936C70.3361 4.636 70.9481 4.486 71.6201 4.486ZM71.3141 11.812C72.1181 11.812 72.7781 11.536 73.2941 10.984C73.8101 10.432 74.0681 9.724 74.0681 8.86C74.0681 7.996 73.8101 7.288 73.2941 6.736C72.7781 6.172 72.1181 5.89 71.3141 5.89C70.4861 5.89 69.8081 6.166 69.2801 6.718C68.7641 7.27 68.5061 7.984 68.5061 8.86C68.5061 9.724 68.7641 10.432 69.2801 10.984C69.8081 11.536 70.4861 11.812 71.3141 11.812ZM80.7069 13.216C79.7469 13.216 78.9789 12.928 78.4029 12.352C77.8389 11.764 77.5569 10.918 77.5569 9.814V4.702H79.1229V9.436C79.1229 11.056 79.7949 11.866 81.1389 11.866C81.9309 11.866 82.5189 11.614 82.9029 11.11C83.2989 10.594 83.4969 9.97 83.4969 9.238V4.702H85.0629V13H83.4969V11.488C83.2689 12.016 82.9089 12.436 82.4169 12.748C81.9369 13.06 81.3669 13.216 80.7069 13.216ZM90.5443 13.216C89.5003 13.216 88.6603 12.958 88.0243 12.442C87.4003 11.914 87.0883 11.272 87.0883 10.516H88.6363C88.6363 10.936 88.8163 11.284 89.1763 11.56C89.5363 11.824 90.0163 11.956 90.6163 11.956C91.0843 11.956 91.4563 11.848 91.7323 11.632C92.0083 11.416 92.1463 11.122 92.1463 10.75C92.1463 10.162 91.8763 9.802 91.3363 9.67L89.1223 9.094C87.9343 8.77 87.3403 8.026 87.3403 6.862C87.3403 6.178 87.6283 5.614 88.2043 5.17C88.7803 4.714 89.5303 4.486 90.4543 4.486C91.4623 4.486 92.2423 4.72 92.7943 5.188C93.3583 5.644 93.6403 6.244 93.6403 6.988H92.0923C92.0923 6.592 91.9423 6.28 91.6423 6.052C91.3423 5.812 90.9223 5.692 90.3823 5.692C89.9503 5.692 89.5903 5.794 89.3023 5.998C89.0263 6.19 88.8883 6.454 88.8883 6.79C88.8883 7.354 89.1943 7.708 89.8063 7.852L91.8763 8.428C92.4643 8.584 92.9203 8.86 93.2443 9.256C93.5683 9.652 93.7303 10.102 93.7303 10.606C93.7303 11.398 93.4483 12.034 92.8843 12.514C92.3203 12.982 91.5403 13.216 90.5443 13.216ZM96.6498 3.28C96.2778 3.28 95.9718 3.16 95.7318 2.92C95.4918 2.68 95.3718 2.38 95.3718 2.02C95.3718 1.66 95.4918 1.36 95.7318 1.12C95.9718 0.867999 96.2778 0.741999 96.6498 0.741999C97.0098 0.741999 97.3098 0.867999 97.5498 1.12C97.7898 1.36 97.9098 1.66 97.9098 2.02C97.9098 2.38 97.7898 2.68 97.5498 2.92C97.3098 3.16 97.0098 3.28 96.6498 3.28ZM95.8578 13V4.702H97.4238V13H95.8578ZM100.129 13V4.702H101.695V6.232C101.923 5.692 102.283 5.266 102.775 4.954C103.279 4.642 103.885 4.486 104.593 4.486C106.657 4.486 107.689 5.62 107.689 7.888V13H106.123V8.572C106.123 7.636 105.955 6.946 105.619 6.502C105.295 6.058 104.767 5.836 104.035 5.836C103.279 5.836 102.697 6.082 102.289 6.574C101.893 7.066 101.695 7.744 101.695 8.608V13H100.129ZM117.669 8.374C117.669 8.602 117.651 8.914 117.615 9.31H111.189C111.201 10.102 111.441 10.726 111.909 11.182C112.377 11.626 113.007 11.848 113.799 11.848C114.903 11.848 115.635 11.44 115.995 10.624H117.561C117.417 11.392 116.997 12.016 116.301 12.496C115.605 12.976 114.771 13.216 113.799 13.216C112.527 13.216 111.513 12.826 110.757 12.046C110.013 11.254 109.641 10.186 109.641 8.842C109.641 7.522 110.013 6.466 110.757 5.674C111.501 4.882 112.491 4.486 113.727 4.486C114.903 4.486 115.851 4.846 116.571 5.566C117.303 6.286 117.669 7.222 117.669 8.374ZM111.189 8.104H116.121C116.121 7.372 115.905 6.796 115.473 6.376C115.053 5.956 114.465 5.746 113.709 5.746C112.965 5.746 112.365 5.962 111.909 6.394C111.465 6.826 111.225 7.396 111.189 8.104ZM122.484 13.216C121.44 13.216 120.6 12.958 119.964 12.442C119.34 11.914 119.028 11.272 119.028 10.516H120.576C120.576 10.936 120.756 11.284 121.116 11.56C121.476 11.824 121.956 11.956 122.556 11.956C123.024 11.956 123.396 11.848 123.672 11.632C123.948 11.416 124.086 11.122 124.086 10.75C124.086 10.162 123.816 9.802 123.276 9.67L121.062 9.094C119.874 8.77 119.28 8.026 119.28 6.862C119.28 6.178 119.568 5.614 120.144 5.17C120.72 4.714 121.47 4.486 122.394 4.486C123.402 4.486 124.182 4.72 124.734 5.188C125.298 5.644 125.58 6.244 125.58 6.988H124.032C124.032 6.592 123.882 6.28 123.582 6.052C123.282 5.812 122.862 5.692 122.322 5.692C121.89 5.692 121.53 5.794 121.242 5.998C120.966 6.19 120.828 6.454 120.828 6.79C120.828 7.354 121.134 7.708 121.746 7.852L123.816 8.428C124.404 8.584 124.86 8.86 125.184 9.256C125.508 9.652 125.67 10.102 125.67 10.606C125.67 11.398 125.388 12.034 124.824 12.514C124.26 12.982 123.48 13.216 122.484 13.216ZM130.587 13.216C129.543 13.216 128.703 12.958 128.067 12.442C127.443 11.914 127.131 11.272 127.131 10.516H128.679C128.679 10.936 128.859 11.284 129.219 11.56C129.579 11.824 130.059 11.956 130.659 11.956C131.127 11.956 131.499 11.848 131.775 11.632C132.051 11.416 132.189 11.122 132.189 10.75C132.189 10.162 131.919 9.802 131.379 9.67L129.165 9.094C127.977 8.77 127.383 8.026 127.383 6.862C127.383 6.178 127.671 5.614 128.247 5.17C128.823 4.714 129.573 4.486 130.497 4.486C131.505 4.486 132.285 4.72 132.837 5.188C133.401 5.644 133.683 6.244 133.683 6.988H132.135C132.135 6.592 131.985 6.28 131.685 6.052C131.385 5.812 130.965 5.692 130.425 5.692C129.993 5.692 129.633 5.794 129.345 5.998C129.069 6.19 128.931 6.454 128.931 6.79C128.931 7.354 129.237 7.708 129.849 7.852L131.919 8.428C132.507 8.584 132.963 8.86 133.287 9.256C133.611 9.652 133.773 10.102 133.773 10.606C133.773 11.398 133.491 12.034 132.927 12.514C132.363 12.982 131.583 13.216 130.587 13.216ZM137.452 9.202V8.932C137.452 8.332 137.53 7.852 137.686 7.492C137.842 7.132 138.154 6.778 138.622 6.43L139.54 5.8C140.344 5.224 140.746 4.474 140.746 3.55C140.746 2.95 140.554 2.464 140.17 2.092C139.798 1.72 139.288 1.534 138.64 1.534C137.896 1.534 137.302 1.756 136.858 2.2C136.426 2.644 136.21 3.28 136.21 4.108H134.572C134.572 2.848 134.938 1.864 135.67 1.156C136.414 0.448 137.428 0.0939999 138.712 0.0939999C139.888 0.0939999 140.806 0.406 141.466 1.03C142.126 1.654 142.456 2.476 142.456 3.496C142.456 4.216 142.294 4.822 141.97 5.314C141.658 5.806 141.214 6.28 140.638 6.736L139.864 7.294C139.528 7.546 139.3 7.786 139.18 8.014C139.072 8.23 139.018 8.53 139.018 8.914V9.202H137.452ZM139.162 12.748C138.91 13 138.598 13.126 138.226 13.126C137.854 13.126 137.542 13 137.29 12.748C137.038 12.484 136.912 12.172 136.912 11.812C136.912 11.452 137.038 11.146 137.29 10.894C137.542 10.63 137.854 10.498 138.226 10.498C138.598 10.498 138.91 10.63 139.162 10.894C139.414 11.146 139.54 11.452 139.54 11.812C139.54 12.172 139.414 12.484 139.162 12.748ZM151.657 13V0.399999H153.295V11.452H158.659V13H151.657ZM167.7 8.374C167.7 8.602 167.682 8.914 167.646 9.31H161.22C161.232 10.102 161.472 10.726 161.94 11.182C162.408 11.626 163.038 11.848 163.83 11.848C164.934 11.848 165.666 11.44 166.026 10.624H167.592C167.448 11.392 167.028 12.016 166.332 12.496C165.636 12.976 164.802 13.216 163.83 13.216C162.558 13.216 161.544 12.826 160.788 12.046C160.044 11.254 159.672 10.186 159.672 8.842C159.672 7.522 160.044 6.466 160.788 5.674C161.532 4.882 162.522 4.486 163.758 4.486C164.934 4.486 165.882 4.846 166.602 5.566C167.334 6.286 167.7 7.222 167.7 8.374ZM161.22 8.104H166.152C166.152 7.372 165.936 6.796 165.504 6.376C165.084 5.956 164.496 5.746 163.74 5.746C162.996 5.746 162.396 5.962 161.94 6.394C161.496 6.826 161.256 7.396 161.22 8.104ZM173.304 13.216C172.02 13.216 171.012 12.808 170.28 11.992C169.56 11.176 169.2 10.132 169.2 8.86C169.2 7.6 169.572 6.556 170.316 5.728C171.072 4.9 172.08 4.486 173.34 4.486C173.988 4.486 174.57 4.636 175.086 4.936C175.602 5.236 175.992 5.644 176.256 6.16V4.702H177.804V13H176.256V11.542C175.992 12.046 175.59 12.454 175.05 12.766C174.51 13.066 173.928 13.216 173.304 13.216ZM173.52 11.812C174.396 11.812 175.08 11.53 175.572 10.966C176.076 10.39 176.328 9.688 176.328 8.86C176.328 8.02 176.076 7.318 175.572 6.754C175.08 6.178 174.396 5.89 173.52 5.89C172.68 5.89 172.008 6.172 171.504 6.736C171 7.288 170.748 7.996 170.748 8.86C170.748 9.724 171 10.432 171.504 10.984C172.008 11.536 172.68 11.812 173.52 11.812ZM180.5 13V4.702H182.066V6.592C182.222 5.932 182.528 5.434 182.984 5.098C183.44 4.75 183.944 4.576 184.496 4.576C184.82 4.576 185.072 4.6 185.252 4.648V6.088C185.072 6.052 184.814 6.034 184.478 6.034C183.698 6.034 183.098 6.346 182.678 6.97C182.27 7.594 182.066 8.392 182.066 9.364V13H180.5ZM187.004 13V4.702H188.57V6.232C188.798 5.692 189.158 5.266 189.65 4.954C190.154 4.642 190.76 4.486 191.468 4.486C193.532 4.486 194.564 5.62 194.564 7.888V13H192.998V8.572C192.998 7.636 192.83 6.946 192.494 6.502C192.17 6.058 191.642 5.836 190.91 5.836C190.154 5.836 189.572 6.082 189.164 6.574C188.768 7.066 188.57 7.744 188.57 8.608V13H187.004ZM208.98 4.486C211.044 4.486 212.076 5.62 212.076 7.888V13H210.51V8.572C210.51 7.636 210.342 6.946 210.006 6.502C209.682 6.058 209.154 5.836 208.422 5.836C207.666 5.836 207.084 6.082 206.676 6.574C206.28 7.066 206.082 7.744 206.082 8.608V13H204.516V0.399999H206.082V6.232C206.31 5.692 206.67 5.266 207.162 4.954C207.666 4.642 208.272 4.486 208.98 4.486ZM218.348 13.216C217.028 13.216 215.978 12.802 215.198 11.974C214.418 11.134 214.028 10.09 214.028 8.842C214.028 7.594 214.418 6.556 215.198 5.728C215.978 4.9 217.028 4.486 218.348 4.486C219.656 4.486 220.7 4.906 221.48 5.746C222.272 6.574 222.668 7.606 222.668 8.842C222.668 10.09 222.272 11.134 221.48 11.974C220.7 12.802 219.656 13.216 218.348 13.216ZM216.314 10.984C216.818 11.536 217.496 11.812 218.348 11.812C219.2 11.812 219.872 11.536 220.364 10.984C220.856 10.42 221.102 9.706 221.102 8.842C221.102 7.99 220.856 7.288 220.364 6.736C219.872 6.172 219.2 5.89 218.348 5.89C217.496 5.89 216.818 6.172 216.314 6.736C215.822 7.288 215.576 7.996 215.576 8.86C215.576 9.712 215.822 10.42 216.314 10.984ZM226.163 13L223.103 4.702H224.813L226.811 10.75L228.827 4.702H230.501L232.517 10.75L234.515 4.702H236.243L233.165 13H231.833L229.655 6.628L227.495 13H226.163ZM248.512 11.686C248.944 11.686 249.292 11.656 249.556 11.596V12.982C249.196 13.066 248.734 13.108 248.17 13.108C247.918 13.108 247.696 13.096 247.504 13.072C247.324 13.048 247.108 12.982 246.856 12.874C246.604 12.766 246.394 12.616 246.226 12.424C246.058 12.22 245.914 11.938 245.794 11.578C245.674 11.206 245.614 10.762 245.614 10.246V6.016H244.12V4.702H245.614V2.074H247.18V4.702H249.268V6.016H247.18V9.904C247.18 10.636 247.288 11.116 247.504 11.344C247.72 11.572 248.056 11.686 248.512 11.686ZM255.002 13.216C253.682 13.216 252.632 12.802 251.852 11.974C251.072 11.134 250.682 10.09 250.682 8.842C250.682 7.594 251.072 6.556 251.852 5.728C252.632 4.9 253.682 4.486 255.002 4.486C256.31 4.486 257.354 4.906 258.134 5.746C258.926 6.574 259.322 7.606 259.322 8.842C259.322 10.09 258.926 11.134 258.134 11.974C257.354 12.802 256.31 13.216 255.002 13.216ZM252.968 10.984C253.472 11.536 254.15 11.812 255.002 11.812C255.854 11.812 256.526 11.536 257.018 10.984C257.51 10.42 257.756 9.706 257.756 8.842C257.756 7.99 257.51 7.288 257.018 6.736C256.526 6.172 255.854 5.89 255.002 5.89C254.15 5.89 253.472 6.172 252.968 6.736C252.476 7.288 252.23 7.996 252.23 8.86C252.23 9.712 252.476 10.42 252.968 10.984ZM7.722 21.4H9.288V34H7.74V32.542C7.476 33.046 7.074 33.454 6.534 33.766C5.994 34.066 5.412 34.216 4.788 34.216C3.504 34.216 2.496 33.808 1.764 32.992C1.044 32.176 0.684 31.132 0.684 29.86C0.684 28.6 1.056 27.556 1.8 26.728C2.556 25.9 3.564 25.486 4.824 25.486C5.472 25.486 6.054 25.636 6.57 25.936C7.086 26.236 7.476 26.644 7.74 27.16V26.296H7.722V21.4ZM5.004 32.812C5.88 32.812 6.564 32.53 7.056 31.966C7.56 31.39 7.812 30.688 7.812 29.86C7.812 29.02 7.56 28.318 7.056 27.754C6.564 27.178 5.88 26.89 5.004 26.89C4.164 26.89 3.492 27.172 2.988 27.736C2.484 28.288 2.232 28.996 2.232 29.86C2.232 30.724 2.484 31.432 2.988 31.984C3.492 32.536 4.164 32.812 5.004 32.812ZM11.9848 34V25.702H13.5508V27.592C13.7068 26.932 14.0128 26.434 14.4688 26.098C14.9248 25.75 15.4288 25.576 15.9808 25.576C16.3048 25.576 16.5568 25.6 16.7368 25.648V27.088C16.5568 27.052 16.2988 27.034 15.9628 27.034C15.1828 27.034 14.5828 27.346 14.1628 27.97C13.7548 28.594 13.5508 29.392 13.5508 30.364V34H11.9848ZM19.2807 24.28C18.9087 24.28 18.6027 24.16 18.3627 23.92C18.1227 23.68 18.0027 23.38 18.0027 23.02C18.0027 22.66 18.1227 22.36 18.3627 22.12C18.6027 21.868 18.9087 21.742 19.2807 21.742C19.6407 21.742 19.9407 21.868 20.1807 22.12C20.4207 22.36 20.5407 22.66 20.5407 23.02C20.5407 23.38 20.4207 23.68 20.1807 23.92C19.9407 24.16 19.6407 24.28 19.2807 24.28ZM18.4887 34V25.702H20.0547V34H18.4887ZM25.1182 34L21.4642 25.702H23.1382L25.7482 31.912L28.3762 25.702H30.0502L26.3962 34H25.1182ZM38.4718 29.374C38.4718 29.602 38.4538 29.914 38.4178 30.31H31.9918C32.0038 31.102 32.2438 31.726 32.7118 32.182C33.1798 32.626 33.8098 32.848 34.6018 32.848C35.7058 32.848 36.4378 32.44 36.7978 31.624H38.3638C38.2198 32.392 37.7998 33.016 37.1038 33.496C36.4078 33.976 35.5738 34.216 34.6018 34.216C33.3298 34.216 32.3158 33.826 31.5598 33.046C30.8158 32.254 30.4438 31.186 30.4438 29.842C30.4438 28.522 30.8158 27.466 31.5598 26.674C32.3038 25.882 33.2938 25.486 34.5298 25.486C35.7058 25.486 36.6538 25.846 37.3738 26.566C38.1058 27.286 38.4718 28.222 38.4718 29.374ZM31.9918 29.104H36.9238C36.9238 28.372 36.7078 27.796 36.2758 27.376C35.8558 26.956 35.2678 26.746 34.5118 26.746C33.7678 26.746 33.1678 26.962 32.7118 27.394C32.2678 27.826 32.0278 28.396 31.9918 29.104ZM63.8629 34.216C62.5789 34.216 61.5709 33.808 60.8389 32.992C60.1189 32.176 59.7589 31.132 59.7589 29.86C59.7589 28.6 60.1309 27.556 60.8749 26.728C61.6309 25.9 62.6389 25.486 63.8989 25.486C64.5469 25.486 65.1289 25.636 65.6449 25.936C66.1609 26.236 66.5509 26.644 66.8149 27.16V25.702H68.3629V34H66.8149V32.542C66.5509 33.046 66.1489 33.454 65.6089 33.766C65.0689 34.066 64.4869 34.216 63.8629 34.216ZM64.0789 32.812C64.9549 32.812 65.6389 32.53 66.1309 31.966C66.6349 31.39 66.8869 30.688 66.8869 29.86C66.8869 29.02 66.6349 28.318 66.1309 27.754C65.6389 27.178 64.9549 26.89 64.0789 26.89C63.2389 26.89 62.5669 27.172 62.0629 27.736C61.5589 28.288 61.3069 28.996 61.3069 29.86C61.3069 30.724 61.5589 31.432 62.0629 31.984C62.5669 32.536 63.2389 32.812 64.0789 32.812ZM77.4316 21.4H78.9976V34H77.4496V32.542C77.1856 33.046 76.7836 33.454 76.2436 33.766C75.7036 34.066 75.1216 34.216 74.4976 34.216C73.2136 34.216 72.2056 33.808 71.4736 32.992C70.7536 32.176 70.3936 31.132 70.3936 29.86C70.3936 28.6 70.7656 27.556 71.5096 26.728C72.2656 25.9 73.2736 25.486 74.5336 25.486C75.1816 25.486 75.7636 25.636 76.2796 25.936C76.7956 26.236 77.1856 26.644 77.4496 27.16V26.296H77.4316V21.4ZM74.7136 32.812C75.5896 32.812 76.2736 32.53 76.7656 31.966C77.2696 31.39 77.5216 30.688 77.5216 29.86C77.5216 29.02 77.2696 28.318 76.7656 27.754C76.2736 27.178 75.5896 26.89 74.7136 26.89C73.8736 26.89 73.2016 27.172 72.6976 27.736C72.1936 28.288 71.9416 28.996 71.9416 29.86C71.9416 30.724 72.1936 31.432 72.6976 31.984C73.2016 32.536 73.8736 32.812 74.7136 32.812ZM88.0664 21.4H89.6324V34H88.0844V32.542C87.8204 33.046 87.4184 33.454 86.8784 33.766C86.3384 34.066 85.7564 34.216 85.1324 34.216C83.8484 34.216 82.8404 33.808 82.1084 32.992C81.3884 32.176 81.0284 31.132 81.0284 29.86C81.0284 28.6 81.4004 27.556 82.1444 26.728C82.9004 25.9 83.9084 25.486 85.1684 25.486C85.8164 25.486 86.3984 25.636 86.9144 25.936C87.4304 26.236 87.8204 26.644 88.0844 27.16V26.296H88.0664V21.4ZM85.3484 32.812C86.2244 32.812 86.9084 32.53 87.4004 31.966C87.9044 31.39 88.1564 30.688 88.1564 29.86C88.1564 29.02 87.9044 28.318 87.4004 27.754C86.9084 27.178 86.2244 26.89 85.3484 26.89C84.5084 26.89 83.8364 27.172 83.3324 27.736C82.8284 28.288 82.5764 28.996 82.5764 29.86C82.5764 30.724 82.8284 31.432 83.3324 31.984C83.8364 32.536 84.5084 32.812 85.3484 32.812ZM93.1212 24.28C92.7492 24.28 92.4432 24.16 92.2032 23.92C91.9632 23.68 91.8432 23.38 91.8432 23.02C91.8432 22.66 91.9632 22.36 92.2032 22.12C92.4432 21.868 92.7492 21.742 93.1212 21.742C93.4812 21.742 93.7812 21.868 94.0212 22.12C94.2612 22.36 94.3812 22.66 94.3812 23.02C94.3812 23.38 94.2612 23.68 94.0212 23.92C93.7812 24.16 93.4812 24.28 93.1212 24.28ZM92.3292 34V25.702H93.8952V34H92.3292ZM100.075 32.686C100.507 32.686 100.855 32.656 101.119 32.596V33.982C100.759 34.066 100.297 34.108 99.7326 34.108C99.4806 34.108 99.2586 34.096 99.0666 34.072C98.8866 34.048 98.6706 33.982 98.4186 33.874C98.1666 33.766 97.9566 33.616 97.7886 33.424C97.6206 33.22 97.4766 32.938 97.3566 32.578C97.2366 32.206 97.1766 31.762 97.1766 31.246V27.016H95.6826V25.702H97.1766V23.074H98.7426V25.702H100.831V27.016H98.7426V30.904C98.7426 31.636 98.8506 32.116 99.0666 32.344C99.2826 32.572 99.6186 32.686 100.075 32.686ZM103.809 24.28C103.437 24.28 103.131 24.16 102.891 23.92C102.651 23.68 102.531 23.38 102.531 23.02C102.531 22.66 102.651 22.36 102.891 22.12C103.131 21.868 103.437 21.742 103.809 21.742C104.169 21.742 104.469 21.868 104.709 22.12C104.949 22.36 105.069 22.66 105.069 23.02C105.069 23.38 104.949 23.68 104.709 23.92C104.469 24.16 104.169 24.28 103.809 24.28ZM103.017 34V25.702H104.583V34H103.017ZM110.942 34.216C109.622 34.216 108.572 33.802 107.792 32.974C107.012 32.134 106.622 31.09 106.622 29.842C106.622 28.594 107.012 27.556 107.792 26.728C108.572 25.9 109.622 25.486 110.942 25.486C112.25 25.486 113.294 25.906 114.074 26.746C114.866 27.574 115.262 28.606 115.262 29.842C115.262 31.09 114.866 32.134 114.074 32.974C113.294 33.802 112.25 34.216 110.942 34.216ZM108.908 31.984C109.412 32.536 110.09 32.812 110.942 32.812C111.794 32.812 112.466 32.536 112.958 31.984C113.45 31.42 113.696 30.706 113.696 29.842C113.696 28.99 113.45 28.288 112.958 27.736C112.466 27.172 111.794 26.89 110.942 26.89C110.09 26.89 109.412 27.172 108.908 27.736C108.416 28.288 108.17 28.996 108.17 29.86C108.17 30.712 108.416 31.42 108.908 31.984ZM117.29 34V25.702H118.856V27.232C119.084 26.692 119.444 26.266 119.936 25.954C120.44 25.642 121.046 25.486 121.754 25.486C123.818 25.486 124.85 26.62 124.85 28.888V34H123.284V29.572C123.284 28.636 123.116 27.946 122.78 27.502C122.456 27.058 121.928 26.836 121.196 26.836C120.44 26.836 119.858 27.082 119.45 27.574C119.054 28.066 118.856 28.744 118.856 29.608V34H117.29ZM130.906 34.216C129.622 34.216 128.614 33.808 127.882 32.992C127.162 32.176 126.802 31.132 126.802 29.86C126.802 28.6 127.174 27.556 127.918 26.728C128.674 25.9 129.682 25.486 130.942 25.486C131.59 25.486 132.172 25.636 132.688 25.936C133.204 26.236 133.594 26.644 133.858 27.16V25.702H135.406V34H133.858V32.542C133.594 33.046 133.192 33.454 132.652 33.766C132.112 34.066 131.53 34.216 130.906 34.216ZM131.122 32.812C131.998 32.812 132.682 32.53 133.174 31.966C133.678 31.39 133.93 30.688 133.93 29.86C133.93 29.02 133.678 28.318 133.174 27.754C132.682 27.178 131.998 26.89 131.122 26.89C130.282 26.89 129.61 27.172 129.106 27.736C128.602 28.288 128.35 28.996 128.35 29.86C128.35 30.724 128.602 31.432 129.106 31.984C129.61 32.536 130.282 32.812 131.122 32.812ZM138.103 34V21.4H139.669V34H138.103ZM163.094 24.28C162.722 24.28 162.416 24.16 162.176 23.92C161.936 23.68 161.816 23.38 161.816 23.02C161.816 22.66 161.936 22.36 162.176 22.12C162.416 21.868 162.722 21.742 163.094 21.742C163.454 21.742 163.754 21.868 163.994 22.12C164.234 22.36 164.354 22.66 164.354 23.02C164.354 23.38 164.234 23.68 163.994 23.92C163.754 24.16 163.454 24.28 163.094 24.28ZM162.302 34V25.702H163.868V34H162.302ZM166.574 34V25.702H168.14V27.232C168.368 26.692 168.728 26.266 169.22 25.954C169.724 25.642 170.33 25.486 171.038 25.486C173.102 25.486 174.134 26.62 174.134 28.888V34H172.568V29.572C172.568 28.636 172.4 27.946 172.064 27.502C171.74 27.058 171.212 26.836 170.48 26.836C169.724 26.836 169.142 27.082 168.734 27.574C168.338 28.066 168.14 28.744 168.14 29.608V34H166.574ZM180.208 34.216C178.948 34.216 177.946 33.82 177.202 33.028C176.458 32.224 176.086 31.168 176.086 29.86C176.086 28.552 176.458 27.502 177.202 26.71C177.946 25.906 178.948 25.504 180.208 25.504C181.324 25.504 182.224 25.786 182.908 26.35C183.592 26.902 183.982 27.646 184.078 28.582H182.512C182.296 27.466 181.528 26.908 180.208 26.908C179.404 26.908 178.774 27.172 178.318 27.7C177.862 28.216 177.634 28.936 177.634 29.86C177.634 30.784 177.862 31.51 178.318 32.038C178.774 32.554 179.404 32.812 180.208 32.812C181.516 32.812 182.284 32.272 182.512 31.192H184.078C183.982 32.116 183.592 32.854 182.908 33.406C182.224 33.946 181.324 34.216 180.208 34.216ZM189.863 34.216C188.543 34.216 187.493 33.802 186.713 32.974C185.933 32.134 185.543 31.09 185.543 29.842C185.543 28.594 185.933 27.556 186.713 26.728C187.493 25.9 188.543 25.486 189.863 25.486C191.171 25.486 192.215 25.906 192.995 26.746C193.787 27.574 194.183 28.606 194.183 29.842C194.183 31.09 193.787 32.134 192.995 32.974C192.215 33.802 191.171 34.216 189.863 34.216ZM187.829 31.984C188.333 32.536 189.011 32.812 189.863 32.812C190.715 32.812 191.387 32.536 191.879 31.984C192.371 31.42 192.617 30.706 192.617 29.842C192.617 28.99 192.371 28.288 191.879 27.736C191.387 27.172 190.715 26.89 189.863 26.89C189.011 26.89 188.333 27.172 187.829 27.736C187.337 28.288 187.091 28.996 187.091 29.86C187.091 30.712 187.337 31.42 187.829 31.984ZM196.211 34V25.702H197.777V27.214C197.945 26.722 198.245 26.314 198.677 25.99C199.109 25.654 199.637 25.486 200.261 25.486C201.689 25.486 202.577 26.08 202.925 27.268C203.117 26.752 203.453 26.326 203.933 25.99C204.413 25.654 204.965 25.486 205.589 25.486C207.581 25.486 208.577 26.572 208.577 28.744V34H207.011V29.05C207.011 27.574 206.411 26.836 205.211 26.836C203.855 26.836 203.177 27.784 203.177 29.68V34H201.611V29.158C201.611 27.61 201.017 26.836 199.829 26.836C199.181 26.836 198.677 27.076 198.317 27.556C197.957 28.024 197.777 28.732 197.777 29.68V34H196.211ZM218.549 29.374C218.549 29.602 218.531 29.914 218.495 30.31H212.069C212.081 31.102 212.321 31.726 212.789 32.182C213.257 32.626 213.887 32.848 214.679 32.848C215.783 32.848 216.515 32.44 216.875 31.624H218.441C218.297 32.392 217.877 33.016 217.181 33.496C216.485 33.976 215.651 34.216 214.679 34.216C213.407 34.216 212.393 33.826 211.637 33.046C210.893 32.254 210.521 31.186 210.521 29.842C210.521 28.522 210.893 27.466 211.637 26.674C212.381 25.882 213.371 25.486 214.607 25.486C215.783 25.486 216.731 25.846 217.451 26.566C218.183 27.286 218.549 28.222 218.549 29.374ZM212.069 29.104H217.001C217.001 28.372 216.785 27.796 216.353 27.376C215.933 26.956 215.345 26.746 214.589 26.746C213.845 26.746 213.245 26.962 212.789 27.394C212.345 27.826 212.105 28.396 212.069 29.104ZM245.11 25.486C246.298 25.486 247.264 25.894 248.008 26.71C248.752 27.514 249.124 28.564 249.124 29.86C249.124 31.132 248.74 32.176 247.972 32.992C247.204 33.808 246.22 34.216 245.02 34.216C244.384 34.216 243.796 34.066 243.256 33.766C242.728 33.466 242.332 33.058 242.068 32.542V34H240.502V21.4H242.068V27.16C242.332 26.644 242.734 26.236 243.274 25.936C243.826 25.636 244.438 25.486 245.11 25.486ZM244.804 32.812C245.608 32.812 246.268 32.536 246.784 31.984C247.3 31.432 247.558 30.724 247.558 29.86C247.558 28.996 247.3 28.288 246.784 27.736C246.268 27.172 245.608 26.89 244.804 26.89C243.976 26.89 243.298 27.166 242.77 27.718C242.254 28.27 241.996 28.984 241.996 29.86C241.996 30.724 242.254 31.432 242.77 31.984C243.298 32.536 243.976 32.812 244.804 32.812ZM257.077 25.702H258.643V34.162C258.643 35.47 258.265 36.466 257.509 37.15C256.837 37.75 255.931 38.05 254.791 38.05C253.591 38.05 252.655 37.762 251.983 37.186C251.371 36.67 251.059 35.956 251.047 35.044H252.631C252.691 36.172 253.405 36.736 254.773 36.736C256.309 36.736 257.077 35.842 257.077 34.054V32.506C256.525 33.646 255.565 34.216 254.197 34.216C253.153 34.216 252.367 33.898 251.839 33.262C251.311 32.614 251.047 31.744 251.047 30.652V25.702H252.613V30.328C252.613 31.132 252.769 31.75 253.081 32.182C253.405 32.602 253.951 32.812 254.719 32.812C255.475 32.812 256.057 32.542 256.465 32.002C256.873 31.45 257.077 30.772 257.077 29.968V25.702ZM2.142 45.262C2.142 44.77 2.202 44.338 2.322 43.966C2.454 43.594 2.616 43.306 2.808 43.102C3 42.886 3.222 42.718 3.474 42.598C3.726 42.466 3.954 42.382 4.158 42.346C4.362 42.31 4.572 42.292 4.788 42.292C5.328 42.292 5.748 42.352 6.048 42.472V43.822C5.736 43.738 5.454 43.696 5.202 43.696C5.01 43.696 4.836 43.714 4.68 43.75C4.536 43.774 4.38 43.834 4.212 43.93C4.056 44.026 3.93 44.182 3.834 44.398C3.75 44.614 3.708 44.89 3.708 45.226V46.702H6.048V48.016H3.708V55H2.142V48.016H0.378V46.702H2.142V45.262ZM8.46 42.742C8.82 42.742 9.12 42.868 9.36 43.12C9.6 43.36 9.72 43.66 9.72 44.02C9.72 44.38 9.6 44.68 9.36 44.92C9.12 45.16 8.82 45.28 8.46 45.28C8.088 45.28 7.782 45.16 7.542 44.92C7.302 44.68 7.182 44.38 7.182 44.02C7.182 43.66 7.302 43.36 7.542 43.12C7.782 42.868 8.088 42.742 8.46 42.742ZM7.668 55V46.702H9.234V55H7.668ZM11.932 55V46.702H13.498V48.232C13.726 47.692 14.086 47.266 14.578 46.954C15.082 46.642 15.688 46.486 16.396 46.486C18.46 46.486 19.492 47.62 19.492 49.888V55H17.926V50.572C17.926 49.636 17.758 48.946 17.422 48.502C17.098 48.058 16.57 47.836 15.838 47.836C15.082 47.836 14.5 48.082 14.092 48.574C13.696 49.066 13.498 49.744 13.498 50.608V55H11.932ZM28.4818 42.4H30.0478V55H28.4998V53.542C28.2358 54.046 27.8338 54.454 27.2938 54.766C26.7538 55.066 26.1718 55.216 25.5478 55.216C24.2638 55.216 23.2558 54.808 22.5238 53.992C21.8038 53.176 21.4438 52.132 21.4438 50.86C21.4438 49.6 21.8158 48.556 22.5598 47.728C23.3158 46.9 24.3238 46.486 25.5838 46.486C26.2318 46.486 26.8138 46.636 27.3298 46.936C27.8458 47.236 28.2358 47.644 28.4998 48.16V47.296H28.4818V42.4ZM25.7638 53.812C26.6398 53.812 27.3238 53.53 27.8158 52.966C28.3198 52.39 28.5718 51.688 28.5718 50.86C28.5718 50.02 28.3198 49.318 27.8158 48.754C27.3238 48.178 26.6398 47.89 25.7638 47.89C24.9238 47.89 24.2518 48.172 23.7478 48.736C23.2438 49.288 22.9918 49.996 22.9918 50.86C22.9918 51.724 23.2438 52.432 23.7478 52.984C24.2518 53.536 24.9238 53.812 25.7638 53.812ZM33.5365 45.28C33.1645 45.28 32.8585 45.16 32.6185 44.92C32.3785 44.68 32.2585 44.38 32.2585 44.02C32.2585 43.66 32.3785 43.36 32.6185 43.12C32.8585 42.868 33.1645 42.742 33.5365 42.742C33.8965 42.742 34.1965 42.868 34.4365 43.12C34.6765 43.36 34.7965 43.66 34.7965 44.02C34.7965 44.38 34.6765 44.68 34.4365 44.92C34.1965 45.16 33.8965 45.28 33.5365 45.28ZM32.7445 55V46.702H34.3105V55H32.7445ZM37.016 55V46.702H38.582V48.232C38.81 47.692 39.17 47.266 39.662 46.954C40.166 46.642 40.772 46.486 41.48 46.486C43.544 46.486 44.576 47.62 44.576 49.888V55H43.01V50.572C43.01 49.636 42.842 48.946 42.506 48.502C42.182 48.058 41.654 47.836 40.922 47.836C40.166 47.836 39.584 48.082 39.176 48.574C38.78 49.066 38.582 49.744 38.582 50.608V55H37.016ZM53.5838 46.702H55.1318V54.784C55.1318 56.368 54.6518 57.532 53.6918 58.276C52.9958 58.792 52.0418 59.05 50.8298 59.05C49.6178 59.05 48.6398 58.78 47.8958 58.24C47.1038 57.688 46.6898 56.956 46.6538 56.044H48.2918C48.3638 56.548 48.6098 56.956 49.0298 57.268C49.4618 57.58 50.0618 57.736 50.8298 57.736C52.6658 57.736 53.5838 56.788 53.5838 54.892V53.542C53.3318 54.058 52.9298 54.466 52.3778 54.766C51.8258 55.066 51.2438 55.216 50.6318 55.216C49.3838 55.216 48.3878 54.802 47.6438 53.974C46.8998 53.146 46.5278 52.108 46.5278 50.86C46.5278 49.612 46.9118 48.574 47.6798 47.746C48.4598 46.906 49.4558 46.486 50.6678 46.486C51.3038 46.486 51.8798 46.636 52.3958 46.936C52.9238 47.236 53.3198 47.644 53.5838 48.16V46.702ZM50.8478 53.812C51.6998 53.812 52.3778 53.53 52.8818 52.966C53.3978 52.402 53.6558 51.7 53.6558 50.86C53.6558 50.02 53.3978 49.318 52.8818 48.754C52.3778 48.178 51.6998 47.89 50.8478 47.89C50.0318 47.89 49.3658 48.172 48.8498 48.736C48.3338 49.288 48.0758 49.996 48.0758 50.86C48.0758 51.712 48.3338 52.42 48.8498 52.984C49.3658 53.536 50.0318 53.812 50.8478 53.812ZM65.8373 55.216C64.5773 55.216 63.5753 54.82 62.8313 54.028C62.0873 53.224 61.7153 52.168 61.7153 50.86C61.7153 49.552 62.0873 48.502 62.8313 47.71C63.5753 46.906 64.5773 46.504 65.8373 46.504C66.9533 46.504 67.8533 46.786 68.5373 47.35C69.2213 47.902 69.6113 48.646 69.7073 49.582H68.1413C67.9253 48.466 67.1573 47.908 65.8373 47.908C65.0333 47.908 64.4033 48.172 63.9473 48.7C63.4913 49.216 63.2633 49.936 63.2633 50.86C63.2633 51.784 63.4913 52.51 63.9473 53.038C64.4033 53.554 65.0333 53.812 65.8373 53.812C67.1453 53.812 67.9133 53.272 68.1413 52.192H69.7073C69.6113 53.116 69.2213 53.854 68.5373 54.406C67.8533 54.946 66.9533 55.216 65.8373 55.216ZM74.7928 55.216C73.8328 55.216 73.0648 54.928 72.4888 54.352C71.9248 53.764 71.6428 52.918 71.6428 51.814V46.702H73.2088V51.436C73.2088 53.056 73.8808 53.866 75.2248 53.866C76.0168 53.866 76.6048 53.614 76.9888 53.11C77.3848 52.594 77.5828 51.97 77.5828 51.238V46.702H79.1488V55H77.5828V53.488C77.3548 54.016 76.9948 54.436 76.5028 54.748C76.0228 55.06 75.4528 55.216 74.7928 55.216ZM84.6302 55.216C83.5862 55.216 82.7462 54.958 82.1102 54.442C81.4862 53.914 81.1742 53.272 81.1742 52.516H82.7222C82.7222 52.936 82.9022 53.284 83.2622 53.56C83.6222 53.824 84.1022 53.956 84.7022 53.956C85.1702 53.956 85.5422 53.848 85.8182 53.632C86.0942 53.416 86.2322 53.122 86.2322 52.75C86.2322 52.162 85.9622 51.802 85.4222 51.67L83.2082 51.094C82.0202 50.77 81.4262 50.026 81.4262 48.862C81.4262 48.178 81.7142 47.614 82.2902 47.17C82.8662 46.714 83.6162 46.486 84.5402 46.486C85.5482 46.486 86.3282 46.72 86.8802 47.188C87.4442 47.644 87.7262 48.244 87.7262 48.988H86.1782C86.1782 48.592 86.0282 48.28 85.7282 48.052C85.4282 47.812 85.0082 47.692 84.4682 47.692C84.0362 47.692 83.6762 47.794 83.3882 47.998C83.1122 48.19 82.9742 48.454 82.9742 48.79C82.9742 49.354 83.2802 49.708 83.8922 49.852L85.9622 50.428C86.5502 50.584 87.0062 50.86 87.3302 51.256C87.6542 51.652 87.8162 52.102 87.8162 52.606C87.8162 53.398 87.5342 54.034 86.9702 54.514C86.4062 54.982 85.6262 55.216 84.6302 55.216ZM93.1365 53.686C93.5685 53.686 93.9165 53.656 94.1805 53.596V54.982C93.8205 55.066 93.3585 55.108 92.7945 55.108C92.5425 55.108 92.3205 55.096 92.1285 55.072C91.9485 55.048 91.7325 54.982 91.4805 54.874C91.2285 54.766 91.0185 54.616 90.8505 54.424C90.6825 54.22 90.5385 53.938 90.4185 53.578C90.2985 53.206 90.2385 52.762 90.2385 52.246V48.016H88.7445V46.702H90.2385V44.074H91.8045V46.702H93.8925V48.016H91.8045V51.904C91.8045 52.636 91.9125 53.116 92.1285 53.344C92.3445 53.572 92.6805 53.686 93.1365 53.686ZM99.627 55.216C98.307 55.216 97.257 54.802 96.477 53.974C95.697 53.134 95.307 52.09 95.307 50.842C95.307 49.594 95.697 48.556 96.477 47.728C97.257 46.9 98.307 46.486 99.627 46.486C100.935 46.486 101.979 46.906 102.759 47.746C103.551 48.574 103.947 49.606 103.947 50.842C103.947 52.09 103.551 53.134 102.759 53.974C101.979 54.802 100.935 55.216 99.627 55.216ZM97.593 52.984C98.097 53.536 98.775 53.812 99.627 53.812C100.479 53.812 101.151 53.536 101.643 52.984C102.135 52.42 102.381 51.706 102.381 50.842C102.381 49.99 102.135 49.288 101.643 48.736C101.151 48.172 100.479 47.89 99.627 47.89C98.775 47.89 98.097 48.172 97.593 48.736C97.101 49.288 96.855 49.996 96.855 50.86C96.855 51.712 97.101 52.42 97.593 52.984ZM105.975 55V46.702H107.541V48.214C107.709 47.722 108.009 47.314 108.441 46.99C108.873 46.654 109.401 46.486 110.025 46.486C111.453 46.486 112.341 47.08 112.689 48.268C112.881 47.752 113.217 47.326 113.697 46.99C114.177 46.654 114.729 46.486 115.353 46.486C117.345 46.486 118.341 47.572 118.341 49.744V55H116.775V50.05C116.775 48.574 116.175 47.836 114.975 47.836C113.619 47.836 112.941 48.784 112.941 50.68V55H111.375V50.158C111.375 48.61 110.781 47.836 109.593 47.836C108.945 47.836 108.441 48.076 108.081 48.556C107.721 49.024 107.541 49.732 107.541 50.68V55H105.975ZM128.314 50.374C128.314 50.602 128.296 50.914 128.26 51.31H121.834C121.846 52.102 122.086 52.726 122.554 53.182C123.022 53.626 123.652 53.848 124.444 53.848C125.548 53.848 126.28 53.44 126.64 52.624H128.206C128.062 53.392 127.642 54.016 126.946 54.496C126.25 54.976 125.416 55.216 124.444 55.216C123.172 55.216 122.158 54.826 121.402 54.046C120.658 53.254 120.286 52.186 120.286 50.842C120.286 49.522 120.658 48.466 121.402 47.674C122.146 46.882 123.136 46.486 124.372 46.486C125.548 46.486 126.496 46.846 127.216 47.566C127.948 48.286 128.314 49.222 128.314 50.374ZM121.834 50.104H126.766C126.766 49.372 126.55 48.796 126.118 48.376C125.698 47.956 125.11 47.746 124.354 47.746C123.61 47.746 123.01 47.962 122.554 48.394C122.11 48.826 121.87 49.396 121.834 50.104ZM130.338 55V46.702H131.904V48.592C132.06 47.932 132.366 47.434 132.822 47.098C133.278 46.75 133.782 46.576 134.334 46.576C134.658 46.576 134.91 46.6 135.09 46.648V48.088C134.91 48.052 134.652 48.034 134.316 48.034C133.536 48.034 132.936 48.346 132.516 48.97C132.108 49.594 131.904 50.392 131.904 51.364V55H130.338ZM139.386 55.216C138.342 55.216 137.502 54.958 136.866 54.442C136.242 53.914 135.93 53.272 135.93 52.516H137.478C137.478 52.936 137.658 53.284 138.018 53.56C138.378 53.824 138.858 53.956 139.458 53.956C139.926 53.956 140.298 53.848 140.574 53.632C140.85 53.416 140.988 53.122 140.988 52.75C140.988 52.162 140.718 51.802 140.178 51.67L137.964 51.094C136.776 50.77 136.182 50.026 136.182 48.862C136.182 48.178 136.47 47.614 137.046 47.17C137.622 46.714 138.372 46.486 139.296 46.486C140.304 46.486 141.084 46.72 141.636 47.188C142.2 47.644 142.482 48.244 142.482 48.988H140.934C140.934 48.592 140.784 48.28 140.484 48.052C140.184 47.812 139.764 47.692 139.224 47.692C138.792 47.692 138.432 47.794 138.144 47.998C137.868 48.19 137.73 48.454 137.73 48.79C137.73 49.354 138.036 49.708 138.648 49.852L140.718 50.428C141.306 50.584 141.762 50.86 142.086 51.256C142.41 51.652 142.572 52.102 142.572 52.606C142.572 53.398 142.29 54.034 141.726 54.514C141.162 54.982 140.382 55.216 139.386 55.216ZM152.906 55.216C151.586 55.216 150.536 54.802 149.756 53.974C148.976 53.134 148.586 52.09 148.586 50.842C148.586 49.594 148.976 48.556 149.756 47.728C150.536 46.9 151.586 46.486 152.906 46.486C154.214 46.486 155.258 46.906 156.038 47.746C156.83 48.574 157.226 49.606 157.226 50.842C157.226 52.09 156.83 53.134 156.038 53.974C155.258 54.802 154.214 55.216 152.906 55.216ZM150.872 52.984C151.376 53.536 152.054 53.812 152.906 53.812C153.758 53.812 154.43 53.536 154.922 52.984C155.414 52.42 155.66 51.706 155.66 50.842C155.66 49.99 155.414 49.288 154.922 48.736C154.43 48.172 153.758 47.89 152.906 47.89C152.054 47.89 151.376 48.172 150.872 48.736C150.38 49.288 150.134 49.996 150.134 50.86C150.134 51.712 150.38 52.42 150.872 52.984ZM159.254 55V46.702H160.82V48.232C161.048 47.692 161.408 47.266 161.9 46.954C162.404 46.642 163.01 46.486 163.718 46.486C165.782 46.486 166.814 47.62 166.814 49.888V55H165.248V50.572C165.248 49.636 165.08 48.946 164.744 48.502C164.42 48.058 163.892 47.836 163.16 47.836C162.404 47.836 161.822 48.082 161.414 48.574C161.018 49.066 160.82 49.744 160.82 50.608V55H159.254ZM169.379 55V42.4H170.945V55H169.379ZM174.443 45.28C174.071 45.28 173.765 45.16 173.525 44.92C173.285 44.68 173.165 44.38 173.165 44.02C173.165 43.66 173.285 43.36 173.525 43.12C173.765 42.868 174.071 42.742 174.443 42.742C174.803 42.742 175.103 42.868 175.343 43.12C175.583 43.36 175.703 43.66 175.703 44.02C175.703 44.38 175.583 44.68 175.343 44.92C175.103 45.16 174.803 45.28 174.443 45.28ZM173.651 55V46.702H175.217V55H173.651ZM177.922 55V46.702H179.488V48.232C179.716 47.692 180.076 47.266 180.568 46.954C181.072 46.642 181.678 46.486 182.386 46.486C184.45 46.486 185.482 47.62 185.482 49.888V55H183.916V50.572C183.916 49.636 183.748 48.946 183.412 48.502C183.088 48.058 182.56 47.836 181.828 47.836C181.072 47.836 180.49 48.082 180.082 48.574C179.686 49.066 179.488 49.744 179.488 50.608V55H177.922ZM195.462 50.374C195.462 50.602 195.444 50.914 195.408 51.31H188.982C188.994 52.102 189.234 52.726 189.702 53.182C190.17 53.626 190.8 53.848 191.592 53.848C192.696 53.848 193.428 53.44 193.788 52.624H195.354C195.21 53.392 194.79 54.016 194.094 54.496C193.398 54.976 192.564 55.216 191.592 55.216C190.32 55.216 189.306 54.826 188.55 54.046C187.806 53.254 187.434 52.186 187.434 50.842C187.434 49.522 187.806 48.466 188.55 47.674C189.294 46.882 190.284 46.486 191.52 46.486C192.696 46.486 193.644 46.846 194.364 47.566C195.096 48.286 195.462 49.222 195.462 50.374ZM188.982 50.104H193.914C193.914 49.372 193.698 48.796 193.266 48.376C192.846 47.956 192.258 47.746 191.502 47.746C190.758 47.746 190.158 47.962 189.702 48.394C189.258 48.826 189.018 49.396 188.982 50.104Z" fill="#444053"/>
</svg>
