<svg width="194" height="49" viewBox="0 0 194 49" fill="none" xmlns="http://www.w3.org/2000/svg">
<path d="M7.775 19.55C5.49167 19.55 3.69167 19 2.375 17.9C1.075 16.7833 0.425 15.2417 0.425 13.275H5.625C5.625 14.025 5.81667 14.6167 6.2 15.05C6.6 15.4833 7.15 15.7 7.85 15.7C9.01667 15.7 9.6 15.2167 9.6 14.25C9.6 13.85 9.475 13.5333 9.225 13.3C8.975 13.05 8.55 12.8083 7.95 12.575L4.475 11.3C1.975 10.3667 0.725 8.71667 0.725 6.35C0.725 4.71667 1.33333 3.40833 2.55 2.425C3.78333 1.44167 5.45833 0.949998 7.575 0.949998C9.70833 0.949998 11.4083 1.45 12.675 2.45C13.9583 3.45 14.6 4.81667 14.6 6.55H9.4C9.4 5.9 9.23333 5.4 8.9 5.05C8.58333 4.68333 8.125 4.5 7.525 4.5C7.04167 4.5 6.65833 4.61667 6.375 4.85C6.09167 5.08333 5.95 5.40833 5.95 5.825C5.95 6.175 6.09167 6.48333 6.375 6.75C6.65833 7 7.15833 7.25833 7.875 7.525L11.075 8.75C13.5583 9.71667 14.8 11.4 14.8 13.8C14.8 15.5667 14.1667 16.9667 12.9 18C11.6333 19.0333 9.925 19.55 7.775 19.55ZM30.0285 12.15C30.0285 12.7667 29.9868 13.375 29.9035 13.975H20.7535C20.7868 14.625 21.0118 15.1333 21.4285 15.5C21.8618 15.8667 22.4285 16.05 23.1285 16.05C24.1785 16.05 24.8285 15.7417 25.0785 15.125H29.8285C29.6118 16.4417 28.8952 17.4917 27.6785 18.275C26.4618 19.0417 24.9452 19.425 23.1285 19.425C20.8618 19.425 19.0785 18.85 17.7785 17.7C16.4952 16.5333 15.8535 14.9 15.8535 12.8C15.8535 10.7333 16.5035 9.10833 17.8035 7.925C19.1035 6.725 20.8452 6.125 23.0285 6.125C25.0952 6.125 26.7785 6.68333 28.0785 7.8C29.3785 8.91667 30.0285 10.3667 30.0285 12.15ZM20.7535 11.275H25.1285C25.1118 10.5917 24.9202 10.0583 24.5535 9.675C24.1868 9.29167 23.6618 9.1 22.9785 9.1C22.3118 9.1 21.7785 9.3 21.3785 9.7C20.9952 10.1 20.7868 10.625 20.7535 11.275ZM31.8205 19V1.5H36.7205V19H31.8205ZM39.5598 19V1.5H44.4598V19H39.5598ZM53.3566 19V1.5H64.6066V5.75H58.5566V9.625H64.6066V13.725H58.5566V19H53.3566ZM67.0256 19V6.575H71.9256V9.35C72.1423 8.4 72.5756 7.65833 73.2256 7.125C73.8756 6.59167 74.6339 6.325 75.5006 6.325C75.8173 6.325 76.1256 6.35 76.4256 6.4V11.025C76.0089 10.9583 75.5923 10.925 75.1756 10.925C74.1589 10.925 73.3589 11.2167 72.7756 11.8C72.2089 12.3667 71.9256 13.375 71.9256 14.825V19H67.0256ZM84.6264 19.425C82.443 19.425 80.693 18.8167 79.3764 17.6C78.0597 16.3667 77.4014 14.7583 77.4014 12.775C77.4014 10.7917 78.0597 9.19167 79.3764 7.975C80.693 6.74167 82.443 6.125 84.6264 6.125C86.8264 6.125 88.5847 6.74167 89.9014 7.975C91.218 9.19167 91.8764 10.7917 91.8764 12.775C91.8764 14.7583 91.218 16.3667 89.9014 17.6C88.5847 18.8167 86.8264 19.425 84.6264 19.425ZM84.6264 15.4C85.343 15.4 85.9097 15.1583 86.3264 14.675C86.743 14.1917 86.9514 13.5583 86.9514 12.775C86.9514 11.9917 86.743 11.3583 86.3264 10.875C85.9097 10.3917 85.343 10.15 84.6264 10.15C83.9264 10.15 83.3597 10.4 82.9264 10.9C82.5097 11.3833 82.3014 12.0083 82.3014 12.775C82.3014 13.5417 82.5097 14.175 82.9264 14.675C83.3597 15.1583 83.9264 15.4 84.6264 15.4ZM93.6857 19V6.575H98.5857V8.4C99.1857 6.95 100.411 6.225 102.261 6.225C104.211 6.225 105.502 7.00833 106.136 8.575C106.486 7.84167 107.019 7.26667 107.736 6.85C108.452 6.43333 109.277 6.225 110.211 6.225C113.127 6.225 114.586 7.95 114.586 11.4V19H109.586V12.3C109.586 10.9833 109.111 10.325 108.161 10.325C107.111 10.325 106.586 11.1417 106.586 12.775V19H101.586V12.3C101.586 11.6 101.469 11.1 101.236 10.8C101.019 10.4833 100.669 10.325 100.186 10.325C99.6524 10.325 99.2524 10.5167 98.9857 10.9C98.7191 11.2667 98.5857 11.8917 98.5857 12.775V19H93.6857ZM123.376 19V1.5H128.576V8.15H133.451V1.5H138.651V19H133.451V12.475H128.576V19H123.376ZM147.81 19.425C145.627 19.425 143.877 18.8167 142.56 17.6C141.243 16.3667 140.585 14.7583 140.585 12.775C140.585 10.7917 141.243 9.19167 142.56 7.975C143.877 6.74167 145.627 6.125 147.81 6.125C150.01 6.125 151.768 6.74167 153.085 7.975C154.402 9.19167 155.06 10.7917 155.06 12.775C155.06 14.7583 154.402 16.3667 153.085 17.6C151.768 18.8167 150.01 19.425 147.81 19.425ZM147.81 15.4C148.527 15.4 149.093 15.1583 149.51 14.675C149.927 14.1917 150.135 13.5583 150.135 12.775C150.135 11.9917 149.927 11.3583 149.51 10.875C149.093 10.3917 148.527 10.15 147.81 10.15C147.11 10.15 146.543 10.4 146.11 10.9C145.693 11.3833 145.485 12.0083 145.485 12.775C145.485 13.5417 145.693 14.175 146.11 14.675C146.543 15.1583 147.11 15.4 147.81 15.4ZM156.869 19V6.575H161.769V8.4C162.369 6.95 163.594 6.225 165.444 6.225C167.394 6.225 168.686 7.00833 169.319 8.575C169.669 7.84167 170.203 7.26667 170.919 6.85C171.636 6.43333 172.461 6.225 173.394 6.225C176.311 6.225 177.769 7.95 177.769 11.4V19H172.769V12.3C172.769 10.9833 172.294 10.325 171.344 10.325C170.294 10.325 169.769 11.1417 169.769 12.775V19H164.769V12.3C164.769 11.6 164.653 11.1 164.419 10.8C164.203 10.4833 163.853 10.325 163.369 10.325C162.836 10.325 162.436 10.5167 162.169 10.9C161.903 11.2667 161.769 11.8917 161.769 12.775V19H156.869ZM193.627 12.15C193.627 12.7667 193.585 13.375 193.502 13.975H184.352C184.385 14.625 184.61 15.1333 185.027 15.5C185.46 15.8667 186.027 16.05 186.727 16.05C187.777 16.05 188.427 15.7417 188.677 15.125H193.427C193.21 16.4417 192.494 17.4917 191.277 18.275C190.06 19.0417 188.544 19.425 186.727 19.425C184.46 19.425 182.677 18.85 181.377 17.7C180.094 16.5333 179.452 14.9 179.452 12.8C179.452 10.7333 180.102 9.10833 181.402 7.925C182.702 6.725 184.444 6.125 186.627 6.125C188.694 6.125 190.377 6.68333 191.677 7.8C192.977 8.91667 193.627 10.3667 193.627 12.15ZM184.352 11.275H188.727C188.71 10.5917 188.519 10.0583 188.152 9.675C187.785 9.29167 187.26 9.1 186.577 9.1C185.91 9.1 185.377 9.3 184.977 9.7C184.594 10.1 184.385 10.625 184.352 11.275ZM17.725 30.5L11.5 39.2L17.725 48H11.75L6.75 40.4V48H1.55V30.5H6.75V38.1L11.75 30.5H17.725ZM21.6973 35.15C20.9139 35.15 20.2639 34.8917 19.7473 34.375C19.2306 33.8417 18.9723 33.2083 18.9723 32.475C18.9723 31.725 19.2306 31.0917 19.7473 30.575C20.2639 30.0583 20.9139 29.8 21.6973 29.8C22.4639 29.8 23.1056 30.0583 23.6223 30.575C24.1556 31.0917 24.4223 31.725 24.4223 32.475C24.4223 33.2083 24.1556 33.8417 23.6223 34.375C23.1056 34.8917 22.4639 35.15 21.6973 35.15ZM19.2473 48V35.575H24.1473V48H19.2473ZM34.3615 44.375C34.6615 44.375 35.0782 44.3417 35.6115 44.275V48C34.6782 48.1667 33.6615 48.25 32.5615 48.25C31.9115 48.25 31.3365 48.1917 30.8365 48.075C30.3365 47.9583 29.8365 47.75 29.3365 47.45C28.8365 47.1333 28.4449 46.65 28.1615 46C27.8949 45.3333 27.7615 44.5083 27.7615 43.525V39.325H25.9365V35.575H27.7615V31.95H32.6615V35.575H35.4865V39.325H32.6615V42.5C32.6615 43.75 33.2282 44.375 34.3615 44.375ZM43.7305 48.425C41.5805 48.425 39.8555 47.8167 38.5555 46.6C37.2555 45.3833 36.6055 43.775 36.6055 41.775C36.6055 39.775 37.2555 38.1667 38.5555 36.95C39.8555 35.7333 41.5805 35.125 43.7305 35.125C45.6971 35.125 47.2971 35.6167 48.5305 36.6C49.7805 37.5667 50.4888 38.875 50.6555 40.525H45.7555C45.5388 39.625 44.8638 39.175 43.7305 39.175C43.0305 39.175 42.4805 39.4083 42.0805 39.875C41.6971 40.325 41.5055 40.9583 41.5055 41.775C41.5055 42.5917 41.6971 43.2333 42.0805 43.7C42.4805 44.15 43.0305 44.375 43.7305 44.375C44.8471 44.375 45.5221 43.9333 45.7555 43.05H50.6555C50.4888 44.7 49.7805 46.0083 48.5305 46.975C47.2971 47.9417 45.6971 48.425 43.7305 48.425ZM61.3754 35.225C64.4087 35.225 65.9254 36.9583 65.9254 40.425V48H60.9254V41.675C60.9254 40.1083 60.3504 39.325 59.2004 39.325C57.9671 39.325 57.3504 40.1417 57.3504 41.775V48H52.4504V30.5H57.3504V37.4C58.0171 35.95 59.3587 35.225 61.3754 35.225ZM81.7619 41.15C81.7619 41.7667 81.7202 42.375 81.6369 42.975H72.4869C72.5202 43.625 72.7452 44.1333 73.1619 44.5C73.5952 44.8667 74.1619 45.05 74.8619 45.05C75.9119 45.05 76.5619 44.7417 76.8119 44.125H81.5619C81.3452 45.4417 80.6286 46.4917 79.4119 47.275C78.1952 48.0417 76.6786 48.425 74.8619 48.425C72.5952 48.425 70.8119 47.85 69.5119 46.7C68.2286 45.5333 67.5869 43.9 67.5869 41.8C67.5869 39.7333 68.2369 38.1083 69.5369 36.925C70.8369 35.725 72.5786 35.125 74.7619 35.125C76.8286 35.125 78.5119 35.6833 79.8119 36.8C81.1119 37.9167 81.7619 39.3667 81.7619 41.15ZM72.4869 40.275H76.8619C76.8452 39.5917 76.6536 39.0583 76.2869 38.675C75.9202 38.2917 75.3952 38.1 74.7119 38.1C74.0452 38.1 73.5119 38.3 73.1119 38.7C72.7286 39.1 72.5202 39.625 72.4869 40.275ZM83.5539 48V35.575H88.4539V37.4C89.1206 35.95 90.4622 35.225 92.4789 35.225C95.5122 35.225 97.0289 36.9583 97.0289 40.425V48H92.0289V41.675C92.0289 40.1083 91.4539 39.325 90.3039 39.325C89.0706 39.325 88.4539 40.1417 88.4539 41.775V48H83.5539Z" fill="#444053"/>
</svg>
