<svg width="250" height="56" viewBox="0 0 250 56" fill="none" xmlns="http://www.w3.org/2000/svg">
<path d="M1.44 13V0.399999H5.454C7.446 0.399999 9.012 1.018 10.152 2.254C11.292 3.49 11.862 4.972 11.862 6.7C11.862 8.428 11.292 9.91 10.152 11.146C9.012 12.382 7.446 13 5.454 13H1.44ZM3.078 11.524H5.328C6.876 11.524 8.07 11.05 8.91 10.102C9.75 9.154 10.17 8.02 10.17 6.7C10.17 5.368 9.75 4.234 8.91 3.298C8.07 2.35 6.876 1.876 5.328 1.876H3.078V11.524ZM17.4493 13.216C16.1293 13.216 15.0793 12.802 14.2993 11.974C13.5193 11.134 13.1293 10.09 13.1293 8.842C13.1293 7.594 13.5193 6.556 14.2993 5.728C15.0793 4.9 16.1293 4.486 17.4493 4.486C18.7573 4.486 19.8013 4.906 20.5813 5.746C21.3733 6.574 21.7693 7.606 21.7693 8.842C21.7693 10.09 21.3733 11.134 20.5813 11.974C19.8013 12.802 18.7573 13.216 17.4493 13.216ZM15.4153 10.984C15.9193 11.536 16.5973 11.812 17.4493 11.812C18.3013 11.812 18.9733 11.536 19.4653 10.984C19.9573 10.42 20.2033 9.706 20.2033 8.842C20.2033 7.99 19.9573 7.288 19.4653 6.736C18.9733 6.172 18.3013 5.89 17.4493 5.89C16.5973 5.89 15.9193 6.172 15.4153 6.736C14.9233 7.288 14.6773 7.996 14.6773 8.86C14.6773 9.712 14.9233 10.42 15.4153 10.984ZM23.7973 13V4.702H25.3633V6.232C25.5913 5.692 25.9513 5.266 26.4433 4.954C26.9473 4.642 27.5533 4.486 28.2613 4.486C30.3253 4.486 31.3573 5.62 31.3573 7.888V13H29.7913V8.572C29.7913 7.636 29.6233 6.946 29.2873 6.502C28.9633 6.058 28.4353 5.836 27.7033 5.836C26.9473 5.836 26.3653 6.082 25.9573 6.574C25.5613 7.066 25.3633 7.744 25.3633 8.608V13H23.7973ZM34.0844 0.075999C34.4804 0.075999 34.8344 0.243999 35.1464 0.579999C35.4584 0.915999 35.6144 1.396 35.6144 2.02C35.6144 2.728 35.4224 3.304 35.0384 3.748C34.6544 4.192 34.1204 4.414 33.4364 4.414C33.2084 4.414 33.0224 4.396 32.8784 4.36V3.64C33.0104 3.664 33.1964 3.676 33.4364 3.676C33.9164 3.676 34.2464 3.478 34.4264 3.082C34.5944 2.83 34.6784 2.53 34.6784 2.182C34.5344 2.362 34.3064 2.452 33.9944 2.452C33.6704 2.452 33.3944 2.344 33.1664 2.128C32.9504 1.912 32.8424 1.63 32.8424 1.282C32.8424 0.934 32.9564 0.646 33.1844 0.417999C33.4124 0.189999 33.7124 0.075999 34.0844 0.075999ZM40.8416 11.686C41.2736 11.686 41.6216 11.656 41.8856 11.596V12.982C41.5256 13.066 41.0636 13.108 40.4996 13.108C40.2476 13.108 40.0256 13.096 39.8336 13.072C39.6536 13.048 39.4376 12.982 39.1856 12.874C38.9336 12.766 38.7236 12.616 38.5556 12.424C38.3876 12.22 38.2436 11.938 38.1236 11.578C38.0036 11.206 37.9436 10.762 37.9436 10.246V6.016H36.4496V4.702H37.9436V2.074H39.5096V4.702H41.5976V6.016H39.5096V9.904C39.5096 10.636 39.6176 11.116 39.8336 11.344C40.0496 11.572 40.3856 11.686 40.8416 11.686ZM52.8183 4.486C54.8823 4.486 55.9143 5.62 55.9143 7.888V13H54.3483V8.572C54.3483 7.636 54.1803 6.946 53.8443 6.502C53.5203 6.058 52.9923 5.836 52.2603 5.836C51.5043 5.836 50.9223 6.082 50.5143 6.574C50.1183 7.066 49.9203 7.744 49.9203 8.608V13H48.3543V0.399999H49.9203V6.232C50.1483 5.692 50.5083 5.266 51.0003 4.954C51.5043 4.642 52.1103 4.486 52.8183 4.486ZM61.9696 13.216C60.6856 13.216 59.6776 12.808 58.9456 11.992C58.2256 11.176 57.8656 10.132 57.8656 8.86C57.8656 7.6 58.2376 6.556 58.9816 5.728C59.7376 4.9 60.7456 4.486 62.0056 4.486C62.6536 4.486 63.2356 4.636 63.7516 4.936C64.2676 5.236 64.6576 5.644 64.9216 6.16V4.702H66.4696V13H64.9216V11.542C64.6576 12.046 64.2556 12.454 63.7156 12.766C63.1756 13.066 62.5936 13.216 61.9696 13.216ZM62.1856 11.812C63.0616 11.812 63.7456 11.53 64.2376 10.966C64.7416 10.39 64.9936 9.688 64.9936 8.86C64.9936 8.02 64.7416 7.318 64.2376 6.754C63.7456 6.178 63.0616 5.89 62.1856 5.89C61.3456 5.89 60.6736 6.172 60.1696 6.736C59.6656 7.288 59.4136 7.996 59.4136 8.86C59.4136 9.724 59.6656 10.432 60.1696 10.984C60.6736 11.536 61.3456 11.812 62.1856 11.812ZM71.5244 13L67.8704 4.702H69.5444L72.1544 10.912L74.7824 4.702H76.4564L72.8024 13H71.5244ZM84.878 8.374C84.878 8.602 84.86 8.914 84.824 9.31H78.398C78.41 10.102 78.65 10.726 79.118 11.182C79.586 11.626 80.216 11.848 81.008 11.848C82.112 11.848 82.844 11.44 83.204 10.624H84.77C84.626 11.392 84.206 12.016 83.51 12.496C82.814 12.976 81.98 13.216 81.008 13.216C79.736 13.216 78.722 12.826 77.966 12.046C77.222 11.254 76.85 10.186 76.85 8.842C76.85 7.522 77.222 6.466 77.966 5.674C78.71 4.882 79.7 4.486 80.936 4.486C82.112 4.486 83.06 4.846 83.78 5.566C84.512 6.286 84.878 7.222 84.878 8.374ZM78.398 8.104H83.33C83.33 7.372 83.114 6.796 82.682 6.376C82.262 5.956 81.674 5.746 80.918 5.746C80.174 5.746 79.574 5.962 79.118 6.394C78.674 6.826 78.434 7.396 78.398 8.104ZM94.8935 13.216C93.6095 13.216 92.6015 12.808 91.8695 11.992C91.1495 11.176 90.7895 10.132 90.7895 8.86C90.7895 7.6 91.1615 6.556 91.9055 5.728C92.6615 4.9 93.6695 4.486 94.9295 4.486C95.5775 4.486 96.1595 4.636 96.6755 4.936C97.1915 5.236 97.5815 5.644 97.8455 6.16V4.702H99.3935V13H97.8455V11.542C97.5815 12.046 97.1795 12.454 96.6395 12.766C96.0995 13.066 95.5175 13.216 94.8935 13.216ZM95.1095 11.812C95.9855 11.812 96.6695 11.53 97.1615 10.966C97.6655 10.39 97.9175 9.688 97.9175 8.86C97.9175 8.02 97.6655 7.318 97.1615 6.754C96.6695 6.178 95.9855 5.89 95.1095 5.89C94.2695 5.89 93.5975 6.172 93.0935 6.736C92.5895 7.288 92.3375 7.996 92.3375 8.86C92.3375 9.724 92.5895 10.432 93.0935 10.984C93.5975 11.536 94.2695 11.812 95.1095 11.812ZM111.251 4.486C112.439 4.486 113.405 4.894 114.149 5.71C114.893 6.514 115.265 7.564 115.265 8.86C115.265 10.132 114.881 11.176 114.113 11.992C113.345 12.808 112.361 13.216 111.161 13.216C110.525 13.216 109.937 13.066 109.397 12.766C108.869 12.466 108.473 12.058 108.209 11.542V16.834H106.643V4.702H108.209V6.16C108.473 5.644 108.875 5.236 109.415 4.936C109.967 4.636 110.579 4.486 111.251 4.486ZM110.945 11.812C111.749 11.812 112.409 11.536 112.925 10.984C113.441 10.432 113.699 9.724 113.699 8.86C113.699 7.996 113.441 7.288 112.925 6.736C112.409 6.172 111.749 5.89 110.945 5.89C110.117 5.89 109.439 6.166 108.911 6.718C108.395 7.27 108.137 7.984 108.137 8.86C108.137 9.724 108.395 10.432 108.911 10.984C109.439 11.536 110.117 11.812 110.945 11.812ZM117.278 13V4.702H118.844V6.592C119 5.932 119.306 5.434 119.762 5.098C120.218 4.75 120.722 4.576 121.274 4.576C121.598 4.576 121.85 4.6 122.03 4.648V6.088C121.85 6.052 121.592 6.034 121.256 6.034C120.476 6.034 119.876 6.346 119.456 6.97C119.048 7.594 118.844 8.392 118.844 9.364V13H117.278ZM127.19 13.216C125.87 13.216 124.82 12.802 124.04 11.974C123.26 11.134 122.87 10.09 122.87 8.842C122.87 7.594 123.26 6.556 124.04 5.728C124.82 4.9 125.87 4.486 127.19 4.486C128.498 4.486 129.542 4.906 130.322 5.746C131.114 6.574 131.51 7.606 131.51 8.842C131.51 10.09 131.114 11.134 130.322 11.974C129.542 12.802 128.498 13.216 127.19 13.216ZM125.156 10.984C125.66 11.536 126.338 11.812 127.19 11.812C128.042 11.812 128.714 11.536 129.206 10.984C129.698 10.42 129.944 9.706 129.944 8.842C129.944 7.99 129.698 7.288 129.206 6.736C128.714 6.172 128.042 5.89 127.19 5.89C126.338 5.89 125.66 6.172 125.156 6.736C124.664 7.288 124.418 7.996 124.418 8.86C124.418 9.712 124.664 10.42 125.156 10.984ZM140.05 0.399999H141.616V13H140.068V11.542C139.804 12.046 139.402 12.454 138.862 12.766C138.322 13.066 137.74 13.216 137.116 13.216C135.832 13.216 134.824 12.808 134.092 11.992C133.372 11.176 133.012 10.132 133.012 8.86C133.012 7.6 133.384 6.556 134.128 5.728C134.884 4.9 135.892 4.486 137.152 4.486C137.8 4.486 138.382 4.636 138.898 4.936C139.414 5.236 139.804 5.644 140.068 6.16V5.296H140.05V0.399999ZM137.332 11.812C138.208 11.812 138.892 11.53 139.384 10.966C139.888 10.39 140.14 9.688 140.14 8.86C140.14 8.02 139.888 7.318 139.384 6.754C138.892 6.178 138.208 5.89 137.332 5.89C136.492 5.89 135.82 6.172 135.316 6.736C134.812 7.288 134.56 7.996 134.56 8.86C134.56 9.724 134.812 10.432 135.316 10.984C135.82 11.536 136.492 11.812 137.332 11.812ZM147.373 13.216C146.413 13.216 145.645 12.928 145.069 12.352C144.505 11.764 144.223 10.918 144.223 9.814V4.702H145.789V9.436C145.789 11.056 146.461 11.866 147.805 11.866C148.597 11.866 149.185 11.614 149.569 11.11C149.965 10.594 150.163 9.97 150.163 9.238V4.702H151.729V13H150.163V11.488C149.935 12.016 149.575 12.436 149.083 12.748C148.603 13.06 148.033 13.216 147.373 13.216ZM157.876 13.216C156.616 13.216 155.614 12.82 154.87 12.028C154.126 11.224 153.754 10.168 153.754 8.86C153.754 7.552 154.126 6.502 154.87 5.71C155.614 4.906 156.616 4.504 157.876 4.504C158.992 4.504 159.892 4.786 160.576 5.35C161.26 5.902 161.65 6.646 161.746 7.582H160.18C159.964 6.466 159.196 5.908 157.876 5.908C157.072 5.908 156.442 6.172 155.986 6.7C155.53 7.216 155.302 7.936 155.302 8.86C155.302 9.784 155.53 10.51 155.986 11.038C156.442 11.554 157.072 11.812 157.876 11.812C159.184 11.812 159.952 11.272 160.18 10.192H161.746C161.65 11.116 161.26 11.854 160.576 12.406C159.892 12.946 158.992 13.216 157.876 13.216ZM167.176 11.686C167.608 11.686 167.956 11.656 168.22 11.596V12.982C167.86 13.066 167.398 13.108 166.834 13.108C166.582 13.108 166.36 13.096 166.168 13.072C165.988 13.048 165.772 12.982 165.52 12.874C165.268 12.766 165.058 12.616 164.89 12.424C164.722 12.22 164.578 11.938 164.458 11.578C164.338 11.206 164.278 10.762 164.278 10.246V6.016H162.784V4.702H164.278V2.074H165.844V4.702H167.932V6.016H165.844V9.904C165.844 10.636 165.952 11.116 166.168 11.344C166.384 11.572 166.72 11.686 167.176 11.686ZM178.144 11.686C178.576 11.686 178.924 11.656 179.188 11.596V12.982C178.828 13.066 178.366 13.108 177.802 13.108C177.55 13.108 177.328 13.096 177.136 13.072C176.956 13.048 176.74 12.982 176.488 12.874C176.236 12.766 176.026 12.616 175.858 12.424C175.69 12.22 175.546 11.938 175.426 11.578C175.306 11.206 175.246 10.762 175.246 10.246V6.016H173.752V4.702H175.246V2.074H176.812V4.702H178.9V6.016H176.812V9.904C176.812 10.636 176.92 11.116 177.136 11.344C177.352 11.572 177.688 11.686 178.144 11.686ZM184.635 13.216C183.315 13.216 182.265 12.802 181.485 11.974C180.705 11.134 180.315 10.09 180.315 8.842C180.315 7.594 180.705 6.556 181.485 5.728C182.265 4.9 183.315 4.486 184.635 4.486C185.943 4.486 186.987 4.906 187.767 5.746C188.559 6.574 188.955 7.606 188.955 8.842C188.955 10.09 188.559 11.134 187.767 11.974C186.987 12.802 185.943 13.216 184.635 13.216ZM182.601 10.984C183.105 11.536 183.783 11.812 184.635 11.812C185.487 11.812 186.159 11.536 186.651 10.984C187.143 10.42 187.389 9.706 187.389 8.842C187.389 7.99 187.143 7.288 186.651 6.736C186.159 6.172 185.487 5.89 184.635 5.89C183.783 5.89 183.105 6.172 182.601 6.736C182.109 7.288 181.863 7.996 181.863 8.86C181.863 9.712 182.109 10.42 182.601 10.984ZM198.326 13.216C197.282 13.216 196.442 12.958 195.806 12.442C195.182 11.914 194.87 11.272 194.87 10.516H196.418C196.418 10.936 196.598 11.284 196.958 11.56C197.318 11.824 197.798 11.956 198.398 11.956C198.866 11.956 199.238 11.848 199.514 11.632C199.79 11.416 199.928 11.122 199.928 10.75C199.928 10.162 199.658 9.802 199.118 9.67L196.904 9.094C195.716 8.77 195.122 8.026 195.122 6.862C195.122 6.178 195.41 5.614 195.986 5.17C196.562 4.714 197.312 4.486 198.236 4.486C199.244 4.486 200.024 4.72 200.576 5.188C201.14 5.644 201.422 6.244 201.422 6.988H199.874C199.874 6.592 199.724 6.28 199.424 6.052C199.124 5.812 198.704 5.692 198.164 5.692C197.732 5.692 197.372 5.794 197.084 5.998C196.808 6.19 196.67 6.454 196.67 6.79C196.67 7.354 196.976 7.708 197.588 7.852L199.658 8.428C200.246 8.584 200.702 8.86 201.026 9.256C201.35 9.652 201.512 10.102 201.512 10.606C201.512 11.398 201.23 12.034 200.666 12.514C200.102 12.982 199.322 13.216 198.326 13.216ZM211.001 8.374C211.001 8.602 210.983 8.914 210.947 9.31H204.521C204.533 10.102 204.773 10.726 205.241 11.182C205.709 11.626 206.339 11.848 207.131 11.848C208.235 11.848 208.967 11.44 209.327 10.624H210.893C210.749 11.392 210.329 12.016 209.633 12.496C208.937 12.976 208.103 13.216 207.131 13.216C205.859 13.216 204.845 12.826 204.089 12.046C203.345 11.254 202.973 10.186 202.973 8.842C202.973 7.522 203.345 6.466 204.089 5.674C204.833 4.882 205.823 4.486 207.059 4.486C208.235 4.486 209.183 4.846 209.903 5.566C210.635 6.286 211.001 7.222 211.001 8.374ZM204.521 8.104H209.453C209.453 7.372 209.237 6.796 208.805 6.376C208.385 5.956 207.797 5.746 207.041 5.746C206.297 5.746 205.697 5.962 205.241 6.394C204.797 6.826 204.557 7.396 204.521 8.104ZM213.026 13V0.399999H214.592V13H213.026ZM217.297 13V0.399999H218.863V13H217.297ZM223.261 9.202V8.932C223.261 8.332 223.339 7.852 223.495 7.492C223.651 7.132 223.963 6.778 224.431 6.43L225.349 5.8C226.153 5.224 226.555 4.474 226.555 3.55C226.555 2.95 226.363 2.464 225.979 2.092C225.607 1.72 225.097 1.534 224.449 1.534C223.705 1.534 223.111 1.756 222.667 2.2C222.235 2.644 222.019 3.28 222.019 4.108H220.381C220.381 2.848 220.747 1.864 221.479 1.156C222.223 0.448 223.237 0.0939999 224.521 0.0939999C225.697 0.0939999 226.615 0.406 227.275 1.03C227.935 1.654 228.265 2.476 228.265 3.496C228.265 4.216 228.103 4.822 227.779 5.314C227.467 5.806 227.023 6.28 226.447 6.736L225.673 7.294C225.337 7.546 225.109 7.786 224.989 8.014C224.881 8.23 224.827 8.53 224.827 8.914V9.202H223.261ZM224.971 12.748C224.719 13 224.407 13.126 224.035 13.126C223.663 13.126 223.351 13 223.099 12.748C222.847 12.484 222.721 12.172 222.721 11.812C222.721 11.452 222.847 11.146 223.099 10.894C223.351 10.63 223.663 10.498 224.035 10.498C224.407 10.498 224.719 10.63 224.971 10.894C225.223 11.146 225.349 11.452 225.349 11.812C225.349 12.172 225.223 12.484 224.971 12.748ZM1.44 34V21.4H3.078V32.452H8.442V34H1.44ZM17.4835 29.374C17.4835 29.602 17.4655 29.914 17.4295 30.31H11.0035C11.0155 31.102 11.2555 31.726 11.7235 32.182C12.1915 32.626 12.8215 32.848 13.6135 32.848C14.7175 32.848 15.4495 32.44 15.8095 31.624H17.3755C17.2315 32.392 16.8115 33.016 16.1155 33.496C15.4195 33.976 14.5855 34.216 13.6135 34.216C12.3415 34.216 11.3275 33.826 10.5715 33.046C9.82748 32.254 9.45548 31.186 9.45548 29.842C9.45548 28.522 9.82748 27.466 10.5715 26.674C11.3155 25.882 12.3055 25.486 13.5415 25.486C14.7175 25.486 15.6655 25.846 16.3855 26.566C17.1175 27.286 17.4835 28.222 17.4835 29.374ZM11.0035 29.104H15.9355C15.9355 28.372 15.7195 27.796 15.2875 27.376C14.8675 26.956 14.2795 26.746 13.5235 26.746C12.7795 26.746 12.1795 26.962 11.7235 27.394C11.2795 27.826 11.0395 28.396 11.0035 29.104ZM23.0868 34.216C21.8028 34.216 20.7948 33.808 20.0628 32.992C19.3428 32.176 18.9828 31.132 18.9828 29.86C18.9828 28.6 19.3548 27.556 20.0988 26.728C20.8548 25.9 21.8628 25.486 23.1228 25.486C23.7708 25.486 24.3528 25.636 24.8688 25.936C25.3848 26.236 25.7748 26.644 26.0388 27.16V25.702H27.5868V34H26.0388V32.542C25.7748 33.046 25.3728 33.454 24.8328 33.766C24.2928 34.066 23.7108 34.216 23.0868 34.216ZM23.3028 32.812C24.1788 32.812 24.8628 32.53 25.3548 31.966C25.8588 31.39 26.1108 30.688 26.1108 29.86C26.1108 29.02 25.8588 28.318 25.3548 27.754C24.8628 27.178 24.1788 26.89 23.3028 26.89C22.4628 26.89 21.7908 27.172 21.2868 27.736C20.7828 28.288 20.5308 28.996 20.5308 29.86C20.5308 30.724 20.7828 31.432 21.2868 31.984C21.7908 32.536 22.4628 32.812 23.3028 32.812ZM30.2836 34V25.702H31.8496V27.592C32.0056 26.932 32.3116 26.434 32.7676 26.098C33.2236 25.75 33.7276 25.576 34.2796 25.576C34.6036 25.576 34.8556 25.6 35.0356 25.648V27.088C34.8556 27.052 34.5976 27.034 34.2616 27.034C33.4816 27.034 32.8816 27.346 32.4616 27.97C32.0536 28.594 31.8496 29.392 31.8496 30.364V34H30.2836ZM36.7875 34V25.702H38.3535V27.232C38.5815 26.692 38.9415 26.266 39.4335 25.954C39.9375 25.642 40.5435 25.486 41.2515 25.486C43.3155 25.486 44.3475 26.62 44.3475 28.888V34H42.7815V29.572C42.7815 28.636 42.6135 27.946 42.2775 27.502C41.9535 27.058 41.4255 26.836 40.6935 26.836C39.9375 26.836 39.3555 27.082 38.9475 27.574C38.5515 28.066 38.3535 28.744 38.3535 29.608V34H36.7875ZM56 25.486C58.064 25.486 59.096 26.62 59.096 28.888V34H57.53V29.572C57.53 28.636 57.362 27.946 57.026 27.502C56.702 27.058 56.174 26.836 55.442 26.836C54.686 26.836 54.104 27.082 53.696 27.574C53.3 28.066 53.102 28.744 53.102 29.608V34H51.536V21.4H53.102V27.232C53.33 26.692 53.69 26.266 54.182 25.954C54.686 25.642 55.292 25.486 56 25.486ZM65.3673 34.216C64.0473 34.216 62.9973 33.802 62.2173 32.974C61.4373 32.134 61.0473 31.09 61.0473 29.842C61.0473 28.594 61.4373 27.556 62.2173 26.728C62.9973 25.9 64.0473 25.486 65.3673 25.486C66.6753 25.486 67.7193 25.906 68.4993 26.746C69.2913 27.574 69.6873 28.606 69.6873 29.842C69.6873 31.09 69.2913 32.134 68.4993 32.974C67.7193 33.802 66.6753 34.216 65.3673 34.216ZM63.3333 31.984C63.8373 32.536 64.5153 32.812 65.3673 32.812C66.2193 32.812 66.8913 32.536 67.3833 31.984C67.8753 31.42 68.1213 30.706 68.1213 29.842C68.1213 28.99 67.8753 28.288 67.3833 27.736C66.8913 27.172 66.2193 26.89 65.3673 26.89C64.5153 26.89 63.8373 27.172 63.3333 27.736C62.8413 28.288 62.5953 28.996 62.5953 29.86C62.5953 30.712 62.8413 31.42 63.3333 31.984ZM73.1825 34L70.1225 25.702H71.8325L73.8305 31.75L75.8465 25.702H77.5205L79.5365 31.75L81.5345 25.702H83.2625L80.1845 34H78.8525L76.6745 27.628L74.5145 34H73.1825ZM92.7674 32.686C93.1994 32.686 93.5474 32.656 93.8114 32.596V33.982C93.4514 34.066 92.9894 34.108 92.4254 34.108C92.1734 34.108 91.9514 34.096 91.7594 34.072C91.5794 34.048 91.3634 33.982 91.1114 33.874C90.8594 33.766 90.6494 33.616 90.4814 33.424C90.3134 33.22 90.1694 32.938 90.0494 32.578C89.9294 32.206 89.8694 31.762 89.8694 31.246V27.016H88.3754V25.702H89.8694V23.074H91.4354V25.702H93.5234V27.016H91.4354V30.904C91.4354 31.636 91.5434 32.116 91.7594 32.344C91.9754 32.572 92.3114 32.686 92.7674 32.686ZM99.2579 34.216C97.9379 34.216 96.8879 33.802 96.1079 32.974C95.3279 32.134 94.9379 31.09 94.9379 29.842C94.9379 28.594 95.3279 27.556 96.1079 26.728C96.8879 25.9 97.9379 25.486 99.2579 25.486C100.566 25.486 101.61 25.906 102.39 26.746C103.182 27.574 103.578 28.606 103.578 29.842C103.578 31.09 103.182 32.134 102.39 32.974C101.61 33.802 100.566 34.216 99.2579 34.216ZM97.2239 31.984C97.7279 32.536 98.4059 32.812 99.2579 32.812C100.11 32.812 100.782 32.536 101.274 31.984C101.766 31.42 102.012 30.706 102.012 29.842C102.012 28.99 101.766 28.288 101.274 27.736C100.782 27.172 100.11 26.89 99.2579 26.89C98.4059 26.89 97.7279 27.172 97.2239 27.736C96.7319 28.288 96.4859 28.996 96.4859 29.86C96.4859 30.712 96.7319 31.42 97.2239 31.984ZM114.767 25.486C115.955 25.486 116.921 25.894 117.665 26.71C118.409 27.514 118.781 28.564 118.781 29.86C118.781 31.132 118.397 32.176 117.629 32.992C116.861 33.808 115.877 34.216 114.677 34.216C114.041 34.216 113.453 34.066 112.913 33.766C112.385 33.466 111.989 33.058 111.725 32.542V34H110.159V21.4H111.725V27.16C111.989 26.644 112.391 26.236 112.931 25.936C113.483 25.636 114.095 25.486 114.767 25.486ZM114.461 32.812C115.265 32.812 115.925 32.536 116.441 31.984C116.957 31.432 117.215 30.724 117.215 29.86C117.215 28.996 116.957 28.288 116.441 27.736C115.925 27.172 115.265 26.89 114.461 26.89C113.633 26.89 112.955 27.166 112.427 27.718C111.911 28.27 111.653 28.984 111.653 29.86C111.653 30.724 111.911 31.432 112.427 31.984C112.955 32.536 113.633 32.812 114.461 32.812ZM128.155 29.374C128.155 29.602 128.137 29.914 128.101 30.31H121.675C121.687 31.102 121.927 31.726 122.395 32.182C122.863 32.626 123.493 32.848 124.285 32.848C125.389 32.848 126.121 32.44 126.481 31.624H128.047C127.903 32.392 127.483 33.016 126.787 33.496C126.091 33.976 125.257 34.216 124.285 34.216C123.013 34.216 121.999 33.826 121.243 33.046C120.499 32.254 120.127 31.186 120.127 29.842C120.127 28.522 120.499 27.466 121.243 26.674C121.987 25.882 122.977 25.486 124.213 25.486C125.389 25.486 126.337 25.846 127.057 26.566C127.789 27.286 128.155 28.222 128.155 29.374ZM121.675 29.104H126.607C126.607 28.372 126.391 27.796 125.959 27.376C125.539 26.956 124.951 26.746 124.195 26.746C123.451 26.746 122.851 26.962 122.395 27.394C121.951 27.826 121.711 28.396 121.675 29.104ZM133.742 34.216C132.482 34.216 131.48 33.82 130.736 33.028C129.992 32.224 129.62 31.168 129.62 29.86C129.62 28.552 129.992 27.502 130.736 26.71C131.48 25.906 132.482 25.504 133.742 25.504C134.858 25.504 135.758 25.786 136.442 26.35C137.126 26.902 137.516 27.646 137.612 28.582H136.046C135.83 27.466 135.062 26.908 133.742 26.908C132.938 26.908 132.308 27.172 131.852 27.7C131.396 28.216 131.168 28.936 131.168 29.86C131.168 30.784 131.396 31.51 131.852 32.038C132.308 32.554 132.938 32.812 133.742 32.812C135.05 32.812 135.818 32.272 136.046 31.192H137.612C137.516 32.116 137.126 32.854 136.442 33.406C135.758 33.946 134.858 34.216 133.742 34.216ZM143.397 34.216C142.077 34.216 141.027 33.802 140.247 32.974C139.467 32.134 139.077 31.09 139.077 29.842C139.077 28.594 139.467 27.556 140.247 26.728C141.027 25.9 142.077 25.486 143.397 25.486C144.705 25.486 145.749 25.906 146.529 26.746C147.321 27.574 147.717 28.606 147.717 29.842C147.717 31.09 147.321 32.134 146.529 32.974C145.749 33.802 144.705 34.216 143.397 34.216ZM141.363 31.984C141.867 32.536 142.545 32.812 143.397 32.812C144.249 32.812 144.921 32.536 145.413 31.984C145.905 31.42 146.151 30.706 146.151 29.842C146.151 28.99 145.905 28.288 145.413 27.736C144.921 27.172 144.249 26.89 143.397 26.89C142.545 26.89 141.867 27.172 141.363 27.736C140.871 28.288 140.625 28.996 140.625 29.86C140.625 30.712 140.871 31.42 141.363 31.984ZM149.745 34V25.702H151.311V27.214C151.479 26.722 151.779 26.314 152.211 25.99C152.643 25.654 153.171 25.486 153.795 25.486C155.223 25.486 156.111 26.08 156.459 27.268C156.651 26.752 156.987 26.326 157.467 25.99C157.947 25.654 158.499 25.486 159.123 25.486C161.115 25.486 162.111 26.572 162.111 28.744V34H160.545V29.05C160.545 27.574 159.945 26.836 158.745 26.836C157.389 26.836 156.711 27.784 156.711 29.68V34H155.145V29.158C155.145 27.61 154.551 26.836 153.363 26.836C152.715 26.836 152.211 27.076 151.851 27.556C151.491 28.024 151.311 28.732 151.311 29.68V34H149.745ZM172.083 29.374C172.083 29.602 172.065 29.914 172.029 30.31H165.603C165.615 31.102 165.855 31.726 166.323 32.182C166.791 32.626 167.421 32.848 168.213 32.848C169.317 32.848 170.049 32.44 170.409 31.624H171.975C171.831 32.392 171.411 33.016 170.715 33.496C170.019 33.976 169.185 34.216 168.213 34.216C166.941 34.216 165.927 33.826 165.171 33.046C164.427 32.254 164.055 31.186 164.055 29.842C164.055 28.522 164.427 27.466 165.171 26.674C165.915 25.882 166.905 25.486 168.141 25.486C169.317 25.486 170.265 25.846 170.985 26.566C171.717 27.286 172.083 28.222 172.083 29.374ZM165.603 29.104H170.535C170.535 28.372 170.319 27.796 169.887 27.376C169.467 26.956 168.879 26.746 168.123 26.746C167.379 26.746 166.779 26.962 166.323 27.394C165.879 27.826 165.639 28.396 165.603 29.104ZM182.099 34.216C180.815 34.216 179.807 33.808 179.075 32.992C178.355 32.176 177.995 31.132 177.995 29.86C177.995 28.6 178.367 27.556 179.111 26.728C179.867 25.9 180.875 25.486 182.135 25.486C182.783 25.486 183.365 25.636 183.881 25.936C184.397 26.236 184.787 26.644 185.051 27.16V25.702H186.599V34H185.051V32.542C184.787 33.046 184.385 33.454 183.845 33.766C183.305 34.066 182.723 34.216 182.099 34.216ZM182.315 32.812C183.191 32.812 183.875 32.53 184.367 31.966C184.871 31.39 185.123 30.688 185.123 29.86C185.123 29.02 184.871 28.318 184.367 27.754C183.875 27.178 183.191 26.89 182.315 26.89C181.475 26.89 180.803 27.172 180.299 27.736C179.795 28.288 179.543 28.996 179.543 29.86C179.543 30.724 179.795 31.432 180.299 31.984C180.803 32.536 181.475 32.812 182.315 32.812ZM193.848 34V25.702H195.414V27.592C195.57 26.932 195.876 26.434 196.332 26.098C196.788 25.75 197.292 25.576 197.844 25.576C198.168 25.576 198.42 25.6 198.6 25.648V27.088C198.42 27.052 198.162 27.034 197.826 27.034C197.046 27.034 196.446 27.346 196.026 27.97C195.618 28.594 195.414 29.392 195.414 30.364V34H193.848ZM207.468 29.374C207.468 29.602 207.45 29.914 207.414 30.31H200.988C201 31.102 201.24 31.726 201.708 32.182C202.176 32.626 202.806 32.848 203.598 32.848C204.702 32.848 205.434 32.44 205.794 31.624H207.36C207.216 32.392 206.796 33.016 206.1 33.496C205.404 33.976 204.57 34.216 203.598 34.216C202.326 34.216 201.312 33.826 200.556 33.046C199.812 32.254 199.44 31.186 199.44 29.842C199.44 28.522 199.812 27.466 200.556 26.674C201.3 25.882 202.29 25.486 203.526 25.486C204.702 25.486 205.65 25.846 206.37 26.566C207.102 27.286 207.468 28.222 207.468 29.374ZM200.988 29.104H205.92C205.92 28.372 205.704 27.796 205.272 27.376C204.852 26.956 204.264 26.746 203.508 26.746C202.764 26.746 202.164 26.962 201.708 27.394C201.264 27.826 201.024 28.396 200.988 29.104ZM212.283 34.216C211.239 34.216 210.399 33.958 209.763 33.442C209.139 32.914 208.827 32.272 208.827 31.516H210.375C210.375 31.936 210.555 32.284 210.915 32.56C211.275 32.824 211.755 32.956 212.355 32.956C212.823 32.956 213.195 32.848 213.471 32.632C213.747 32.416 213.885 32.122 213.885 31.75C213.885 31.162 213.615 30.802 213.075 30.67L210.861 30.094C209.673 29.77 209.079 29.026 209.079 27.862C209.079 27.178 209.367 26.614 209.943 26.17C210.519 25.714 211.269 25.486 212.193 25.486C213.201 25.486 213.981 25.72 214.533 26.188C215.097 26.644 215.379 27.244 215.379 27.988H213.831C213.831 27.592 213.681 27.28 213.381 27.052C213.081 26.812 212.661 26.692 212.121 26.692C211.689 26.692 211.329 26.794 211.041 26.998C210.765 27.19 210.627 27.454 210.627 27.79C210.627 28.354 210.933 28.708 211.545 28.852L213.615 29.428C214.203 29.584 214.659 29.86 214.983 30.256C215.307 30.652 215.469 31.102 215.469 31.606C215.469 32.398 215.187 33.034 214.623 33.514C214.059 33.982 213.279 34.216 212.283 34.216ZM224.958 29.374C224.958 29.602 224.94 29.914 224.904 30.31H218.478C218.49 31.102 218.73 31.726 219.198 32.182C219.666 32.626 220.296 32.848 221.088 32.848C222.192 32.848 222.924 32.44 223.284 31.624H224.85C224.706 32.392 224.286 33.016 223.59 33.496C222.894 33.976 222.06 34.216 221.088 34.216C219.816 34.216 218.802 33.826 218.046 33.046C217.302 32.254 216.93 31.186 216.93 29.842C216.93 28.522 217.302 27.466 218.046 26.674C218.79 25.882 219.78 25.486 221.016 25.486C222.192 25.486 223.14 25.846 223.86 26.566C224.592 27.286 224.958 28.222 224.958 29.374ZM218.478 29.104H223.41C223.41 28.372 223.194 27.796 222.762 27.376C222.342 26.956 221.754 26.746 220.998 26.746C220.254 26.746 219.654 26.962 219.198 27.394C218.754 27.826 218.514 28.396 218.478 29.104ZM226.983 34V21.4H228.549V34H226.983ZM231.254 34V21.4H232.82V34H231.254ZM242.888 29.374C242.888 29.602 242.87 29.914 242.834 30.31H236.408C236.42 31.102 236.66 31.726 237.128 32.182C237.596 32.626 238.226 32.848 239.018 32.848C240.122 32.848 240.854 32.44 241.214 31.624H242.78C242.636 32.392 242.216 33.016 241.52 33.496C240.824 33.976 239.99 34.216 239.018 34.216C237.746 34.216 236.732 33.826 235.976 33.046C235.232 32.254 234.86 31.186 234.86 29.842C234.86 28.522 235.232 27.466 235.976 26.674C236.72 25.882 237.71 25.486 238.946 25.486C240.122 25.486 241.07 25.846 241.79 26.566C242.522 27.286 242.888 28.222 242.888 29.374ZM236.408 29.104H241.34C241.34 28.372 241.124 27.796 240.692 27.376C240.272 26.956 239.684 26.746 238.928 26.746C238.184 26.746 237.584 26.962 237.128 27.394C236.684 27.826 236.444 28.396 236.408 29.104ZM244.913 34V25.702H246.479V27.592C246.635 26.932 246.941 26.434 247.397 26.098C247.853 25.75 248.357 25.576 248.909 25.576C249.233 25.576 249.485 25.6 249.665 25.648V27.088C249.485 27.052 249.227 27.034 248.891 27.034C248.111 27.034 247.511 27.346 247.091 27.97C246.683 28.594 246.479 29.392 246.479 30.364V34H244.913ZM4.788 55.216C3.504 55.216 2.496 54.808 1.764 53.992C1.044 53.176 0.684 52.132 0.684 50.86C0.684 49.6 1.056 48.556 1.8 47.728C2.556 46.9 3.564 46.486 4.824 46.486C5.472 46.486 6.054 46.636 6.57 46.936C7.086 47.236 7.476 47.644 7.74 48.16V46.702H9.288V55H7.74V53.542C7.476 54.046 7.074 54.454 6.534 54.766C5.994 55.066 5.412 55.216 4.788 55.216ZM5.004 53.812C5.88 53.812 6.564 53.53 7.056 52.966C7.56 52.39 7.812 51.688 7.812 50.86C7.812 50.02 7.56 49.318 7.056 48.754C6.564 48.178 5.88 47.89 5.004 47.89C4.164 47.89 3.492 48.172 2.988 48.736C2.484 49.288 2.232 49.996 2.232 50.86C2.232 51.724 2.484 52.432 2.988 52.984C3.492 53.536 4.164 53.812 5.004 53.812ZM11.9848 55V46.702H13.5508V48.232C13.7788 47.692 14.1388 47.266 14.6308 46.954C15.1348 46.642 15.7408 46.486 16.4488 46.486C18.5128 46.486 19.5448 47.62 19.5448 49.888V55H17.9788V50.572C17.9788 49.636 17.8108 48.946 17.4748 48.502C17.1508 48.058 16.6228 47.836 15.8908 47.836C15.1348 47.836 14.5528 48.082 14.1448 48.574C13.7488 49.066 13.5508 49.744 13.5508 50.608V55H11.9848ZM28.5345 42.4H30.1005V55H28.5525V53.542C28.2885 54.046 27.8865 54.454 27.3465 54.766C26.8065 55.066 26.2245 55.216 25.6005 55.216C24.3165 55.216 23.3085 54.808 22.5765 53.992C21.8565 53.176 21.4965 52.132 21.4965 50.86C21.4965 49.6 21.8685 48.556 22.6125 47.728C23.3685 46.9 24.3765 46.486 25.6365 46.486C26.2845 46.486 26.8665 46.636 27.3825 46.936C27.8985 47.236 28.2885 47.644 28.5525 48.16V47.296H28.5345V42.4ZM25.8165 53.812C26.6925 53.812 27.3765 53.53 27.8685 52.966C28.3725 52.39 28.6245 51.688 28.6245 50.86C28.6245 50.02 28.3725 49.318 27.8685 48.754C27.3765 48.178 26.6925 47.89 25.8165 47.89C24.9765 47.89 24.3045 48.172 23.8005 48.736C23.2965 49.288 23.0445 49.996 23.0445 50.86C23.0445 51.724 23.2965 52.432 23.8005 52.984C24.3045 53.536 24.9765 53.812 25.8165 53.812ZM44.712 50.374C44.712 50.602 44.694 50.914 44.658 51.31H38.232C38.244 52.102 38.484 52.726 38.952 53.182C39.42 53.626 40.05 53.848 40.842 53.848C41.946 53.848 42.678 53.44 43.038 52.624H44.604C44.46 53.392 44.04 54.016 43.344 54.496C42.648 54.976 41.814 55.216 40.842 55.216C39.57 55.216 38.556 54.826 37.8 54.046C37.056 53.254 36.684 52.186 36.684 50.842C36.684 49.522 37.056 48.466 37.8 47.674C38.544 46.882 39.534 46.486 40.77 46.486C41.946 46.486 42.894 46.846 43.614 47.566C44.346 48.286 44.712 49.222 44.712 50.374ZM38.232 50.104H43.164C43.164 49.372 42.948 48.796 42.516 48.376C42.096 47.956 41.508 47.746 40.752 47.746C40.008 47.746 39.408 47.962 38.952 48.394C38.508 48.826 38.268 49.396 38.232 50.104ZM50.3153 55.216C49.0313 55.216 48.0233 54.808 47.2913 53.992C46.5713 53.176 46.2113 52.132 46.2113 50.86C46.2113 49.6 46.5833 48.556 47.3273 47.728C48.0833 46.9 49.0913 46.486 50.3513 46.486C50.9993 46.486 51.5813 46.636 52.0973 46.936C52.6133 47.236 53.0033 47.644 53.2673 48.16V46.702H54.8153V55H53.2673V53.542C53.0033 54.046 52.6013 54.454 52.0613 54.766C51.5213 55.066 50.9393 55.216 50.3153 55.216ZM50.5313 53.812C51.4073 53.812 52.0913 53.53 52.5833 52.966C53.0873 52.39 53.3393 51.688 53.3393 50.86C53.3393 50.02 53.0873 49.318 52.5833 48.754C52.0913 48.178 51.4073 47.89 50.5313 47.89C49.6913 47.89 49.0193 48.172 48.5153 48.736C48.0113 49.288 47.7593 49.996 47.7593 50.86C47.7593 51.724 48.0113 52.432 48.5153 52.984C49.0193 53.536 49.6913 53.812 50.5313 53.812ZM57.5121 55V46.702H59.0781V48.592C59.2341 47.932 59.5401 47.434 59.9961 47.098C60.4521 46.75 60.9561 46.576 61.5081 46.576C61.8321 46.576 62.0841 46.6 62.2641 46.648V48.088C62.0841 48.052 61.8261 48.034 61.4901 48.034C60.7101 48.034 60.1101 48.346 59.6901 48.97C59.2821 49.594 59.0781 50.392 59.0781 51.364V55H57.5121ZM64.016 55V46.702H65.582V48.232C65.81 47.692 66.17 47.266 66.662 46.954C67.166 46.642 67.772 46.486 68.48 46.486C70.544 46.486 71.576 47.62 71.576 49.888V55H70.01V50.572C70.01 49.636 69.842 48.946 69.506 48.502C69.182 48.058 68.654 47.836 67.922 47.836C67.166 47.836 66.584 48.082 66.176 48.574C65.78 49.066 65.582 49.744 65.582 50.608V55H64.016Z" fill="#444053"/>
</svg>
