<svg width="129" height="48" viewBox="0 0 129 48" fill="none" xmlns="http://www.w3.org/2000/svg">
<path d="M15.5 7.025C15.5 8.19167 15.2417 9.25833 14.725 10.225C14.225 11.175 13.525 11.9333 12.625 12.5L15.425 18H9.45L7.2 13.525H5.75V18H0.55V0.499999H9C10.8667 0.499999 12.4167 1.11667 13.65 2.35C14.8833 3.58333 15.5 5.14167 15.5 7.025ZM5.75 4.55V9.5H7.9C8.56667 9.5 9.11667 9.26667 9.55 8.8C10 8.33333 10.225 7.74167 10.225 7.025C10.225 6.30833 10 5.71667 9.55 5.25C9.11667 4.78333 8.575 4.55 7.925 4.55H5.75ZM30.6154 11.15C30.6154 11.7667 30.5738 12.375 30.4904 12.975H21.3404C21.3738 13.625 21.5988 14.1333 22.0154 14.5C22.4488 14.8667 23.0154 15.05 23.7154 15.05C24.7654 15.05 25.4154 14.7417 25.6654 14.125H30.4154C30.1988 15.4417 29.4821 16.4917 28.2654 17.275C27.0488 18.0417 25.5321 18.425 23.7154 18.425C21.4488 18.425 19.6654 17.85 18.3654 16.7C17.0821 15.5333 16.4404 13.9 16.4404 11.8C16.4404 9.73333 17.0904 8.10833 18.3904 6.925C19.6904 5.725 21.4321 5.125 23.6154 5.125C25.6821 5.125 27.3654 5.68333 28.6654 6.8C29.9654 7.91667 30.6154 9.36667 30.6154 11.15ZM21.3404 10.275H25.7154C25.6988 9.59167 25.5071 9.05833 25.1404 8.675C24.7738 8.29167 24.2488 8.1 23.5654 8.1C22.8988 8.1 22.3654 8.3 21.9654 8.7C21.5821 9.1 21.3738 9.625 21.3404 10.275ZM38.0057 18.425C36.0057 18.425 34.439 18.05 33.3057 17.3C32.1723 16.55 31.6057 15.55 31.6057 14.3H36.4807C36.4807 14.65 36.6223 14.9333 36.9057 15.15C37.189 15.3667 37.564 15.475 38.0307 15.475C38.364 15.475 38.6307 15.4 38.8307 15.25C39.0473 15.0833 39.1557 14.8667 39.1557 14.6C39.1557 14.2 38.8723 13.925 38.3057 13.775L35.3557 13.1C34.2223 12.85 33.3473 12.4083 32.7307 11.775C32.1307 11.125 31.8307 10.3167 31.8307 9.35C31.8307 8.05 32.3473 7.025 33.3807 6.275C34.4307 5.50833 35.8557 5.125 37.6557 5.125C39.6557 5.125 41.1807 5.46667 42.2307 6.15C43.2807 6.81667 43.8057 7.775 43.8057 9.025H38.9807C38.9807 8.30833 38.539 7.95 37.6557 7.95C37.339 7.95 37.0807 8.01667 36.8807 8.15C36.6807 8.28333 36.5807 8.46667 36.5807 8.7C36.5807 9.16667 36.9307 9.48333 37.6307 9.65L40.5557 10.4C42.8557 10.9833 44.0057 12.175 44.0057 13.975C44.0057 15.3417 43.464 16.425 42.3807 17.225C41.2973 18.025 39.839 18.425 38.0057 18.425ZM59.302 11.15C59.302 11.7667 59.2603 12.375 59.177 12.975H50.027C50.0603 13.625 50.2853 14.1333 50.702 14.5C51.1353 14.8667 51.702 15.05 52.402 15.05C53.452 15.05 54.102 14.7417 54.352 14.125H59.102C58.8853 15.4417 58.1686 16.4917 56.952 17.275C55.7353 18.0417 54.2186 18.425 52.402 18.425C50.1353 18.425 48.352 17.85 47.052 16.7C45.7686 15.5333 45.127 13.9 45.127 11.8C45.127 9.73333 45.777 8.10833 47.077 6.925C48.377 5.725 50.1186 5.125 52.302 5.125C54.3686 5.125 56.052 5.68333 57.352 6.8C58.652 7.91667 59.302 9.36667 59.302 11.15ZM50.027 10.275H54.402C54.3853 9.59167 54.1936 9.05833 53.827 8.675C53.4603 8.29167 52.9353 8.1 52.252 8.1C51.5853 8.1 51.052 8.3 50.652 8.7C50.2686 9.1 50.0603 9.625 50.027 10.275ZM61.0939 18V0.499999H65.9939V18H61.0939ZM68.8332 18V0.499999H73.7332V18H68.8332ZM87.2551 18.35C85.5384 18.35 84.1717 17.7417 83.1551 16.525C82.1384 15.3083 81.6301 13.7333 81.6301 11.8C81.6301 9.86667 82.1467 8.29167 83.1801 7.075C84.2134 5.84167 85.5801 5.225 87.2801 5.225C88.2134 5.225 89.0134 5.425 89.6801 5.825C90.3467 6.225 90.8301 6.75833 91.1301 7.425V5.575H96.0551V18H91.1301V16.15C90.8467 16.8 90.3551 17.3333 89.6551 17.75C88.9717 18.15 88.1717 18.35 87.2551 18.35ZM89.0051 14.4C89.7217 14.4 90.2884 14.1583 90.7051 13.675C91.1384 13.175 91.3551 12.55 91.3551 11.8C91.3551 11.0333 91.1384 10.4083 90.7051 9.925C90.2884 9.425 89.7217 9.175 89.0051 9.175C88.3051 9.175 87.7467 9.425 87.3301 9.925C86.9134 10.4083 86.7051 11.0333 86.7051 11.8C86.7051 12.5667 86.9134 13.1917 87.3301 13.675C87.7467 14.1583 88.3051 14.4 89.0051 14.4ZM98.8869 18V5.575H103.787V7.4C104.454 5.95 105.795 5.225 107.812 5.225C110.845 5.225 112.362 6.95833 112.362 10.425V18H107.362V11.675C107.362 10.1083 106.787 9.325 105.637 9.325C104.404 9.325 103.787 10.1417 103.787 11.775V18H98.8869ZM123.723 0.499999H128.623V18H123.698V16.15C123.415 16.8 122.923 17.3333 122.223 17.75C121.54 18.15 120.74 18.35 119.823 18.35C118.107 18.35 116.74 17.7417 115.723 16.525C114.707 15.3083 114.198 13.7333 114.198 11.8C114.198 9.86667 114.715 8.29167 115.748 7.075C116.782 5.84167 118.148 5.225 119.848 5.225C120.782 5.225 121.582 5.425 122.248 5.825C122.915 6.225 123.398 6.75833 123.698 7.425V5.575H123.723V0.499999ZM121.573 14.4C122.29 14.4 122.857 14.1583 123.273 13.675C123.707 13.175 123.923 12.55 123.923 11.8C123.923 11.0333 123.707 10.4083 123.273 9.925C122.857 9.425 122.29 9.175 121.573 9.175C120.873 9.175 120.315 9.425 119.898 9.925C119.482 10.4083 119.273 11.0333 119.273 11.8C119.273 12.5667 119.482 13.1917 119.898 13.675C120.315 14.1583 120.873 14.4 121.573 14.4ZM0.55 47V29.5H11.8V33.4H5.75V36.45H11.8V40.175H5.75V43.1H11.8V47H0.55ZM19.2863 47.35C17.5697 47.35 16.203 46.7417 15.1863 45.525C14.1697 44.3083 13.6613 42.7333 13.6613 40.8C13.6613 38.8667 14.178 37.2917 15.2113 36.075C16.2447 34.8417 17.6113 34.225 19.3113 34.225C20.2447 34.225 21.0447 34.425 21.7113 34.825C22.378 35.225 22.8613 35.7583 23.1613 36.425V34.575H28.0863V47H23.1613V45.15C22.878 45.8 22.3863 46.3333 21.6863 46.75C21.003 47.15 20.203 47.35 19.2863 47.35ZM21.0363 43.4C21.753 43.4 22.3197 43.1583 22.7363 42.675C23.1697 42.175 23.3863 41.55 23.3863 40.8C23.3863 40.0333 23.1697 39.4083 22.7363 38.925C22.3197 38.425 21.753 38.175 21.0363 38.175C20.3363 38.175 19.778 38.425 19.3613 38.925C18.9447 39.4083 18.7363 40.0333 18.7363 40.8C18.7363 41.5667 18.9447 42.1917 19.3613 42.675C19.778 43.1583 20.3363 43.4 21.0363 43.4ZM30.9182 47V34.575H35.8182V37.35C36.0348 36.4 36.4682 35.6583 37.1182 35.125C37.7682 34.5917 38.5265 34.325 39.3932 34.325C39.7098 34.325 40.0182 34.35 40.3182 34.4V39.025C39.9015 38.9583 39.4848 38.925 39.0682 38.925C38.0515 38.925 37.2515 39.2167 36.6682 39.8C36.1015 40.3667 35.8182 41.375 35.8182 42.825V47H30.9182ZM42.1486 47V34.575H47.0486V36.4C47.7153 34.95 49.057 34.225 51.0736 34.225C54.107 34.225 55.6236 35.9583 55.6236 39.425V47H50.6236V40.675C50.6236 39.1083 50.0486 38.325 48.8986 38.325C47.6653 38.325 47.0486 39.1417 47.0486 40.775V47H42.1486Z" fill="#444053"/>
</svg>
