<svg width="581" height="231" viewBox="0 0 581 231" fill="none" xmlns="http://www.w3.org/2000/svg">
<path d="M35.25 39.7C31.75 43.3 27.0667 45.1 21.2 45.1C15.3333 45.1 10.65 43.3 7.15 39.7C3.65 36.1 1.9 31.7 1.9 26.5C1.9 21.3 3.65 16.9 7.15 13.3C10.65 9.7 15.3333 7.9 21.2 7.9C27.0667 7.9 31.75 9.7 35.25 13.3C38.75 16.9 40.5 21.3 40.5 26.5C40.5 31.7 38.75 36.1 35.25 39.7ZM21.2 35.8C23.9 35.8 25.9833 34.9167 27.45 33.15C28.95 31.35 29.6833 29.1333 29.65 26.5C29.6833 23.8667 28.95 21.6667 27.45 19.9C25.9833 18.1 23.9 17.2 21.2 17.2C18.5333 17.2 16.45 18.1 14.95 19.9C13.4833 21.6667 12.75 23.8667 12.75 26.5C12.75 29.1333 13.4833 31.35 14.95 33.15C16.45 34.9167 18.5333 35.8 21.2 35.8ZM44.2797 44V19.15H54.0797V22.8C55.413 19.9 58.0964 18.45 62.1297 18.45C68.1964 18.45 71.2297 21.9167 71.2297 28.85V44H61.2297V31.35C61.2297 28.2167 60.0797 26.65 57.7797 26.65C55.313 26.65 54.0797 28.2833 54.0797 31.55V44H44.2797ZM76.6039 44V9H86.4039V44H76.6039ZM96.9824 18.3C95.4158 18.3 94.1158 17.7833 93.0824 16.75C92.0491 15.6833 91.5324 14.4167 91.5324 12.95C91.5324 11.45 92.0491 10.1833 93.0824 9.15C94.1158 8.11666 95.4158 7.6 96.9824 7.6C98.5158 7.6 99.7991 8.11666 100.832 9.15C101.899 10.1833 102.432 11.45 102.432 12.95C102.432 14.4167 101.899 15.6833 100.832 16.75C99.7991 17.7833 98.5158 18.3 96.9824 18.3ZM92.0824 44V19.15H101.882V44H92.0824ZM107.561 44V19.15H117.361V22.8C118.694 19.9 121.378 18.45 125.411 18.45C131.478 18.45 134.511 21.9167 134.511 28.85V44H124.511V31.35C124.511 28.2167 123.361 26.65 121.061 26.65C118.594 26.65 117.361 28.2833 117.361 31.55V44H107.561ZM166.184 30.3C166.184 31.5333 166.101 32.75 165.934 33.95H147.634C147.701 35.25 148.151 36.2667 148.984 37C149.851 37.7333 150.984 38.1 152.384 38.1C154.484 38.1 155.784 37.4833 156.284 36.25H165.784C165.351 38.8833 163.917 40.9833 161.484 42.55C159.051 44.0833 156.017 44.85 152.384 44.85C147.851 44.85 144.284 43.7 141.684 41.4C139.117 39.0667 137.834 35.8 137.834 31.6C137.834 27.4667 139.134 24.2167 141.734 21.85C144.334 19.45 147.817 18.25 152.184 18.25C156.317 18.25 159.684 19.3667 162.284 21.6C164.884 23.8333 166.184 26.7333 166.184 30.3ZM147.634 28.55H156.384C156.351 27.1833 155.967 26.1167 155.234 25.35C154.501 24.5833 153.451 24.2 152.084 24.2C150.751 24.2 149.684 24.6 148.884 25.4C148.117 26.2 147.701 27.25 147.634 28.55ZM188.033 44V17.95H179.033V9H207.483V17.95H198.483V44H188.033ZM209.612 44V19.15H219.412V24.7C219.845 22.8 220.712 21.3167 222.012 20.25C223.312 19.1833 224.828 18.65 226.562 18.65C227.195 18.65 227.812 18.7 228.412 18.8V28.05C227.578 27.9167 226.745 27.85 225.912 27.85C223.878 27.85 222.278 28.4333 221.112 29.6C219.978 30.7333 219.412 32.75 219.412 35.65V44H209.612ZM241.231 44.7C237.798 44.7 235.064 43.4833 233.031 41.05C230.998 38.6167 229.981 35.4667 229.981 31.6C229.981 27.7333 231.014 24.5833 233.081 22.15C235.148 19.6833 237.881 18.45 241.281 18.45C243.148 18.45 244.748 18.85 246.081 19.65C247.414 20.45 248.381 21.5167 248.981 22.85V19.15H258.831V44H248.981V40.3C248.414 41.6 247.431 42.6667 246.031 43.5C244.664 44.3 243.064 44.7 241.231 44.7ZM244.731 36.8C246.164 36.8 247.298 36.3167 248.131 35.35C248.998 34.35 249.431 33.1 249.431 31.6C249.431 30.0667 248.998 28.8167 248.131 27.85C247.298 26.85 246.164 26.35 244.731 26.35C243.331 26.35 242.214 26.85 241.381 27.85C240.548 28.8167 240.131 30.0667 240.131 31.6C240.131 33.1333 240.548 34.3833 241.381 35.35C242.214 36.3167 243.331 36.8 244.731 36.8ZM269.395 18.3C267.828 18.3 266.528 17.7833 265.495 16.75C264.461 15.6833 263.945 14.4167 263.945 12.95C263.945 11.45 264.461 10.1833 265.495 9.15C266.528 8.11666 267.828 7.6 269.395 7.6C270.928 7.6 272.211 8.11666 273.245 9.15C274.311 10.1833 274.845 11.45 274.845 12.95C274.845 14.4167 274.311 15.6833 273.245 16.75C272.211 17.7833 270.928 18.3 269.395 18.3ZM264.495 44V19.15H274.295V44H264.495ZM279.973 44V19.15H289.773V22.8C291.106 19.9 293.79 18.45 297.823 18.45C303.89 18.45 306.923 21.9167 306.923 28.85V44H296.923V31.35C296.923 28.2167 295.773 26.65 293.473 26.65C291.006 26.65 289.773 28.2833 289.773 31.55V44H279.973ZM317.246 18.3C315.679 18.3 314.379 17.7833 313.346 16.75C312.313 15.6833 311.796 14.4167 311.796 12.95C311.796 11.45 312.313 10.1833 313.346 9.15C314.379 8.11666 315.679 7.6 317.246 7.6C318.779 7.6 320.063 8.11666 321.096 9.15C322.163 10.1833 322.696 11.45 322.696 12.95C322.696 14.4167 322.163 15.6833 321.096 16.75C320.063 17.7833 318.779 18.3 317.246 18.3ZM312.346 44V19.15H322.146V44H312.346ZM327.825 44V19.15H337.625V22.8C338.958 19.9 341.641 18.45 345.675 18.45C351.741 18.45 354.775 21.9167 354.775 28.85V44H344.775V31.35C344.775 28.2167 343.625 26.65 341.325 26.65C338.858 26.65 337.625 28.2833 337.625 31.55V44H327.825ZM377.498 19.15H387.298V41.75C387.298 46.4167 385.598 49.9 382.198 52.2C380.098 53.6333 377.048 54.35 373.048 54.35C369.148 54.35 366.098 53.75 363.898 52.55C362.464 51.7833 361.281 50.75 360.348 49.45C359.448 48.15 358.998 46.8333 358.998 45.5H368.898C369.164 46.9667 370.498 47.7 372.898 47.7C375.964 47.7 377.498 46.2 377.498 43.2V39.3C376.964 40.5333 375.981 41.5333 374.548 42.3C373.114 43.0667 371.548 43.45 369.848 43.45C366.381 43.45 363.614 42.3167 361.548 40.05C359.481 37.75 358.448 34.7667 358.448 31.1C358.448 27.3667 359.498 24.3333 361.598 22C363.698 19.6333 366.464 18.45 369.898 18.45C371.664 18.45 373.231 18.85 374.598 19.65C375.998 20.45 376.964 21.5167 377.498 22.85V19.15ZM373.248 36.5C374.681 36.5 375.814 36 376.648 35C377.481 34 377.898 32.75 377.898 31.25C377.898 29.75 377.481 28.5 376.648 27.5C375.814 26.5 374.681 26 373.248 26C371.881 26 370.764 26.5 369.898 27.5C369.031 28.4667 368.598 29.7167 368.598 31.25C368.598 32.7833 369.031 34.05 369.898 35.05C370.764 36.0167 371.881 36.5 373.248 36.5ZM419.625 36.75C420.225 36.75 421.059 36.6833 422.125 36.55V44C420.259 44.3333 418.225 44.5 416.025 44.5C414.725 44.5 413.575 44.3833 412.575 44.15C411.575 43.9167 410.575 43.5 409.575 42.9C408.575 42.2667 407.792 41.3 407.225 40C406.692 38.6667 406.425 37.0167 406.425 35.05V26.65H402.775V19.15H406.425V11.9H416.225V19.15H421.875V26.65H416.225V33C416.225 35.5 417.359 36.75 419.625 36.75ZM438.563 44.85C434.197 44.85 430.697 43.6333 428.063 41.2C425.43 38.7333 424.113 35.5167 424.113 31.55C424.113 27.5833 425.43 24.3833 428.063 21.95C430.697 19.4833 434.197 18.25 438.563 18.25C442.963 18.25 446.48 19.4833 449.113 21.95C451.747 24.3833 453.063 27.5833 453.063 31.55C453.063 35.5167 451.747 38.7333 449.113 41.2C446.48 43.6333 442.963 44.85 438.563 44.85ZM438.563 36.8C439.997 36.8 441.13 36.3167 441.963 35.35C442.797 34.3833 443.213 33.1167 443.213 31.55C443.213 29.9833 442.797 28.7167 441.963 27.75C441.13 26.7833 439.997 26.3 438.563 26.3C437.163 26.3 436.03 26.8 435.163 27.8C434.33 28.7667 433.913 30.0167 433.913 31.55C433.913 33.0833 434.33 34.35 435.163 35.35C436.03 36.3167 437.163 36.8 438.563 36.8ZM468.797 44V9H479.197V22.3H488.947V9H499.347V44H488.947V30.95H479.197V44H468.797ZM531.565 30.3C531.565 31.5333 531.482 32.75 531.315 33.95H513.015C513.082 35.25 513.532 36.2667 514.365 37C515.232 37.7333 516.365 38.1 517.765 38.1C519.865 38.1 521.165 37.4833 521.665 36.25H531.165C530.732 38.8833 529.298 40.9833 526.865 42.55C524.432 44.0833 521.398 44.85 517.765 44.85C513.232 44.85 509.665 43.7 507.065 41.4C504.498 39.0667 503.215 35.8 503.215 31.6C503.215 27.4667 504.515 24.2167 507.115 21.85C509.715 19.45 513.198 18.25 517.565 18.25C521.698 18.25 525.065 19.3667 527.665 21.6C530.265 23.8333 531.565 26.7333 531.565 30.3ZM513.015 28.55H521.765C521.732 27.1833 521.348 26.1167 520.615 25.35C519.882 24.5833 518.832 24.2 517.465 24.2C516.132 24.2 515.065 24.6 514.265 25.4C513.498 26.2 513.082 27.25 513.015 28.55ZM535.149 44V9H544.949V44H535.149ZM568.377 18.45C571.644 18.45 574.311 19.6667 576.377 22.1C578.444 24.5 579.477 27.6667 579.477 31.6C579.477 35.5 578.427 38.6667 576.327 41.1C574.227 43.5 571.527 44.7 568.227 44.7C566.361 44.7 564.727 44.2833 563.327 43.45C561.961 42.5833 560.994 41.5333 560.427 40.3V53.5H550.627V19.15H560.427V22.85C560.994 21.5833 561.977 20.5333 563.377 19.7C564.811 18.8667 566.477 18.45 568.377 18.45ZM561.327 35.45C562.194 36.4167 563.311 36.9 564.677 36.9C566.044 36.9 567.161 36.4 568.027 35.4C568.894 34.4 569.327 33.1333 569.327 31.6C569.327 30.0333 568.894 28.7667 568.027 27.8C567.161 26.8333 566.044 26.35 564.677 26.35C563.311 26.35 562.194 26.8333 561.327 27.8C560.461 28.7667 560.027 30.0333 560.027 31.6C560.027 33.1667 560.461 34.45 561.327 35.45ZM23.55 66H35.15L17.8 101H6.15L12.15 88.7L0.4 66H12.65L18.2 78.5L23.55 66ZM44.2273 101.85C39.8607 101.85 36.3607 100.633 33.7273 98.2C31.094 95.7333 29.7773 92.5167 29.7773 88.55C29.7773 84.5833 31.094 81.3833 33.7273 78.95C36.3607 76.4833 39.8607 75.25 44.2273 75.25C48.6273 75.25 52.144 76.4833 54.7773 78.95C57.4107 81.3833 58.7273 84.5833 58.7273 88.55C58.7273 92.5167 57.4107 95.7333 54.7773 98.2C52.144 100.633 48.6273 101.85 44.2273 101.85ZM44.2273 93.8C45.6607 93.8 46.794 93.3167 47.6273 92.35C48.4607 91.3833 48.8773 90.1167 48.8773 88.55C48.8773 86.9833 48.4607 85.7167 47.6273 84.75C46.794 83.7833 45.6607 83.3 44.2273 83.3C42.8273 83.3 41.694 83.8 40.8273 84.8C39.994 85.7667 39.5773 87.0167 39.5773 88.55C39.5773 90.0833 39.994 91.35 40.8273 92.35C41.694 93.3167 42.8273 93.8 44.2273 93.8ZM71.2461 101.7C68.1128 101.7 65.7961 100.783 64.2961 98.95C62.8294 97.1167 62.0961 94.5667 62.0961 91.3V76.15H72.0461V89.15C72.0461 92.05 73.1628 93.5 75.3961 93.5C77.7628 93.5 78.9461 91.95 78.9461 88.85V76.15H88.7961V101H78.9461V97.3C77.6461 100.233 75.0794 101.7 71.2461 101.7ZM118.991 102.1C114.425 102.1 110.825 101 108.191 98.8C105.591 96.5667 104.291 93.4833 104.291 89.55H114.691C114.691 91.05 115.075 92.2333 115.841 93.1C116.641 93.9667 117.741 94.4 119.141 94.4C121.475 94.4 122.641 93.4333 122.641 91.5C122.641 90.7 122.391 90.0667 121.891 89.6C121.391 89.1 120.541 88.6167 119.341 88.15L112.391 85.6C107.391 83.7333 104.891 80.4333 104.891 75.7C104.891 72.4333 106.108 69.8167 108.541 67.85C111.008 65.8833 114.358 64.9 118.591 64.9C122.858 64.9 126.258 65.9 128.791 67.9C131.358 69.9 132.641 72.6333 132.641 76.1H122.241C122.241 74.8 121.908 73.8 121.241 73.1C120.608 72.3667 119.691 72 118.491 72C117.525 72 116.758 72.2333 116.191 72.7C115.625 73.1667 115.341 73.8167 115.341 74.65C115.341 75.35 115.625 75.9667 116.191 76.5C116.758 77 117.758 77.5167 119.191 78.05L125.591 80.5C130.558 82.4333 133.041 85.8 133.041 90.6C133.041 94.1333 131.775 96.9333 129.241 99C126.708 101.067 123.291 102.1 118.991 102.1ZM151.754 93.75C152.354 93.75 153.188 93.6833 154.254 93.55V101C152.388 101.333 150.354 101.5 148.154 101.5C146.854 101.5 145.704 101.383 144.704 101.15C143.704 100.917 142.704 100.5 141.704 99.9C140.704 99.2667 139.921 98.3 139.354 97C138.821 95.6667 138.554 94.0167 138.554 92.05V83.65H134.904V76.15H138.554V68.9H148.354V76.15H154.004V83.65H148.354V90C148.354 92.5 149.488 93.75 151.754 93.75ZM167.5 101.7C164.067 101.7 161.334 100.483 159.3 98.05C157.267 95.6167 156.25 92.4667 156.25 88.6C156.25 84.7333 157.284 81.5833 159.35 79.15C161.417 76.6833 164.15 75.45 167.55 75.45C169.417 75.45 171.017 75.85 172.35 76.65C173.684 77.45 174.65 78.5167 175.25 79.85V76.15H185.1V101H175.25V97.3C174.684 98.6 173.7 99.6667 172.3 100.5C170.934 101.3 169.334 101.7 167.5 101.7ZM171 93.8C172.434 93.8 173.567 93.3167 174.4 92.35C175.267 91.35 175.7 90.1 175.7 88.6C175.7 87.0667 175.267 85.8167 174.4 84.85C173.567 83.85 172.434 83.35 171 83.35C169.6 83.35 168.484 83.85 167.65 84.85C166.817 85.8167 166.4 87.0667 166.4 88.6C166.4 90.1333 166.817 91.3833 167.65 92.35C168.484 93.3167 169.6 93.8 171 93.8ZM190.764 101V76.15H200.564V81.7C200.997 79.8 201.864 78.3167 203.164 77.25C204.464 76.1833 205.981 75.65 207.714 75.65C208.347 75.65 208.964 75.7 209.564 75.8V85.05C208.731 84.9167 207.897 84.85 207.064 84.85C205.031 84.85 203.431 85.4333 202.264 86.6C201.131 87.7333 200.564 89.75 200.564 92.65V101H190.764ZM228.952 93.75C229.552 93.75 230.385 93.6833 231.452 93.55V101C229.585 101.333 227.552 101.5 225.352 101.5C224.052 101.5 222.902 101.383 221.902 101.15C220.902 100.917 219.902 100.5 218.902 99.9C217.902 99.2667 217.118 98.3 216.552 97C216.018 95.6667 215.752 94.0167 215.752 92.05V83.65H212.102V76.15H215.752V68.9H225.552V76.15H231.202V83.65H225.552V90C225.552 92.5 226.685 93.75 228.952 93.75ZM247.411 101V66H269.911V73.8H257.811V79.9H269.911V87.35H257.811V93.2H269.911V101H247.411ZM284.883 101.7C281.45 101.7 278.717 100.483 276.683 98.05C274.65 95.6167 273.633 92.4667 273.633 88.6C273.633 84.7333 274.667 81.5833 276.733 79.15C278.8 76.6833 281.533 75.45 284.933 75.45C286.8 75.45 288.4 75.85 289.733 76.65C291.067 77.45 292.033 78.5167 292.633 79.85V76.15H302.483V101H292.633V97.3C292.067 98.6 291.083 99.6667 289.683 100.5C288.317 101.3 286.717 101.7 284.883 101.7ZM288.383 93.8C289.817 93.8 290.95 93.3167 291.783 92.35C292.65 91.35 293.083 90.1 293.083 88.6C293.083 87.0667 292.65 85.8167 291.783 84.85C290.95 83.85 289.817 83.35 288.383 83.35C286.983 83.35 285.867 83.85 285.033 84.85C284.2 85.8167 283.783 87.0667 283.783 88.6C283.783 90.1333 284.2 91.3833 285.033 92.35C285.867 93.3167 286.983 93.8 288.383 93.8ZM308.147 101V76.15H317.947V81.7C318.38 79.8 319.247 78.3167 320.547 77.25C321.847 76.1833 323.364 75.65 325.097 75.65C325.73 75.65 326.347 75.7 326.947 75.8V85.05C326.114 84.9167 325.28 84.85 324.447 84.85C322.414 84.85 320.814 85.4333 319.647 86.6C318.514 87.7333 317.947 89.75 317.947 92.65V101H308.147ZM330.608 101V76.15H340.408V79.8C341.741 76.9 344.424 75.45 348.458 75.45C354.524 75.45 357.558 78.9167 357.558 85.85V101H347.558V88.35C347.558 85.2167 346.408 83.65 344.108 83.65C341.641 83.65 340.408 85.2833 340.408 88.55V101H330.608ZM367.881 75.3C366.314 75.3 365.014 74.7833 363.981 73.75C362.948 72.6833 362.431 71.4167 362.431 69.95C362.431 68.45 362.948 67.1833 363.981 66.15C365.014 65.1167 366.314 64.6 367.881 64.6C369.414 64.6 370.698 65.1167 371.731 66.15C372.798 67.1833 373.331 68.45 373.331 69.95C373.331 71.4167 372.798 72.6833 371.731 73.75C370.698 74.7833 369.414 75.3 367.881 75.3ZM362.981 101V76.15H372.781V101H362.981ZM378.459 101V76.15H388.259V79.8C389.593 76.9 392.276 75.45 396.309 75.45C402.376 75.45 405.409 78.9167 405.409 85.85V101H395.409V88.35C395.409 85.2167 394.259 83.65 391.959 83.65C389.493 83.65 388.259 85.2833 388.259 88.55V101H378.459ZM428.132 76.15H437.932V98.75C437.932 103.417 436.232 106.9 432.832 109.2C430.732 110.633 427.682 111.35 423.682 111.35C419.782 111.35 416.732 110.75 414.532 109.55C413.099 108.783 411.916 107.75 410.982 106.45C410.082 105.15 409.632 103.833 409.632 102.5H419.532C419.799 103.967 421.132 104.7 423.532 104.7C426.599 104.7 428.132 103.2 428.132 100.2V96.3C427.599 97.5333 426.616 98.5333 425.182 99.3C423.749 100.067 422.182 100.45 420.482 100.45C417.016 100.45 414.249 99.3167 412.182 97.05C410.116 94.75 409.082 91.7667 409.082 88.1C409.082 84.3667 410.132 81.3333 412.232 79C414.332 76.6333 417.099 75.45 420.532 75.45C422.299 75.45 423.866 75.85 425.232 76.65C426.632 77.45 427.599 78.5167 428.132 79.85V76.15ZM423.882 93.5C425.316 93.5 426.449 93 427.282 92C428.116 91 428.532 89.75 428.532 88.25C428.532 86.75 428.116 85.5 427.282 84.5C426.449 83.5 425.316 83 423.882 83C422.516 83 421.399 83.5 420.532 84.5C419.666 85.4667 419.232 86.7167 419.232 88.25C419.232 89.7833 419.666 91.05 420.532 92.05C421.399 93.0167 422.516 93.5 423.882 93.5Z" fill="white"/>
<path d="M15.542 142.02C14.1047 143.575 12.1833 144.352 9.778 144.352C7.37267 144.352 5.444 143.575 3.992 142.02C2.55467 140.465 1.836 138.559 1.836 136.3C1.836 134.041 2.55467 132.135 3.992 130.58C5.444 129.025 7.37267 128.248 9.778 128.248C12.1833 128.248 14.1047 129.025 15.542 130.58C16.994 132.135 17.72 134.041 17.72 136.3C17.72 138.559 16.994 140.465 15.542 142.02ZM5.51 140.744C6.566 141.947 7.98867 142.548 9.778 142.548C11.5673 142.548 12.99 141.947 14.046 140.744C15.102 139.541 15.6227 138.06 15.608 136.3C15.6227 134.54 15.102 133.059 14.046 131.856C12.99 130.653 11.5673 130.052 9.778 130.052C7.98867 130.052 6.566 130.653 5.51 131.856C4.454 133.059 3.926 134.54 3.926 136.3C3.926 138.06 4.454 139.541 5.51 140.744ZM20.1813 144V133.858H22.0953V135.728C22.3739 135.068 22.8139 134.547 23.4153 134.166C24.0313 133.785 24.7719 133.594 25.6373 133.594C28.1599 133.594 29.4213 134.98 29.4213 137.752V144H27.5073V138.588C27.5073 137.444 27.3019 136.601 26.8913 136.058C26.4953 135.515 25.8499 135.244 24.9553 135.244C24.0313 135.244 23.3199 135.545 22.8213 136.146C22.3373 136.747 22.0953 137.576 22.0953 138.632V144H20.1813ZM32.5563 144V128.6H34.4703V144H32.5563ZM38.745 132.12C38.2903 132.12 37.9163 131.973 37.623 131.68C37.3296 131.387 37.183 131.02 37.183 130.58C37.183 130.14 37.3296 129.773 37.623 129.48C37.9163 129.172 38.2903 129.018 38.745 129.018C39.185 129.018 39.5516 129.172 39.845 129.48C40.1383 129.773 40.285 130.14 40.285 130.58C40.285 131.02 40.1383 131.387 39.845 131.68C39.5516 131.973 39.185 132.12 38.745 132.12ZM37.777 144V133.858H39.691V144H37.777ZM42.9977 144V133.858H44.9117V135.728C45.1903 135.068 45.6303 134.547 46.2317 134.166C46.8477 133.785 47.5883 133.594 48.4537 133.594C50.9763 133.594 52.2377 134.98 52.2377 137.752V144H50.3237V138.588C50.3237 137.444 50.1183 136.601 49.7077 136.058C49.3117 135.515 48.6663 135.244 47.7717 135.244C46.8477 135.244 46.1363 135.545 45.6377 136.146C45.1537 136.747 44.9117 137.576 44.9117 138.632V144H42.9977ZM64.4351 138.346C64.4351 138.625 64.4131 139.006 64.3691 139.49H56.5151C56.5298 140.458 56.8231 141.221 57.3951 141.778C57.9671 142.321 58.7371 142.592 59.7051 142.592C61.0544 142.592 61.9491 142.093 62.3891 141.096H64.3031C64.1271 142.035 63.6138 142.797 62.7631 143.384C61.9124 143.971 60.8931 144.264 59.7051 144.264C58.1504 144.264 56.9111 143.787 55.9871 142.834C55.0778 141.866 54.6231 140.561 54.6231 138.918C54.6231 137.305 55.0778 136.014 55.9871 135.046C56.8964 134.078 58.1064 133.594 59.6171 133.594C61.0544 133.594 62.2131 134.034 63.0931 134.914C63.9878 135.794 64.4351 136.938 64.4351 138.346ZM56.5151 138.016H62.5431C62.5431 137.121 62.2791 136.417 61.7511 135.904C61.2378 135.391 60.5191 135.134 59.5951 135.134C58.6858 135.134 57.9524 135.398 57.3951 135.926C56.8524 136.454 56.5591 137.151 56.5151 138.016ZM76.7202 142.394C77.2482 142.394 77.6736 142.357 77.9962 142.284V143.978C77.5562 144.081 76.9916 144.132 76.3022 144.132C75.9942 144.132 75.7229 144.117 75.4882 144.088C75.2682 144.059 75.0042 143.978 74.6962 143.846C74.3882 143.714 74.1316 143.531 73.9262 143.296C73.7209 143.047 73.5449 142.702 73.3982 142.262C73.2516 141.807 73.1782 141.265 73.1782 140.634V135.464H71.3522V133.858H73.1782V130.646H75.0922V133.858H77.6442V135.464H75.0922V140.216C75.0922 141.111 75.2242 141.697 75.4882 141.976C75.7522 142.255 76.1629 142.394 76.7202 142.394ZM80.316 144V133.858H82.23V136.168C82.4207 135.361 82.7947 134.753 83.352 134.342C83.9093 133.917 84.5253 133.704 85.2 133.704C85.596 133.704 85.904 133.733 86.124 133.792V135.552C85.904 135.508 85.5887 135.486 85.178 135.486C84.2247 135.486 83.4913 135.867 82.978 136.63C82.4793 137.393 82.23 138.368 82.23 139.556V144H80.316ZM92.0375 144.264C90.4682 144.264 89.2362 143.765 88.3415 142.768C87.4615 141.771 87.0215 140.495 87.0215 138.94C87.0215 137.4 87.4762 136.124 88.3855 135.112C89.3095 134.1 90.5415 133.594 92.0815 133.594C92.8735 133.594 93.5849 133.777 94.2155 134.144C94.8462 134.511 95.3229 135.009 95.6455 135.64V133.858H97.5375V144H95.6455V142.218C95.3229 142.834 94.8315 143.333 94.1715 143.714C93.5115 144.081 92.8002 144.264 92.0375 144.264ZM92.3015 142.548C93.3722 142.548 94.2082 142.203 94.8095 141.514C95.4255 140.81 95.7335 139.952 95.7335 138.94C95.7335 137.913 95.4255 137.055 94.8095 136.366C94.2082 135.662 93.3722 135.31 92.3015 135.31C91.2749 135.31 90.4535 135.655 89.8375 136.344C89.2215 137.019 88.9135 137.884 88.9135 138.94C88.9135 139.996 89.2215 140.861 89.8375 141.536C90.4535 142.211 91.2749 142.548 92.3015 142.548ZM101.802 132.12C101.347 132.12 100.973 131.973 100.68 131.68C100.386 131.387 100.24 131.02 100.24 130.58C100.24 130.14 100.386 129.773 100.68 129.48C100.973 129.172 101.347 129.018 101.802 129.018C102.242 129.018 102.608 129.172 102.902 129.48C103.195 129.773 103.342 130.14 103.342 130.58C103.342 131.02 103.195 131.387 102.902 131.68C102.608 131.973 102.242 132.12 101.802 132.12ZM100.834 144V133.858H102.748V144H100.834ZM106.054 144V133.858H107.968V135.728C108.247 135.068 108.687 134.547 109.288 134.166C109.904 133.785 110.645 133.594 111.51 133.594C114.033 133.594 115.294 134.98 115.294 137.752V144H113.38V138.588C113.38 137.444 113.175 136.601 112.764 136.058C112.368 135.515 111.723 135.244 110.828 135.244C109.904 135.244 109.193 135.545 108.694 136.146C108.21 136.747 107.968 137.576 107.968 138.632V144H106.054ZM119.462 132.12C119.007 132.12 118.633 131.973 118.34 131.68C118.046 131.387 117.9 131.02 117.9 130.58C117.9 130.14 118.046 129.773 118.34 129.48C118.633 129.172 119.007 129.018 119.462 129.018C119.902 129.018 120.268 129.172 120.562 129.48C120.855 129.773 121.002 130.14 121.002 130.58C121.002 131.02 120.855 131.387 120.562 131.68C120.268 131.973 119.902 132.12 119.462 132.12ZM118.494 144V133.858H120.408V144H118.494ZM123.714 144V133.858H125.628V135.728C125.907 135.068 126.347 134.547 126.948 134.166C127.564 133.785 128.305 133.594 129.17 133.594C131.693 133.594 132.954 134.98 132.954 137.752V144H131.04V138.588C131.04 137.444 130.835 136.601 130.424 136.058C130.028 135.515 129.383 135.244 128.488 135.244C127.564 135.244 126.853 135.545 126.354 136.146C125.87 136.747 125.628 137.576 125.628 138.632V144H123.714ZM143.964 133.858H145.856V143.736C145.856 145.672 145.269 147.095 144.096 148.004C143.245 148.635 142.079 148.95 140.598 148.95C139.117 148.95 137.921 148.62 137.012 147.96C136.044 147.285 135.538 146.391 135.494 145.276H137.496C137.584 145.892 137.885 146.391 138.398 146.772C138.926 147.153 139.659 147.344 140.598 147.344C142.842 147.344 143.964 146.185 143.964 143.868V142.218C143.656 142.849 143.165 143.347 142.49 143.714C141.815 144.081 141.104 144.264 140.356 144.264C138.831 144.264 137.613 143.758 136.704 142.746C135.795 141.734 135.34 140.465 135.34 138.94C135.34 137.415 135.809 136.146 136.748 135.134C137.701 134.107 138.919 133.594 140.4 133.594C141.177 133.594 141.881 133.777 142.512 134.144C143.157 134.511 143.641 135.009 143.964 135.64V133.858ZM140.62 142.548C141.661 142.548 142.49 142.203 143.106 141.514C143.737 140.825 144.052 139.967 144.052 138.94C144.052 137.913 143.737 137.055 143.106 136.366C142.49 135.662 141.661 135.31 140.62 135.31C139.623 135.31 138.809 135.655 138.178 136.344C137.547 137.019 137.232 137.884 137.232 138.94C137.232 139.981 137.547 140.847 138.178 141.536C138.809 142.211 139.623 142.548 140.62 142.548ZM158.962 142.394C159.49 142.394 159.916 142.357 160.238 142.284V143.978C159.798 144.081 159.234 144.132 158.544 144.132C158.236 144.132 157.965 144.117 157.73 144.088C157.51 144.059 157.246 143.978 156.938 143.846C156.63 143.714 156.374 143.531 156.168 143.296C155.963 143.047 155.787 142.702 155.64 142.262C155.494 141.807 155.42 141.265 155.42 140.634V135.464H153.594V133.858H155.42V130.646H157.334V133.858H159.886V135.464H157.334V140.216C157.334 141.111 157.466 141.697 157.73 141.976C157.994 142.255 158.405 142.394 158.962 142.394ZM166.895 144.264C165.282 144.264 163.999 143.758 163.045 142.746C162.092 141.719 161.615 140.443 161.615 138.918C161.615 137.393 162.092 136.124 163.045 135.112C163.999 134.1 165.282 133.594 166.895 133.594C168.494 133.594 169.77 134.107 170.723 135.134C171.691 136.146 172.175 137.407 172.175 138.918C172.175 140.443 171.691 141.719 170.723 142.746C169.77 143.758 168.494 144.264 166.895 144.264ZM164.409 141.536C165.025 142.211 165.854 142.548 166.895 142.548C167.937 142.548 168.758 142.211 169.359 141.536C169.961 140.847 170.261 139.974 170.261 138.918C170.261 137.877 169.961 137.019 169.359 136.344C168.758 135.655 167.937 135.31 166.895 135.31C165.854 135.31 165.025 135.655 164.409 136.344C163.808 137.019 163.507 137.884 163.507 138.94C163.507 139.981 163.808 140.847 164.409 141.536ZM185.85 133.594C187.302 133.594 188.483 134.093 189.392 135.09C190.302 136.073 190.756 137.356 190.756 138.94C190.756 140.495 190.287 141.771 189.348 142.768C188.41 143.765 187.207 144.264 185.74 144.264C184.963 144.264 184.244 144.081 183.584 143.714C182.939 143.347 182.455 142.849 182.132 142.218V144H180.218V128.6H182.132V135.64C182.455 135.009 182.946 134.511 183.606 134.144C184.281 133.777 185.029 133.594 185.85 133.594ZM185.476 142.548C186.459 142.548 187.266 142.211 187.896 141.536C188.527 140.861 188.842 139.996 188.842 138.94C188.842 137.884 188.527 137.019 187.896 136.344C187.266 135.655 186.459 135.31 185.476 135.31C184.464 135.31 183.636 135.647 182.99 136.322C182.36 136.997 182.044 137.869 182.044 138.94C182.044 139.996 182.36 140.861 182.99 141.536C183.636 142.211 184.464 142.548 185.476 142.548ZM197.682 144.264C196.069 144.264 194.786 143.758 193.832 142.746C192.879 141.719 192.402 140.443 192.402 138.918C192.402 137.393 192.879 136.124 193.832 135.112C194.786 134.1 196.069 133.594 197.682 133.594C199.281 133.594 200.557 134.107 201.51 135.134C202.478 136.146 202.962 137.407 202.962 138.918C202.962 140.443 202.478 141.719 201.51 142.746C200.557 143.758 199.281 144.264 197.682 144.264ZM195.196 141.536C195.812 142.211 196.641 142.548 197.682 142.548C198.724 142.548 199.545 142.211 200.146 141.536C200.748 140.847 201.048 139.974 201.048 138.918C201.048 137.877 200.748 137.019 200.146 136.344C199.545 135.655 198.724 135.31 197.682 135.31C196.641 135.31 195.812 135.655 195.196 136.344C194.595 137.019 194.294 137.884 194.294 138.94C194.294 139.981 194.595 140.847 195.196 141.536ZM210.036 144.264C208.423 144.264 207.139 143.758 206.186 142.746C205.233 141.719 204.756 140.443 204.756 138.918C204.756 137.393 205.233 136.124 206.186 135.112C207.139 134.1 208.423 133.594 210.036 133.594C211.635 133.594 212.911 134.107 213.864 135.134C214.832 136.146 215.316 137.407 215.316 138.918C215.316 140.443 214.832 141.719 213.864 142.746C212.911 143.758 211.635 144.264 210.036 144.264ZM207.55 141.536C208.166 142.211 208.995 142.548 210.036 142.548C211.077 142.548 211.899 142.211 212.5 141.536C213.101 140.847 213.402 139.974 213.402 138.918C213.402 137.877 213.101 137.019 212.5 136.344C211.899 135.655 211.077 135.31 210.036 135.31C208.995 135.31 208.166 135.655 207.55 136.344C206.949 137.019 206.648 137.884 206.648 138.94C206.648 139.981 206.949 140.847 207.55 141.536ZM221.205 144.264C219.929 144.264 218.902 143.949 218.125 143.318C217.362 142.673 216.981 141.888 216.981 140.964H218.873C218.873 141.477 219.093 141.903 219.533 142.24C219.973 142.563 220.559 142.724 221.293 142.724C221.865 142.724 222.319 142.592 222.657 142.328C222.994 142.064 223.163 141.705 223.163 141.25C223.163 140.531 222.833 140.091 222.173 139.93L219.467 139.226C218.015 138.83 217.289 137.921 217.289 136.498C217.289 135.662 217.641 134.973 218.345 134.43C219.049 133.873 219.965 133.594 221.095 133.594C222.327 133.594 223.28 133.88 223.955 134.452C224.644 135.009 224.989 135.743 224.989 136.652H223.097C223.097 136.168 222.913 135.787 222.547 135.508C222.18 135.215 221.667 135.068 221.007 135.068C220.479 135.068 220.039 135.193 219.687 135.442C219.349 135.677 219.181 135.999 219.181 136.41C219.181 137.099 219.555 137.532 220.303 137.708L222.833 138.412C223.551 138.603 224.109 138.94 224.505 139.424C224.901 139.908 225.099 140.458 225.099 141.074C225.099 142.042 224.754 142.819 224.065 143.406C223.375 143.978 222.422 144.264 221.205 144.264ZM231.601 142.394C232.129 142.394 232.554 142.357 232.877 142.284V143.978C232.437 144.081 231.872 144.132 231.183 144.132C230.875 144.132 230.604 144.117 230.369 144.088C230.149 144.059 229.885 143.978 229.577 143.846C229.269 143.714 229.012 143.531 228.807 143.296C228.602 143.047 228.426 142.702 228.279 142.262C228.132 141.807 228.059 141.265 228.059 140.634V135.464H226.233V133.858H228.059V130.646H229.973V133.858H232.525V135.464H229.973V140.216C229.973 141.111 230.105 141.697 230.369 141.976C230.633 142.255 231.044 142.394 231.601 142.394ZM248.021 133.858H249.935V144.198C249.935 145.797 249.473 147.014 248.549 147.85C247.728 148.583 246.621 148.95 245.227 148.95C243.761 148.95 242.617 148.598 241.795 147.894C241.047 147.263 240.666 146.391 240.651 145.276H242.587C242.661 146.655 243.533 147.344 245.205 147.344C247.083 147.344 248.021 146.251 248.021 144.066V142.174C247.347 143.567 246.173 144.264 244.501 144.264C243.225 144.264 242.265 143.875 241.619 143.098C240.974 142.306 240.651 141.243 240.651 139.908V133.858H242.565V139.512C242.565 140.495 242.756 141.25 243.137 141.778C243.533 142.291 244.201 142.548 245.139 142.548C246.063 142.548 246.775 142.218 247.273 141.558C247.772 140.883 248.021 140.055 248.021 139.072V133.858ZM257.71 144.264C256.096 144.264 254.813 143.758 253.86 142.746C252.906 141.719 252.43 140.443 252.43 138.918C252.43 137.393 252.906 136.124 253.86 135.112C254.813 134.1 256.096 133.594 257.71 133.594C259.308 133.594 260.584 134.107 261.538 135.134C262.506 136.146 262.99 137.407 262.99 138.918C262.99 140.443 262.506 141.719 261.538 142.746C260.584 143.758 259.308 144.264 257.71 144.264ZM255.224 141.536C255.84 142.211 256.668 142.548 257.71 142.548C258.751 142.548 259.572 142.211 260.174 141.536C260.775 140.847 261.076 139.974 261.076 138.918C261.076 137.877 260.775 137.019 260.174 136.344C259.572 135.655 258.751 135.31 257.71 135.31C256.668 135.31 255.84 135.655 255.224 136.344C254.622 137.019 254.322 137.884 254.322 138.94C254.322 139.981 254.622 140.847 255.224 141.536ZM269.208 144.264C268.035 144.264 267.096 143.912 266.392 143.208C265.703 142.489 265.358 141.455 265.358 140.106V133.858H267.272V139.644C267.272 141.624 268.094 142.614 269.736 142.614C270.704 142.614 271.423 142.306 271.892 141.69C272.376 141.059 272.618 140.297 272.618 139.402V133.858H274.532V144H272.618V142.152C272.34 142.797 271.9 143.311 271.298 143.692C270.712 144.073 270.015 144.264 269.208 144.264ZM277.822 144V133.858H279.736V136.168C279.927 135.361 280.301 134.753 280.858 134.342C281.415 133.917 282.031 133.704 282.706 133.704C283.102 133.704 283.41 133.733 283.63 133.792V135.552C283.41 135.508 283.095 135.486 282.684 135.486C281.731 135.486 280.997 135.867 280.484 136.63C279.985 137.393 279.736 138.368 279.736 139.556V144H277.822ZM300.334 138.346C300.334 138.625 300.312 139.006 300.268 139.49H292.414C292.428 140.458 292.722 141.221 293.294 141.778C293.866 142.321 294.636 142.592 295.604 142.592C296.953 142.592 297.848 142.093 298.288 141.096H300.202C300.026 142.035 299.512 142.797 298.662 143.384C297.811 143.971 296.792 144.264 295.604 144.264C294.049 144.264 292.81 143.787 291.886 142.834C290.976 141.866 290.522 140.561 290.522 138.918C290.522 137.305 290.976 136.014 291.886 135.046C292.795 134.078 294.005 133.594 295.516 133.594C296.953 133.594 298.112 134.034 298.992 134.914C299.886 135.794 300.334 136.938 300.334 138.346ZM292.414 138.016H298.442C298.442 137.121 298.178 136.417 297.65 135.904C297.136 135.391 296.418 135.134 295.494 135.134C294.584 135.134 293.851 135.398 293.294 135.926C292.751 136.454 292.458 137.151 292.414 138.016ZM307.182 144.264C305.613 144.264 304.381 143.765 303.486 142.768C302.606 141.771 302.166 140.495 302.166 138.94C302.166 137.4 302.621 136.124 303.53 135.112C304.454 134.1 305.686 133.594 307.226 133.594C308.018 133.594 308.729 133.777 309.36 134.144C309.991 134.511 310.467 135.009 310.79 135.64V133.858H312.682V144H310.79V142.218C310.467 142.834 309.976 143.333 309.316 143.714C308.656 144.081 307.945 144.264 307.182 144.264ZM307.446 142.548C308.517 142.548 309.353 142.203 309.954 141.514C310.57 140.81 310.878 139.952 310.878 138.94C310.878 137.913 310.57 137.055 309.954 136.366C309.353 135.662 308.517 135.31 307.446 135.31C306.419 135.31 305.598 135.655 304.982 136.344C304.366 137.019 304.058 137.884 304.058 138.94C304.058 139.996 304.366 140.861 304.982 141.536C305.598 142.211 306.419 142.548 307.446 142.548ZM315.978 144V133.858H317.892V136.168C318.083 135.361 318.457 134.753 319.014 134.342C319.571 133.917 320.187 133.704 320.862 133.704C321.258 133.704 321.566 133.733 321.786 133.792V135.552C321.566 135.508 321.251 135.486 320.84 135.486C319.887 135.486 319.153 135.867 318.64 136.63C318.141 137.393 317.892 138.368 317.892 139.556V144H315.978ZM323.927 144V133.858H325.841V135.728C326.12 135.068 326.56 134.547 327.161 134.166C327.777 133.785 328.518 133.594 329.383 133.594C331.906 133.594 333.167 134.98 333.167 137.752V144H331.253V138.588C331.253 137.444 331.048 136.601 330.637 136.058C330.241 135.515 329.596 135.244 328.701 135.244C327.777 135.244 327.066 135.545 326.567 136.146C326.083 136.747 325.841 137.576 325.841 138.632V144H323.927ZM337.335 132.12C336.88 132.12 336.506 131.973 336.213 131.68C335.919 131.387 335.773 131.02 335.773 130.58C335.773 130.14 335.919 129.773 336.213 129.48C336.506 129.172 336.88 129.018 337.335 129.018C337.775 129.018 338.141 129.172 338.435 129.48C338.728 129.773 338.875 130.14 338.875 130.58C338.875 131.02 338.728 131.387 338.435 131.68C338.141 131.973 337.775 132.12 337.335 132.12ZM336.367 144V133.858H338.281V144H336.367ZM341.588 144V133.858H343.502V135.728C343.78 135.068 344.22 134.547 344.822 134.166C345.438 133.785 346.178 133.594 347.044 133.594C349.566 133.594 350.828 134.98 350.828 137.752V144H348.914V138.588C348.914 137.444 348.708 136.601 348.298 136.058C347.902 135.515 347.256 135.244 346.362 135.244C345.438 135.244 344.726 135.545 344.228 136.146C343.744 136.747 343.502 137.576 343.502 138.632V144H341.588ZM361.837 133.858H363.729V143.736C363.729 145.672 363.142 147.095 361.969 148.004C361.118 148.635 359.952 148.95 358.471 148.95C356.99 148.95 355.794 148.62 354.885 147.96C353.917 147.285 353.411 146.391 353.367 145.276H355.369C355.457 145.892 355.758 146.391 356.271 146.772C356.799 147.153 357.532 147.344 358.471 147.344C360.715 147.344 361.837 146.185 361.837 143.868V142.218C361.529 142.849 361.038 143.347 360.363 143.714C359.688 144.081 358.977 144.264 358.229 144.264C356.704 144.264 355.486 143.758 354.577 142.746C353.668 141.734 353.213 140.465 353.213 138.94C353.213 137.415 353.682 136.146 354.621 135.134C355.574 134.107 356.792 133.594 358.273 133.594C359.05 133.594 359.754 133.777 360.385 134.144C361.03 134.511 361.514 135.009 361.837 135.64V133.858ZM358.493 142.548C359.534 142.548 360.363 142.203 360.979 141.514C361.61 140.825 361.925 139.967 361.925 138.94C361.925 137.913 361.61 137.055 360.979 136.366C360.363 135.662 359.534 135.31 358.493 135.31C357.496 135.31 356.682 135.655 356.051 136.344C355.42 137.019 355.105 137.884 355.105 138.94C355.105 139.981 355.42 140.847 356.051 141.536C356.682 142.211 357.496 142.548 358.493 142.548Z" fill="white"/>
<rect x="1" y="171" width="280" height="60" rx="5" fill="#F26B5B"/>
<path d="M29.2564 200.84C30.0964 200.92 30.7831 201.253 31.3164 201.84C31.8631 202.413 32.1364 203.173 32.1364 204.12C32.1364 205.32 31.7364 206.267 30.9364 206.96C30.1364 207.653 29.0431 208 27.6564 208H21.6764V194H27.4364C28.8231 194 29.9164 194.327 30.7164 194.98C31.5297 195.62 31.9364 196.507 31.9364 197.64C31.9364 198.533 31.6964 199.253 31.2164 199.8C30.7364 200.333 30.0831 200.68 29.2564 200.84ZM26.7164 196.34H24.9164V199.74H26.7164C27.3297 199.74 27.8097 199.593 28.1564 199.3C28.5164 198.993 28.6964 198.573 28.6964 198.04C28.6964 197.507 28.5231 197.093 28.1764 196.8C27.8297 196.493 27.3431 196.34 26.7164 196.34ZM26.9364 205.54C27.5364 205.54 28.0097 205.38 28.3564 205.06C28.7031 204.727 28.8764 204.273 28.8764 203.7C28.8764 203.18 28.6964 202.767 28.3364 202.46C27.9897 202.14 27.5231 201.98 26.9364 201.98H24.9164V205.54H26.9364ZM42.5759 206.86C41.6159 207.82 40.3226 208.3 38.6959 208.3C37.0693 208.3 35.7693 207.82 34.7959 206.86C33.8226 205.9 33.3359 204.673 33.3359 203.18C33.3359 201.687 33.8226 200.467 34.7959 199.52C35.7693 198.56 37.0693 198.08 38.6959 198.08C40.3226 198.08 41.6159 198.56 42.5759 199.52C43.5493 200.467 44.0359 201.687 44.0359 203.18C44.0359 204.673 43.5493 205.9 42.5759 206.86ZM38.6959 205.7C39.4026 205.7 39.9626 205.467 40.3759 205C40.7893 204.533 40.9959 203.927 40.9959 203.18C40.9959 202.433 40.7893 201.827 40.3759 201.36C39.9626 200.893 39.4026 200.66 38.6959 200.66C37.9759 200.66 37.4093 200.893 36.9959 201.36C36.5959 201.827 36.3959 202.433 36.3959 203.18C36.3959 203.927 36.5959 204.533 36.9959 205C37.4093 205.467 37.9759 205.7 38.6959 205.7ZM54.6072 206.86C53.6472 207.82 52.3539 208.3 50.7272 208.3C49.1005 208.3 47.8005 207.82 46.8272 206.86C45.8539 205.9 45.3672 204.673 45.3672 203.18C45.3672 201.687 45.8539 200.467 46.8272 199.52C47.8005 198.56 49.1005 198.08 50.7272 198.08C52.3539 198.08 53.6472 198.56 54.6072 199.52C55.5805 200.467 56.0672 201.687 56.0672 203.18C56.0672 204.673 55.5805 205.9 54.6072 206.86ZM50.7272 205.7C51.4339 205.7 51.9939 205.467 52.4072 205C52.8205 204.533 53.0272 203.927 53.0272 203.18C53.0272 202.433 52.8205 201.827 52.4072 201.36C51.9939 200.893 51.4339 200.66 50.7272 200.66C50.0072 200.66 49.4405 200.893 49.0272 201.36C48.6272 201.827 48.4272 202.433 48.4272 203.18C48.4272 203.927 48.6272 204.533 49.0272 205C49.4405 205.467 50.0072 205.7 50.7272 205.7ZM67.6864 208H63.9464L60.8864 203.82V208H57.8264V194H60.8864V202.38L64.0264 198.36H67.6264L63.7864 202.92L67.6864 208ZM78.0531 208.26C76.6531 208.26 75.5465 207.787 74.7331 206.84C73.9198 205.893 73.5131 204.673 73.5131 203.18C73.5131 201.713 73.9331 200.5 74.7731 199.54C75.6131 198.58 76.7198 198.1 78.0931 198.1C78.7731 198.1 79.3798 198.247 79.9131 198.54C80.4465 198.833 80.8465 199.233 81.1131 199.74V198.36H84.1531V208H81.1131V206.64C80.8465 207.12 80.4331 207.513 79.8731 207.82C79.3265 208.113 78.7198 208.26 78.0531 208.26ZM78.9331 205.72C79.6665 205.72 80.2331 205.48 80.6331 205C81.0331 204.52 81.2331 203.913 81.2331 203.18C81.2331 202.46 81.0331 201.86 80.6331 201.38C80.2331 200.9 79.6665 200.66 78.9331 200.66C78.2398 200.66 77.6798 200.893 77.2531 201.36C76.8398 201.827 76.6331 202.433 76.6331 203.18C76.6331 203.927 76.8398 204.54 77.2531 205.02C77.6798 205.487 78.2398 205.72 78.9331 205.72ZM91.6569 208V194H100.217V196.72H94.8969V200.5H100.217V203.16H94.8969V208H91.6569ZM102.377 208V198.36H105.437V200.38C105.597 199.687 105.924 199.153 106.417 198.78C106.924 198.393 107.484 198.2 108.097 198.2C108.417 198.2 108.684 198.227 108.897 198.28V201.12C108.537 201.08 108.231 201.06 107.977 201.06C106.284 201.06 105.437 202.133 105.437 204.28V208H102.377ZM119.963 202.68C119.963 203.08 119.936 203.527 119.883 204.02H112.763C112.789 204.647 113.003 205.133 113.403 205.48C113.803 205.827 114.343 206 115.023 206C115.956 206 116.556 205.7 116.823 205.1H119.823C119.676 206.047 119.156 206.82 118.263 207.42C117.383 208.007 116.303 208.3 115.023 208.3C113.383 208.3 112.089 207.847 111.143 206.94C110.196 206.033 109.723 204.78 109.723 203.18C109.723 201.607 110.196 200.367 111.143 199.46C112.089 198.54 113.349 198.08 114.923 198.08C116.416 198.08 117.629 198.507 118.563 199.36C119.496 200.213 119.963 201.32 119.963 202.68ZM112.763 202.12H116.943C116.929 201.48 116.749 200.987 116.403 200.64C116.056 200.293 115.556 200.12 114.903 200.12C114.249 200.12 113.729 200.307 113.343 200.68C112.969 201.04 112.776 201.52 112.763 202.12ZM131.525 202.68C131.525 203.08 131.498 203.527 131.445 204.02H124.325C124.352 204.647 124.565 205.133 124.965 205.48C125.365 205.827 125.905 206 126.585 206C127.518 206 128.118 205.7 128.385 205.1H131.385C131.238 206.047 130.718 206.82 129.825 207.42C128.945 208.007 127.865 208.3 126.585 208.3C124.945 208.3 123.652 207.847 122.705 206.94C121.758 206.033 121.285 204.78 121.285 203.18C121.285 201.607 121.758 200.367 122.705 199.46C123.652 198.54 124.912 198.08 126.485 198.08C127.978 198.08 129.192 198.507 130.125 199.36C131.058 200.213 131.525 201.32 131.525 202.68ZM124.325 202.12H128.505C128.492 201.48 128.312 200.987 127.965 200.64C127.618 200.293 127.118 200.12 126.465 200.12C125.812 200.12 125.292 200.307 124.905 200.68C124.532 201.04 124.338 201.52 124.325 202.12ZM144.939 208.4C142.672 208.4 140.852 207.713 139.479 206.34C138.106 204.953 137.419 203.173 137.419 201C137.419 198.827 138.106 197.053 139.479 195.68C140.852 194.293 142.672 193.6 144.939 193.6C146.966 193.6 148.612 194.1 149.879 195.1C151.159 196.087 151.892 197.413 152.079 199.08H148.639C148.452 198.28 148.039 197.653 147.399 197.2C146.759 196.733 145.946 196.5 144.959 196.5C143.652 196.5 142.632 196.907 141.899 197.72C141.166 198.52 140.799 199.613 140.799 201C140.799 202.387 141.166 203.487 141.899 204.3C142.632 205.1 143.652 205.5 144.959 205.5C145.946 205.5 146.759 205.273 147.399 204.82C148.039 204.353 148.452 203.72 148.639 202.92H152.079C151.892 204.587 151.159 205.92 149.879 206.92C148.612 207.907 146.966 208.4 144.939 208.4ZM162.381 206.86C161.421 207.82 160.127 208.3 158.501 208.3C156.874 208.3 155.574 207.82 154.601 206.86C153.627 205.9 153.141 204.673 153.141 203.18C153.141 201.687 153.627 200.467 154.601 199.52C155.574 198.56 156.874 198.08 158.501 198.08C160.127 198.08 161.421 198.56 162.381 199.52C163.354 200.467 163.841 201.687 163.841 203.18C163.841 204.673 163.354 205.9 162.381 206.86ZM158.501 205.7C159.207 205.7 159.767 205.467 160.181 205C160.594 204.533 160.801 203.927 160.801 203.18C160.801 202.433 160.594 201.827 160.181 201.36C159.767 200.893 159.207 200.66 158.501 200.66C157.781 200.66 157.214 200.893 156.801 201.36C156.401 201.827 156.201 202.433 156.201 203.18C156.201 203.927 156.401 204.533 156.801 205C157.214 205.467 157.781 205.7 158.501 205.7ZM165.6 208V198.36H168.66V199.76C169.233 198.653 170.273 198.1 171.78 198.1C174.127 198.1 175.3 199.413 175.3 202.04V208H172.22V203.04C172.22 202.213 172.087 201.613 171.82 201.24C171.567 200.867 171.133 200.68 170.52 200.68C169.28 200.68 168.66 201.44 168.66 202.96V208H165.6ZM181.608 208.3C180.222 208.3 179.115 208 178.288 207.4C177.462 206.8 177.048 206.033 177.048 205.1H180.088C180.088 205.433 180.235 205.707 180.528 205.92C180.822 206.133 181.202 206.24 181.668 206.24C182.002 206.24 182.268 206.16 182.468 206C182.682 205.84 182.788 205.62 182.788 205.34C182.788 204.9 182.555 204.627 182.088 204.52L179.728 203.92C178.942 203.72 178.342 203.38 177.928 202.9C177.515 202.42 177.308 201.833 177.308 201.14C177.308 200.233 177.682 199.5 178.428 198.94C179.175 198.367 180.175 198.08 181.428 198.08C182.815 198.08 183.875 198.347 184.608 198.88C185.355 199.413 185.728 200.147 185.728 201.08H182.708C182.708 200.747 182.588 200.487 182.348 200.3C182.122 200.113 181.802 200.02 181.388 200.02C181.055 200.02 180.788 200.093 180.588 200.24C180.388 200.387 180.288 200.58 180.288 200.82C180.288 201.247 180.562 201.533 181.108 201.68L183.388 202.3C184.148 202.5 184.742 202.833 185.168 203.3C185.608 203.753 185.828 204.313 185.828 204.98C185.828 205.98 185.448 206.787 184.688 207.4C183.942 208 182.915 208.3 181.608 208.3ZM191.189 208.26C190.042 208.26 189.162 207.92 188.549 207.24C187.935 206.547 187.629 205.573 187.629 204.32V198.36H190.729V203.64C190.729 205 191.262 205.68 192.329 205.68C193.569 205.68 194.189 204.967 194.189 203.54V198.36H197.229V208H194.189V206.62C193.615 207.713 192.615 208.26 191.189 208.26ZM199.76 208V194H202.82V208H199.76ZM210.406 205.62C210.833 205.62 211.186 205.6 211.466 205.56V208C210.879 208.107 210.199 208.16 209.426 208.16C209.079 208.16 208.773 208.14 208.506 208.1C208.239 208.06 207.939 207.973 207.606 207.84C207.273 207.693 206.999 207.5 206.786 207.26C206.573 207.02 206.386 206.673 206.226 206.22C206.079 205.767 206.006 205.233 206.006 204.62V200.78H204.486V198.36H206.006V195.5H209.066V198.36H211.246V200.78H209.066V203.98C209.066 204.633 209.179 205.073 209.406 205.3C209.633 205.513 209.966 205.62 210.406 205.62ZM216.998 208.26C215.598 208.26 214.492 207.787 213.678 206.84C212.865 205.893 212.458 204.673 212.458 203.18C212.458 201.713 212.878 200.5 213.718 199.54C214.558 198.58 215.665 198.1 217.038 198.1C217.718 198.1 218.325 198.247 218.858 198.54C219.392 198.833 219.792 199.233 220.058 199.74V198.36H223.098V208H220.058V206.64C219.792 207.12 219.378 207.513 218.818 207.82C218.272 208.113 217.665 208.26 216.998 208.26ZM217.878 205.72C218.612 205.72 219.178 205.48 219.578 205C219.978 204.52 220.178 203.913 220.178 203.18C220.178 202.46 219.978 201.86 219.578 201.38C219.178 200.9 218.612 200.66 217.878 200.66C217.185 200.66 216.625 200.893 216.198 201.36C215.785 201.827 215.578 202.433 215.578 203.18C215.578 203.927 215.785 204.54 216.198 205.02C216.625 205.487 217.185 205.72 217.878 205.72ZM230.699 205.62C231.126 205.62 231.479 205.6 231.759 205.56V208C231.172 208.107 230.492 208.16 229.719 208.16C229.372 208.16 229.066 208.14 228.799 208.1C228.532 208.06 228.232 207.973 227.899 207.84C227.566 207.693 227.292 207.5 227.079 207.26C226.866 207.02 226.679 206.673 226.519 206.22C226.372 205.767 226.299 205.233 226.299 204.62V200.78H224.779V198.36H226.299V195.5H229.359V198.36H231.539V200.78H229.359V203.98C229.359 204.633 229.472 205.073 229.699 205.3C229.926 205.513 230.259 205.62 230.699 205.62ZM236.41 196.96C236.05 197.32 235.597 197.5 235.05 197.5C234.503 197.5 234.05 197.32 233.69 196.96C233.343 196.6 233.17 196.16 233.17 195.64C233.17 195.107 233.343 194.66 233.69 194.3C234.05 193.94 234.503 193.76 235.05 193.76C235.597 193.76 236.05 193.947 236.41 194.32C236.77 194.68 236.95 195.12 236.95 195.64C236.95 196.16 236.77 196.6 236.41 196.96ZM233.51 208V198.36H236.57V208H233.51ZM247.576 206.86C246.616 207.82 245.323 208.3 243.696 208.3C242.069 208.3 240.769 207.82 239.796 206.86C238.823 205.9 238.336 204.673 238.336 203.18C238.336 201.687 238.823 200.467 239.796 199.52C240.769 198.56 242.069 198.08 243.696 198.08C245.323 198.08 246.616 198.56 247.576 199.52C248.549 200.467 249.036 201.687 249.036 203.18C249.036 204.673 248.549 205.9 247.576 206.86ZM243.696 205.7C244.403 205.7 244.963 205.467 245.376 205C245.789 204.533 245.996 203.927 245.996 203.18C245.996 202.433 245.789 201.827 245.376 201.36C244.963 200.893 244.403 200.66 243.696 200.66C242.976 200.66 242.409 200.893 241.996 201.36C241.596 201.827 241.396 202.433 241.396 203.18C241.396 203.927 241.596 204.533 241.996 205C242.409 205.467 242.976 205.7 243.696 205.7ZM250.795 208V198.36H253.855V199.76C254.428 198.653 255.468 198.1 256.975 198.1C259.322 198.1 260.495 199.413 260.495 202.04V208H257.415V203.04C257.415 202.213 257.282 201.613 257.015 201.24C256.762 200.867 256.328 200.68 255.715 200.68C254.475 200.68 253.855 201.44 253.855 202.96V208H250.795Z" fill="white"/>
</svg>
