<svg width="233" height="60" viewBox="0 0 233 60" fill="none" xmlns="http://www.w3.org/2000/svg">
<path d="M7.2 13.288C5.196 13.288 3.606 12.67 2.43 11.434C1.266 10.198 0.684 8.62 0.684 6.7C0.684 4.78 1.266 3.202 2.43 1.966C3.606 0.73 5.196 0.112 7.2 0.112C8.856 0.112 10.212 0.52 11.268 1.336C12.336 2.152 12.99 3.22 13.23 4.54H11.43C11.19 3.628 10.71 2.908 9.99 2.38C9.27 1.852 8.346 1.588 7.218 1.588C5.73 1.588 4.554 2.062 3.69 3.01C2.826 3.958 2.394 5.188 2.394 6.7C2.394 8.212 2.826 9.442 3.69 10.39C4.554 11.338 5.73 11.812 7.218 11.812C8.346 11.812 9.27 11.548 9.99 11.02C10.71 10.492 11.19 9.772 11.43 8.86H13.23C12.99 10.18 12.336 11.248 11.268 12.064C10.212 12.88 8.856 13.288 7.2 13.288ZM15.2367 13V4.702H16.8027V6.592C16.9587 5.932 17.2647 5.434 17.7207 5.098C18.1767 4.75 18.6807 4.576 19.2327 4.576C19.5567 4.576 19.8087 4.6 19.9887 4.648V6.088C19.8087 6.052 19.5507 6.034 19.2147 6.034C18.4347 6.034 17.8347 6.346 17.4147 6.97C17.0067 7.594 16.8027 8.392 16.8027 9.364V13H15.2367ZM28.8565 8.374C28.8565 8.602 28.8385 8.914 28.8025 9.31H22.3765C22.3885 10.102 22.6285 10.726 23.0965 11.182C23.5645 11.626 24.1945 11.848 24.9865 11.848C26.0905 11.848 26.8225 11.44 27.1825 10.624H28.7485C28.6045 11.392 28.1845 12.016 27.4885 12.496C26.7925 12.976 25.9585 13.216 24.9865 13.216C23.7145 13.216 22.7005 12.826 21.9445 12.046C21.2005 11.254 20.8285 10.186 20.8285 8.842C20.8285 7.522 21.2005 6.466 21.9445 5.674C22.6885 4.882 23.6785 4.486 24.9145 4.486C26.0905 4.486 27.0385 4.846 27.7585 5.566C28.4905 6.286 28.8565 7.222 28.8565 8.374ZM22.3765 8.104H27.3085C27.3085 7.372 27.0925 6.796 26.6605 6.376C26.2405 5.956 25.6525 5.746 24.8965 5.746C24.1525 5.746 23.5525 5.962 23.0965 6.394C22.6525 6.826 22.4125 7.396 22.3765 8.104ZM34.4599 13.216C33.1759 13.216 32.1679 12.808 31.4359 11.992C30.7159 11.176 30.3559 10.132 30.3559 8.86C30.3559 7.6 30.7279 6.556 31.4719 5.728C32.2279 4.9 33.2359 4.486 34.4959 4.486C35.1439 4.486 35.7259 4.636 36.2419 4.936C36.7579 5.236 37.1479 5.644 37.4119 6.16V4.702H38.9599V13H37.4119V11.542C37.1479 12.046 36.7459 12.454 36.2059 12.766C35.6659 13.066 35.0839 13.216 34.4599 13.216ZM34.6759 11.812C35.5519 11.812 36.2359 11.53 36.7279 10.966C37.2319 10.39 37.4839 9.688 37.4839 8.86C37.4839 8.02 37.2319 7.318 36.7279 6.754C36.2359 6.178 35.5519 5.89 34.6759 5.89C33.8359 5.89 33.1639 6.172 32.6599 6.736C32.1559 7.288 31.9039 7.996 31.9039 8.86C31.9039 9.724 32.1559 10.432 32.6599 10.984C33.1639 11.536 33.8359 11.812 34.6759 11.812ZM45.1306 11.686C45.5626 11.686 45.9106 11.656 46.1746 11.596V12.982C45.8146 13.066 45.3526 13.108 44.7886 13.108C44.5366 13.108 44.3146 13.096 44.1226 13.072C43.9426 13.048 43.7266 12.982 43.4746 12.874C43.2226 12.766 43.0126 12.616 42.8446 12.424C42.6766 12.22 42.5326 11.938 42.4126 11.578C42.2926 11.206 42.2326 10.762 42.2326 10.246V6.016H40.7386V4.702H42.2326V2.074H43.7986V4.702H45.8866V6.016H43.7986V9.904C43.7986 10.636 43.9066 11.116 44.1226 11.344C44.3386 11.572 44.6746 11.686 45.1306 11.686ZM55.3292 8.374C55.3292 8.602 55.3112 8.914 55.2752 9.31H48.8492C48.8612 10.102 49.1012 10.726 49.5692 11.182C50.0372 11.626 50.6672 11.848 51.4592 11.848C52.5632 11.848 53.2952 11.44 53.6552 10.624H55.2212C55.0772 11.392 54.6572 12.016 53.9612 12.496C53.2652 12.976 52.4312 13.216 51.4592 13.216C50.1872 13.216 49.1732 12.826 48.4172 12.046C47.6732 11.254 47.3012 10.186 47.3012 8.842C47.3012 7.522 47.6732 6.466 48.4172 5.674C49.1612 4.882 50.1512 4.486 51.3872 4.486C52.5632 4.486 53.5112 4.846 54.2312 5.566C54.9632 6.286 55.3292 7.222 55.3292 8.374ZM48.8492 8.104H53.7812C53.7812 7.372 53.5652 6.796 53.1332 6.376C52.7132 5.956 52.1252 5.746 51.3692 5.746C50.6252 5.746 50.0252 5.962 49.5692 6.394C49.1252 6.826 48.8852 7.396 48.8492 8.104ZM65.5606 13.216C64.2406 13.216 63.1906 12.802 62.4106 11.974C61.6306 11.134 61.2406 10.09 61.2406 8.842C61.2406 7.594 61.6306 6.556 62.4106 5.728C63.1906 4.9 64.2406 4.486 65.5606 4.486C66.8686 4.486 67.9126 4.906 68.6926 5.746C69.4846 6.574 69.8806 7.606 69.8806 8.842C69.8806 10.09 69.4846 11.134 68.6926 11.974C67.9126 12.802 66.8686 13.216 65.5606 13.216ZM63.5266 10.984C64.0306 11.536 64.7086 11.812 65.5606 11.812C66.4126 11.812 67.0846 11.536 67.5766 10.984C68.0686 10.42 68.3146 9.706 68.3146 8.842C68.3146 7.99 68.0686 7.288 67.5766 6.736C67.0846 6.172 66.4126 5.89 65.5606 5.89C64.7086 5.89 64.0306 6.172 63.5266 6.736C63.0346 7.288 62.7886 7.996 62.7886 8.86C62.7886 9.712 63.0346 10.42 63.5266 10.984ZM73.3759 13L70.3159 4.702H72.0259L74.0239 10.75L76.0399 4.702H77.7139L79.7299 10.75L81.7279 4.702H83.4559L80.3779 13H79.0459L76.8679 6.628L74.7079 13H73.3759ZM84.934 13V4.702H86.5V6.232C86.728 5.692 87.088 5.266 87.58 4.954C88.084 4.642 88.69 4.486 89.398 4.486C91.462 4.486 92.494 5.62 92.494 7.888V13H90.928V8.572C90.928 7.636 90.76 6.946 90.424 6.502C90.1 6.058 89.572 5.836 88.84 5.836C88.084 5.836 87.502 6.082 87.094 6.574C86.698 7.066 86.5 7.744 86.5 8.608V13H84.934ZM103.516 1.696C103.324 1.696 103.15 1.714 102.994 1.75C102.85 1.774 102.694 1.834 102.526 1.93C102.37 2.026 102.244 2.182 102.148 2.398C102.064 2.614 102.022 2.89 102.022 3.226V4.702H104.362V6.016H102.022V13H100.456V6.016H98.6925V4.702H100.456V3.262C100.456 2.77 100.516 2.338 100.636 1.966C100.768 1.594 100.93 1.306 101.122 1.102C101.314 0.886 101.536 0.718 101.788 0.598C102.04 0.465999 102.268 0.381999 102.472 0.346C102.676 0.31 102.886 0.291999 103.102 0.291999C103.642 0.291999 104.062 0.351999 104.362 0.471999V1.822C104.05 1.738 103.768 1.696 103.516 1.696ZM109.453 13.216C108.133 13.216 107.083 12.802 106.303 11.974C105.523 11.134 105.133 10.09 105.133 8.842C105.133 7.594 105.523 6.556 106.303 5.728C107.083 4.9 108.133 4.486 109.453 4.486C110.761 4.486 111.805 4.906 112.585 5.746C113.377 6.574 113.773 7.606 113.773 8.842C113.773 10.09 113.377 11.134 112.585 11.974C111.805 12.802 110.761 13.216 109.453 13.216ZM107.419 10.984C107.923 11.536 108.601 11.812 109.453 11.812C110.305 11.812 110.977 11.536 111.469 10.984C111.961 10.42 112.207 9.706 112.207 8.842C112.207 7.99 111.961 7.288 111.469 6.736C110.977 6.172 110.305 5.89 109.453 5.89C108.601 5.89 107.923 6.172 107.419 6.736C106.927 7.288 106.681 7.996 106.681 8.86C106.681 9.712 106.927 10.42 107.419 10.984ZM119.561 13.216C118.241 13.216 117.191 12.802 116.411 11.974C115.631 11.134 115.241 10.09 115.241 8.842C115.241 7.594 115.631 6.556 116.411 5.728C117.191 4.9 118.241 4.486 119.561 4.486C120.869 4.486 121.913 4.906 122.693 5.746C123.485 6.574 123.881 7.606 123.881 8.842C123.881 10.09 123.485 11.134 122.693 11.974C121.913 12.802 120.869 13.216 119.561 13.216ZM117.527 10.984C118.031 11.536 118.709 11.812 119.561 11.812C120.413 11.812 121.085 11.536 121.577 10.984C122.069 10.42 122.315 9.706 122.315 8.842C122.315 7.99 122.069 7.288 121.577 6.736C121.085 6.172 120.413 5.89 119.561 5.89C118.709 5.89 118.031 6.172 117.527 6.736C117.035 7.288 116.789 7.996 116.789 8.86C116.789 9.712 117.035 10.42 117.527 10.984ZM132.421 0.399999H133.987V13H132.439V11.542C132.175 12.046 131.773 12.454 131.233 12.766C130.693 13.066 130.111 13.216 129.487 13.216C128.203 13.216 127.195 12.808 126.463 11.992C125.743 11.176 125.383 10.132 125.383 8.86C125.383 7.6 125.755 6.556 126.499 5.728C127.255 4.9 128.263 4.486 129.523 4.486C130.171 4.486 130.753 4.636 131.269 4.936C131.785 5.236 132.175 5.644 132.439 6.16V5.296H132.421V0.399999ZM129.703 11.812C130.579 11.812 131.263 11.53 131.755 10.966C132.259 10.39 132.511 9.688 132.511 8.86C132.511 8.02 132.259 7.318 131.755 6.754C131.263 6.178 130.579 5.89 129.703 5.89C128.863 5.89 128.191 6.172 127.687 6.736C127.183 7.288 126.931 7.996 126.931 8.86C126.931 9.724 127.183 10.432 127.687 10.984C128.191 11.536 128.863 11.812 129.703 11.812ZM145.845 4.486C147.033 4.486 147.999 4.894 148.743 5.71C149.487 6.514 149.859 7.564 149.859 8.86C149.859 10.132 149.475 11.176 148.707 11.992C147.939 12.808 146.955 13.216 145.755 13.216C145.119 13.216 144.531 13.066 143.991 12.766C143.463 12.466 143.067 12.058 142.803 11.542V13H141.237V0.399999H142.803V6.16C143.067 5.644 143.469 5.236 144.009 4.936C144.561 4.636 145.173 4.486 145.845 4.486ZM145.539 11.812C146.343 11.812 147.003 11.536 147.519 10.984C148.035 10.432 148.293 9.724 148.293 8.86C148.293 7.996 148.035 7.288 147.519 6.736C147.003 6.172 146.343 5.89 145.539 5.89C144.711 5.89 144.033 6.166 143.505 6.718C142.989 7.27 142.731 7.984 142.731 8.86C142.731 9.724 142.989 10.432 143.505 10.984C144.033 11.536 144.711 11.812 145.539 11.812ZM154.931 13.216C153.971 13.216 153.203 12.928 152.627 12.352C152.063 11.764 151.781 10.918 151.781 9.814V4.702H153.347V9.436C153.347 11.056 154.019 11.866 155.363 11.866C156.155 11.866 156.743 11.614 157.127 11.11C157.523 10.594 157.721 9.97 157.721 9.238V4.702H159.287V13H157.721V11.488C157.493 12.016 157.133 12.436 156.641 12.748C156.161 13.06 155.591 13.216 154.931 13.216ZM164.769 13.216C163.725 13.216 162.885 12.958 162.249 12.442C161.625 11.914 161.313 11.272 161.313 10.516H162.861C162.861 10.936 163.041 11.284 163.401 11.56C163.761 11.824 164.241 11.956 164.841 11.956C165.309 11.956 165.681 11.848 165.957 11.632C166.233 11.416 166.371 11.122 166.371 10.75C166.371 10.162 166.101 9.802 165.561 9.67L163.347 9.094C162.159 8.77 161.565 8.026 161.565 6.862C161.565 6.178 161.853 5.614 162.429 5.17C163.005 4.714 163.755 4.486 164.679 4.486C165.687 4.486 166.467 4.72 167.019 5.188C167.583 5.644 167.865 6.244 167.865 6.988H166.317C166.317 6.592 166.167 6.28 165.867 6.052C165.567 5.812 165.147 5.692 164.607 5.692C164.175 5.692 163.815 5.794 163.527 5.998C163.251 6.19 163.113 6.454 163.113 6.79C163.113 7.354 163.419 7.708 164.031 7.852L166.101 8.428C166.689 8.584 167.145 8.86 167.469 9.256C167.793 9.652 167.955 10.102 167.955 10.606C167.955 11.398 167.673 12.034 167.109 12.514C166.545 12.982 165.765 13.216 164.769 13.216ZM170.874 3.28C170.502 3.28 170.196 3.16 169.956 2.92C169.716 2.68 169.596 2.38 169.596 2.02C169.596 1.66 169.716 1.36 169.956 1.12C170.196 0.867999 170.502 0.741999 170.874 0.741999C171.234 0.741999 171.534 0.867999 171.774 1.12C172.014 1.36 172.134 1.66 172.134 2.02C172.134 2.38 172.014 2.68 171.774 2.92C171.534 3.16 171.234 3.28 170.874 3.28ZM170.082 13V4.702H171.648V13H170.082ZM174.354 13V4.702H175.92V6.232C176.148 5.692 176.508 5.266 177 4.954C177.504 4.642 178.11 4.486 178.818 4.486C180.882 4.486 181.914 5.62 181.914 7.888V13H180.348V8.572C180.348 7.636 180.18 6.946 179.844 6.502C179.52 6.058 178.992 5.836 178.26 5.836C177.504 5.836 176.922 6.082 176.514 6.574C176.118 7.066 175.92 7.744 175.92 8.608V13H174.354ZM191.894 8.374C191.894 8.602 191.876 8.914 191.84 9.31H185.414C185.426 10.102 185.666 10.726 186.134 11.182C186.602 11.626 187.232 11.848 188.024 11.848C189.128 11.848 189.86 11.44 190.22 10.624H191.786C191.642 11.392 191.222 12.016 190.526 12.496C189.83 12.976 188.996 13.216 188.024 13.216C186.752 13.216 185.738 12.826 184.982 12.046C184.238 11.254 183.866 10.186 183.866 8.842C183.866 7.522 184.238 6.466 184.982 5.674C185.726 4.882 186.716 4.486 187.952 4.486C189.128 4.486 190.076 4.846 190.796 5.566C191.528 6.286 191.894 7.222 191.894 8.374ZM185.414 8.104H190.346C190.346 7.372 190.13 6.796 189.698 6.376C189.278 5.956 188.69 5.746 187.934 5.746C187.19 5.746 186.59 5.962 186.134 6.394C185.69 6.826 185.45 7.396 185.414 8.104ZM196.708 13.216C195.664 13.216 194.824 12.958 194.188 12.442C193.564 11.914 193.252 11.272 193.252 10.516H194.8C194.8 10.936 194.98 11.284 195.34 11.56C195.7 11.824 196.18 11.956 196.78 11.956C197.248 11.956 197.62 11.848 197.896 11.632C198.172 11.416 198.31 11.122 198.31 10.75C198.31 10.162 198.04 9.802 197.5 9.67L195.286 9.094C194.098 8.77 193.504 8.026 193.504 6.862C193.504 6.178 193.792 5.614 194.368 5.17C194.944 4.714 195.694 4.486 196.618 4.486C197.626 4.486 198.406 4.72 198.958 5.188C199.522 5.644 199.804 6.244 199.804 6.988H198.256C198.256 6.592 198.106 6.28 197.806 6.052C197.506 5.812 197.086 5.692 196.546 5.692C196.114 5.692 195.754 5.794 195.466 5.998C195.19 6.19 195.052 6.454 195.052 6.79C195.052 7.354 195.358 7.708 195.97 7.852L198.04 8.428C198.628 8.584 199.084 8.86 199.408 9.256C199.732 9.652 199.894 10.102 199.894 10.606C199.894 11.398 199.612 12.034 199.048 12.514C198.484 12.982 197.704 13.216 196.708 13.216ZM204.812 13.216C203.768 13.216 202.928 12.958 202.292 12.442C201.668 11.914 201.356 11.272 201.356 10.516H202.904C202.904 10.936 203.084 11.284 203.444 11.56C203.804 11.824 204.284 11.956 204.884 11.956C205.352 11.956 205.724 11.848 206 11.632C206.276 11.416 206.414 11.122 206.414 10.75C206.414 10.162 206.144 9.802 205.604 9.67L203.39 9.094C202.202 8.77 201.608 8.026 201.608 6.862C201.608 6.178 201.896 5.614 202.472 5.17C203.048 4.714 203.798 4.486 204.722 4.486C205.73 4.486 206.51 4.72 207.062 5.188C207.626 5.644 207.908 6.244 207.908 6.988H206.36C206.36 6.592 206.21 6.28 205.91 6.052C205.61 5.812 205.19 5.692 204.65 5.692C204.218 5.692 203.858 5.794 203.57 5.998C203.294 6.19 203.156 6.454 203.156 6.79C203.156 7.354 203.462 7.708 204.074 7.852L206.144 8.428C206.732 8.584 207.188 8.86 207.512 9.256C207.836 9.652 207.998 10.102 207.998 10.606C207.998 11.398 207.716 12.034 207.152 12.514C206.588 12.982 205.808 13.216 204.812 13.216ZM219.286 4.486C220.474 4.486 221.44 4.894 222.184 5.71C222.928 6.514 223.3 7.564 223.3 8.86C223.3 10.132 222.916 11.176 222.148 11.992C221.38 12.808 220.396 13.216 219.196 13.216C218.56 13.216 217.972 13.066 217.432 12.766C216.904 12.466 216.508 12.058 216.244 11.542V13H214.678V0.399999H216.244V6.16C216.508 5.644 216.91 5.236 217.45 4.936C218.002 4.636 218.614 4.486 219.286 4.486ZM218.98 11.812C219.784 11.812 220.444 11.536 220.96 10.984C221.476 10.432 221.734 9.724 221.734 8.86C221.734 7.996 221.476 7.288 220.96 6.736C220.444 6.172 219.784 5.89 218.98 5.89C218.152 5.89 217.474 6.166 216.946 6.718C216.43 7.27 216.172 7.984 216.172 8.86C216.172 9.724 216.43 10.432 216.946 10.984C217.474 11.536 218.152 11.812 218.98 11.812ZM231.253 4.702H232.819V13.162C232.819 14.47 232.441 15.466 231.685 16.15C231.013 16.75 230.107 17.05 228.967 17.05C227.767 17.05 226.831 16.762 226.159 16.186C225.547 15.67 225.235 14.956 225.223 14.044H226.807C226.867 15.172 227.581 15.736 228.949 15.736C230.485 15.736 231.253 14.842 231.253 13.054V11.506C230.701 12.646 229.741 13.216 228.373 13.216C227.329 13.216 226.543 12.898 226.015 12.262C225.487 11.614 225.223 10.744 225.223 9.652V4.702H226.789V9.328C226.789 10.132 226.945 10.75 227.257 11.182C227.581 11.602 228.127 11.812 228.895 11.812C229.651 11.812 230.233 11.542 230.641 11.002C231.049 10.45 231.253 9.772 231.253 8.968V4.702ZM4.41 34.216C3.45 34.216 2.682 33.928 2.106 33.352C1.542 32.764 1.26 31.918 1.26 30.814V25.702H2.826V30.436C2.826 32.056 3.498 32.866 4.842 32.866C5.634 32.866 6.222 32.614 6.606 32.11C7.002 31.594 7.2 30.97 7.2 30.238V25.702H8.766V34H7.2V32.488C6.972 33.016 6.612 33.436 6.12 33.748C5.64 34.06 5.07 34.216 4.41 34.216ZM14.2474 34.216C13.2034 34.216 12.3634 33.958 11.7274 33.442C11.1034 32.914 10.7914 32.272 10.7914 31.516H12.3394C12.3394 31.936 12.5194 32.284 12.8794 32.56C13.2394 32.824 13.7194 32.956 14.3194 32.956C14.7874 32.956 15.1594 32.848 15.4354 32.632C15.7114 32.416 15.8494 32.122 15.8494 31.75C15.8494 31.162 15.5794 30.802 15.0394 30.67L12.8254 30.094C11.6374 29.77 11.0434 29.026 11.0434 27.862C11.0434 27.178 11.3314 26.614 11.9074 26.17C12.4834 25.714 13.2334 25.486 14.1574 25.486C15.1654 25.486 15.9454 25.72 16.4974 26.188C17.0614 26.644 17.3434 27.244 17.3434 27.988H15.7954C15.7954 27.592 15.6454 27.28 15.3454 27.052C15.0454 26.812 14.6254 26.692 14.0854 26.692C13.6534 26.692 13.2934 26.794 13.0054 26.998C12.7294 27.19 12.5914 27.454 12.5914 27.79C12.5914 28.354 12.8974 28.708 13.5094 28.852L15.5794 29.428C16.1674 29.584 16.6234 29.86 16.9474 30.256C17.2714 30.652 17.4334 31.102 17.4334 31.606C17.4334 32.398 17.1514 33.034 16.5874 33.514C16.0234 33.982 15.2434 34.216 14.2474 34.216ZM20.3529 24.28C19.9809 24.28 19.6749 24.16 19.4349 23.92C19.1949 23.68 19.0749 23.38 19.0749 23.02C19.0749 22.66 19.1949 22.36 19.4349 22.12C19.6749 21.868 19.9809 21.742 20.3529 21.742C20.7129 21.742 21.0129 21.868 21.2529 22.12C21.4929 22.36 21.6129 22.66 21.6129 23.02C21.6129 23.38 21.4929 23.68 21.2529 23.92C21.0129 24.16 20.7129 24.28 20.3529 24.28ZM19.5609 34V25.702H21.1269V34H19.5609ZM23.8324 34V25.702H25.3984V27.232C25.6264 26.692 25.9864 26.266 26.4784 25.954C26.9824 25.642 27.5884 25.486 28.2964 25.486C30.3604 25.486 31.3924 26.62 31.3924 28.888V34H29.8264V29.572C29.8264 28.636 29.6584 27.946 29.3224 27.502C28.9984 27.058 28.4704 26.836 27.7384 26.836C26.9824 26.836 26.4004 27.082 25.9924 27.574C25.5964 28.066 25.3984 28.744 25.3984 29.608V34H23.8324ZM40.4002 25.702H41.9482V33.784C41.9482 35.368 41.4682 36.532 40.5082 37.276C39.8122 37.792 38.8582 38.05 37.6462 38.05C36.4342 38.05 35.4562 37.78 34.7122 37.24C33.9202 36.688 33.5062 35.956 33.4702 35.044H35.1082C35.1802 35.548 35.4262 35.956 35.8462 36.268C36.2782 36.58 36.8782 36.736 37.6462 36.736C39.4822 36.736 40.4002 35.788 40.4002 33.892V32.542C40.1482 33.058 39.7462 33.466 39.1942 33.766C38.6422 34.066 38.0602 34.216 37.4482 34.216C36.2002 34.216 35.2042 33.802 34.4602 32.974C33.7162 32.146 33.3442 31.108 33.3442 29.86C33.3442 28.612 33.7282 27.574 34.4962 26.746C35.2762 25.906 36.2722 25.486 37.4842 25.486C38.1202 25.486 38.6962 25.636 39.2122 25.936C39.7402 26.236 40.1362 26.644 40.4002 27.16V25.702ZM37.6642 32.812C38.5162 32.812 39.1942 32.53 39.6982 31.966C40.2142 31.402 40.4722 30.7 40.4722 29.86C40.4722 29.02 40.2142 28.318 39.6982 27.754C39.1942 27.178 38.5162 26.89 37.6642 26.89C36.8482 26.89 36.1822 27.172 35.6662 27.736C35.1502 28.288 34.8922 28.996 34.8922 29.86C34.8922 30.712 35.1502 31.42 35.6662 31.984C36.1822 32.536 36.8482 32.812 37.6642 32.812ZM55.1377 25.702H56.7037V34.162C56.7037 35.47 56.3257 36.466 55.5697 37.15C54.8977 37.75 53.9917 38.05 52.8517 38.05C51.6517 38.05 50.7157 37.762 50.0437 37.186C49.4317 36.67 49.1197 35.956 49.1077 35.044H50.6917C50.7517 36.172 51.4657 36.736 52.8337 36.736C54.3697 36.736 55.1377 35.842 55.1377 34.054V32.506C54.5857 33.646 53.6257 34.216 52.2577 34.216C51.2137 34.216 50.4277 33.898 49.8997 33.262C49.3717 32.614 49.1077 31.744 49.1077 30.652V25.702H50.6737V30.328C50.6737 31.132 50.8297 31.75 51.1417 32.182C51.4657 32.602 52.0117 32.812 52.7797 32.812C53.5357 32.812 54.1177 32.542 54.5257 32.002C54.9337 31.45 55.1377 30.772 55.1377 29.968V25.702ZM63.0645 34.216C61.7445 34.216 60.6945 33.802 59.9145 32.974C59.1345 32.134 58.7445 31.09 58.7445 29.842C58.7445 28.594 59.1345 27.556 59.9145 26.728C60.6945 25.9 61.7445 25.486 63.0645 25.486C64.3725 25.486 65.4165 25.906 66.1965 26.746C66.9885 27.574 67.3845 28.606 67.3845 29.842C67.3845 31.09 66.9885 32.134 66.1965 32.974C65.4165 33.802 64.3725 34.216 63.0645 34.216ZM61.0305 31.984C61.5345 32.536 62.2125 32.812 63.0645 32.812C63.9165 32.812 64.5885 32.536 65.0805 31.984C65.5725 31.42 65.8185 30.706 65.8185 29.842C65.8185 28.99 65.5725 28.288 65.0805 27.736C64.5885 27.172 63.9165 26.89 63.0645 26.89C62.2125 26.89 61.5345 27.172 61.0305 27.736C60.5385 28.288 60.2925 28.996 60.2925 29.86C60.2925 30.712 60.5385 31.42 61.0305 31.984ZM72.4725 34.216C71.5125 34.216 70.7445 33.928 70.1685 33.352C69.6045 32.764 69.3225 31.918 69.3225 30.814V25.702H70.8885V30.436C70.8885 32.056 71.5605 32.866 72.9045 32.866C73.6965 32.866 74.2845 32.614 74.6685 32.11C75.0645 31.594 75.2625 30.97 75.2625 30.238V25.702H76.8285V34H75.2625V32.488C75.0345 33.016 74.6745 33.436 74.1825 33.748C73.7025 34.06 73.1325 34.216 72.4725 34.216ZM79.5199 34V25.702H81.0859V27.592C81.2419 26.932 81.5479 26.434 82.0039 26.098C82.4599 25.75 82.9639 25.576 83.5159 25.576C83.8399 25.576 84.0919 25.6 84.2719 25.648V27.088C84.0919 27.052 83.8339 27.034 83.4979 27.034C82.7179 27.034 82.1179 27.346 81.6979 27.97C81.2899 28.594 81.0859 29.392 81.0859 30.364V34H79.5199ZM94.0326 34.216C92.7726 34.216 91.7706 33.82 91.0266 33.028C90.2826 32.224 89.9106 31.168 89.9106 29.86C89.9106 28.552 90.2826 27.502 91.0266 26.71C91.7706 25.906 92.7726 25.504 94.0326 25.504C95.1486 25.504 96.0486 25.786 96.7326 26.35C97.4166 26.902 97.8066 27.646 97.9026 28.582H96.3366C96.1206 27.466 95.3526 26.908 94.0326 26.908C93.2286 26.908 92.5986 27.172 92.1426 27.7C91.6866 28.216 91.4586 28.936 91.4586 29.86C91.4586 30.784 91.6866 31.51 92.1426 32.038C92.5986 32.554 93.2286 32.812 94.0326 32.812C95.3406 32.812 96.1086 32.272 96.3366 31.192H97.9026C97.8066 32.116 97.4166 32.854 96.7326 33.406C96.0486 33.946 95.1486 34.216 94.0326 34.216ZM103.688 34.216C102.368 34.216 101.318 33.802 100.538 32.974C99.7576 32.134 99.3676 31.09 99.3676 29.842C99.3676 28.594 99.7576 27.556 100.538 26.728C101.318 25.9 102.368 25.486 103.688 25.486C104.996 25.486 106.04 25.906 106.82 26.746C107.612 27.574 108.008 28.606 108.008 29.842C108.008 31.09 107.612 32.134 106.82 32.974C106.04 33.802 104.996 34.216 103.688 34.216ZM101.654 31.984C102.158 32.536 102.836 32.812 103.688 32.812C104.54 32.812 105.212 32.536 105.704 31.984C106.196 31.42 106.442 30.706 106.442 29.842C106.442 28.99 106.196 28.288 105.704 27.736C105.212 27.172 104.54 26.89 103.688 26.89C102.836 26.89 102.158 27.172 101.654 27.736C101.162 28.288 100.916 28.996 100.916 29.86C100.916 30.712 101.162 31.42 101.654 31.984ZM113.795 34.216C112.475 34.216 111.425 33.802 110.645 32.974C109.865 32.134 109.475 31.09 109.475 29.842C109.475 28.594 109.865 27.556 110.645 26.728C111.425 25.9 112.475 25.486 113.795 25.486C115.103 25.486 116.147 25.906 116.927 26.746C117.719 27.574 118.115 28.606 118.115 29.842C118.115 31.09 117.719 32.134 116.927 32.974C116.147 33.802 115.103 34.216 113.795 34.216ZM111.761 31.984C112.265 32.536 112.943 32.812 113.795 32.812C114.647 32.812 115.319 32.536 115.811 31.984C116.303 31.42 116.549 30.706 116.549 29.842C116.549 28.99 116.303 28.288 115.811 27.736C115.319 27.172 114.647 26.89 113.795 26.89C112.943 26.89 112.265 27.172 111.761 27.736C111.269 28.288 111.023 28.996 111.023 29.86C111.023 30.712 111.269 31.42 111.761 31.984ZM127.397 25.702L123.365 29.716L127.397 34H125.327L121.709 30.094V34H120.143V21.4H121.709V29.482L125.381 25.702H127.397ZM130.023 24.28C129.651 24.28 129.345 24.16 129.105 23.92C128.865 23.68 128.745 23.38 128.745 23.02C128.745 22.66 128.865 22.36 129.105 22.12C129.345 21.868 129.651 21.742 130.023 21.742C130.383 21.742 130.683 21.868 130.923 22.12C131.163 22.36 131.283 22.66 131.283 23.02C131.283 23.38 131.163 23.68 130.923 23.92C130.683 24.16 130.383 24.28 130.023 24.28ZM129.231 34V25.702H130.797V34H129.231ZM133.502 34V25.702H135.068V27.232C135.296 26.692 135.656 26.266 136.148 25.954C136.652 25.642 137.258 25.486 137.966 25.486C140.03 25.486 141.062 26.62 141.062 28.888V34H139.496V29.572C139.496 28.636 139.328 27.946 138.992 27.502C138.668 27.058 138.14 26.836 137.408 26.836C136.652 26.836 136.07 27.082 135.662 27.574C135.266 28.066 135.068 28.744 135.068 29.608V34H133.502ZM150.07 25.702H151.618V33.784C151.618 35.368 151.138 36.532 150.178 37.276C149.482 37.792 148.528 38.05 147.316 38.05C146.104 38.05 145.126 37.78 144.382 37.24C143.59 36.688 143.176 35.956 143.14 35.044H144.778C144.85 35.548 145.096 35.956 145.516 36.268C145.948 36.58 146.548 36.736 147.316 36.736C149.152 36.736 150.07 35.788 150.07 33.892V32.542C149.818 33.058 149.416 33.466 148.864 33.766C148.312 34.066 147.73 34.216 147.118 34.216C145.87 34.216 144.874 33.802 144.13 32.974C143.386 32.146 143.014 31.108 143.014 29.86C143.014 28.612 143.398 27.574 144.166 26.746C144.946 25.906 145.942 25.486 147.154 25.486C147.79 25.486 148.366 25.636 148.882 25.936C149.41 26.236 149.806 26.644 150.07 27.16V25.702ZM147.334 32.812C148.186 32.812 148.864 32.53 149.368 31.966C149.884 31.402 150.142 30.7 150.142 29.86C150.142 29.02 149.884 28.318 149.368 27.754C148.864 27.178 148.186 26.89 147.334 26.89C146.518 26.89 145.852 27.172 145.336 27.736C144.82 28.288 144.562 28.996 144.562 29.86C144.562 30.712 144.82 31.42 145.336 31.984C145.852 32.536 146.518 32.812 147.334 32.812ZM161.658 34.216C160.614 34.216 159.774 33.958 159.138 33.442C158.514 32.914 158.202 32.272 158.202 31.516H159.75C159.75 31.936 159.93 32.284 160.29 32.56C160.65 32.824 161.13 32.956 161.73 32.956C162.198 32.956 162.57 32.848 162.846 32.632C163.122 32.416 163.26 32.122 163.26 31.75C163.26 31.162 162.99 30.802 162.45 30.67L160.236 30.094C159.048 29.77 158.454 29.026 158.454 27.862C158.454 27.178 158.742 26.614 159.318 26.17C159.894 25.714 160.644 25.486 161.568 25.486C162.576 25.486 163.356 25.72 163.908 26.188C164.472 26.644 164.754 27.244 164.754 27.988H163.206C163.206 27.592 163.056 27.28 162.756 27.052C162.456 26.812 162.036 26.692 161.496 26.692C161.064 26.692 160.704 26.794 160.416 26.998C160.14 27.19 160.002 27.454 160.002 27.79C160.002 28.354 160.308 28.708 160.92 28.852L162.99 29.428C163.578 29.584 164.034 29.86 164.358 30.256C164.682 30.652 164.844 31.102 164.844 31.606C164.844 32.398 164.562 33.034 163.998 33.514C163.434 33.982 162.654 34.216 161.658 34.216ZM174.225 25.702L170.193 29.716L174.225 34H172.155L168.537 30.094V34H166.971V21.4H168.537V29.482L172.209 25.702H174.225ZM176.851 24.28C176.479 24.28 176.173 24.16 175.933 23.92C175.693 23.68 175.573 23.38 175.573 23.02C175.573 22.66 175.693 22.36 175.933 22.12C176.173 21.868 176.479 21.742 176.851 21.742C177.211 21.742 177.511 21.868 177.751 22.12C177.991 22.36 178.111 22.66 178.111 23.02C178.111 23.38 177.991 23.68 177.751 23.92C177.511 24.16 177.211 24.28 176.851 24.28ZM176.059 34V25.702H177.625V34H176.059ZM180.33 34V21.4H181.896V34H180.33ZM184.602 34V21.4H186.168V34H184.602ZM196.864 34.216C195.58 34.216 194.572 33.808 193.84 32.992C193.12 32.176 192.76 31.132 192.76 29.86C192.76 28.6 193.132 27.556 193.876 26.728C194.632 25.9 195.64 25.486 196.9 25.486C197.548 25.486 198.13 25.636 198.646 25.936C199.162 26.236 199.552 26.644 199.816 27.16V25.702H201.364V34H199.816V32.542C199.552 33.046 199.15 33.454 198.61 33.766C198.07 34.066 197.488 34.216 196.864 34.216ZM197.08 32.812C197.956 32.812 198.64 32.53 199.132 31.966C199.636 31.39 199.888 30.688 199.888 29.86C199.888 29.02 199.636 28.318 199.132 27.754C198.64 27.178 197.956 26.89 197.08 26.89C196.24 26.89 195.568 27.172 195.064 27.736C194.56 28.288 194.308 28.996 194.308 29.86C194.308 30.724 194.56 31.432 195.064 31.984C195.568 32.536 196.24 32.812 197.08 32.812ZM204.061 34V25.702H205.627V27.232C205.855 26.692 206.215 26.266 206.707 25.954C207.211 25.642 207.817 25.486 208.525 25.486C210.589 25.486 211.621 26.62 211.621 28.888V34H210.055V29.572C210.055 28.636 209.887 27.946 209.551 27.502C209.227 27.058 208.699 26.836 207.967 26.836C207.211 26.836 206.629 27.082 206.221 27.574C205.825 28.066 205.627 28.744 205.627 29.608V34H204.061ZM220.611 21.4H222.177V34H220.629V32.542C220.365 33.046 219.963 33.454 219.423 33.766C218.883 34.066 218.301 34.216 217.677 34.216C216.393 34.216 215.385 33.808 214.653 32.992C213.933 32.176 213.573 31.132 213.573 29.86C213.573 28.6 213.945 27.556 214.689 26.728C215.445 25.9 216.453 25.486 217.713 25.486C218.361 25.486 218.943 25.636 219.459 25.936C219.975 26.236 220.365 26.644 220.629 27.16V26.296H220.611V21.4ZM217.893 32.812C218.769 32.812 219.453 32.53 219.945 31.966C220.449 31.39 220.701 30.688 220.701 29.86C220.701 29.02 220.449 28.318 219.945 27.754C219.453 27.178 218.769 26.89 217.893 26.89C217.053 26.89 216.381 27.172 215.877 27.736C215.373 28.288 215.121 28.996 215.121 29.86C215.121 30.724 215.373 31.432 215.877 31.984C216.381 32.536 217.053 32.812 217.893 32.812ZM4.14 55.216C3.096 55.216 2.256 54.958 1.62 54.442C0.996 53.914 0.684 53.272 0.684 52.516H2.232C2.232 52.936 2.412 53.284 2.772 53.56C3.132 53.824 3.612 53.956 4.212 53.956C4.68 53.956 5.052 53.848 5.328 53.632C5.604 53.416 5.742 53.122 5.742 52.75C5.742 52.162 5.472 51.802 4.932 51.67L2.718 51.094C1.53 50.77 0.936 50.026 0.936 48.862C0.936 48.178 1.224 47.614 1.8 47.17C2.376 46.714 3.126 46.486 4.05 46.486C5.058 46.486 5.838 46.72 6.39 47.188C6.954 47.644 7.236 48.244 7.236 48.988H5.688C5.688 48.592 5.538 48.28 5.238 48.052C4.938 47.812 4.518 47.692 3.978 47.692C3.546 47.692 3.186 47.794 2.898 47.998C2.622 48.19 2.484 48.454 2.484 48.79C2.484 49.354 2.79 49.708 3.402 49.852L5.472 50.428C6.06 50.584 6.516 50.86 6.84 51.256C7.164 51.652 7.326 52.102 7.326 52.606C7.326 53.398 7.044 54.034 6.48 54.514C5.916 54.982 5.136 55.216 4.14 55.216ZM16.8155 50.374C16.8155 50.602 16.7975 50.914 16.7615 51.31H10.3355C10.3475 52.102 10.5875 52.726 11.0555 53.182C11.5235 53.626 12.1535 53.848 12.9455 53.848C14.0495 53.848 14.7815 53.44 15.1415 52.624H16.7075C16.5635 53.392 16.1435 54.016 15.4475 54.496C14.7515 54.976 13.9175 55.216 12.9455 55.216C11.6735 55.216 10.6595 54.826 9.90352 54.046C9.15952 53.254 8.78752 52.186 8.78752 50.842C8.78752 49.522 9.15952 48.466 9.90352 47.674C10.6475 46.882 11.6375 46.486 12.8735 46.486C14.0495 46.486 14.9975 46.846 15.7175 47.566C16.4495 48.286 16.8155 49.222 16.8155 50.374ZM10.3355 50.104H15.2675C15.2675 49.372 15.0515 48.796 14.6195 48.376C14.1995 47.956 13.6115 47.746 12.8555 47.746C12.1115 47.746 11.5115 47.962 11.0555 48.394C10.6115 48.826 10.3715 49.396 10.3355 50.104ZM18.8402 55V42.4H20.4062V55H18.8402ZM23.1117 55V42.4H24.6777V55H23.1117ZM28.1752 45.28C27.8032 45.28 27.4972 45.16 27.2572 44.92C27.0172 44.68 26.8972 44.38 26.8972 44.02C26.8972 43.66 27.0172 43.36 27.2572 43.12C27.4972 42.868 27.8032 42.742 28.1752 42.742C28.5352 42.742 28.8352 42.868 29.0752 43.12C29.3152 43.36 29.4352 43.66 29.4352 44.02C29.4352 44.38 29.3152 44.68 29.0752 44.92C28.8352 45.16 28.5352 45.28 28.1752 45.28ZM27.3832 55V46.702H28.9492V55H27.3832ZM31.6547 55V46.702H33.2207V48.232C33.4487 47.692 33.8087 47.266 34.3007 46.954C34.8047 46.642 35.4107 46.486 36.1187 46.486C38.1827 46.486 39.2147 47.62 39.2147 49.888V55H37.6487V50.572C37.6487 49.636 37.4807 48.946 37.1447 48.502C36.8207 48.058 36.2927 47.836 35.5607 47.836C34.8047 47.836 34.2227 48.082 33.8147 48.574C33.4187 49.066 33.2207 49.744 33.2207 50.608V55H31.6547ZM48.2224 46.702H49.7704V54.784C49.7704 56.368 49.2904 57.532 48.3304 58.276C47.6344 58.792 46.6804 59.05 45.4684 59.05C44.2564 59.05 43.2784 58.78 42.5344 58.24C41.7424 57.688 41.3284 56.956 41.2924 56.044H42.9304C43.0024 56.548 43.2484 56.956 43.6684 57.268C44.1004 57.58 44.7004 57.736 45.4684 57.736C47.3044 57.736 48.2224 56.788 48.2224 54.892V53.542C47.9704 54.058 47.5684 54.466 47.0164 54.766C46.4644 55.066 45.8824 55.216 45.2704 55.216C44.0224 55.216 43.0264 54.802 42.2824 53.974C41.5384 53.146 41.1664 52.108 41.1664 50.86C41.1664 49.612 41.5504 48.574 42.3184 47.746C43.0984 46.906 44.0944 46.486 45.3064 46.486C45.9424 46.486 46.5184 46.636 47.0344 46.936C47.5624 47.236 47.9584 47.644 48.2224 48.16V46.702ZM45.4864 53.812C46.3384 53.812 47.0164 53.53 47.5204 52.966C48.0364 52.402 48.2944 51.7 48.2944 50.86C48.2944 50.02 48.0364 49.318 47.5204 48.754C47.0164 48.178 46.3384 47.89 45.4864 47.89C44.6704 47.89 44.0044 48.172 43.4884 48.736C42.9724 49.288 42.7144 49.996 42.7144 50.86C42.7144 51.712 42.9724 52.42 43.4884 52.984C44.0044 53.536 44.6704 53.812 45.4864 53.812ZM60.6739 55.216C59.3539 55.216 58.3039 54.802 57.5239 53.974C56.7439 53.134 56.3539 52.09 56.3539 50.842C56.3539 49.594 56.7439 48.556 57.5239 47.728C58.3039 46.9 59.3539 46.486 60.6739 46.486C61.9819 46.486 63.0259 46.906 63.8059 47.746C64.5979 48.574 64.9939 49.606 64.9939 50.842C64.9939 52.09 64.5979 53.134 63.8059 53.974C63.0259 54.802 61.9819 55.216 60.6739 55.216ZM58.6399 52.984C59.1439 53.536 59.8219 53.812 60.6739 53.812C61.5259 53.812 62.1979 53.536 62.6899 52.984C63.1819 52.42 63.4279 51.706 63.4279 50.842C63.4279 49.99 63.1819 49.288 62.6899 48.736C62.1979 48.172 61.5259 47.89 60.6739 47.89C59.8219 47.89 59.1439 48.172 58.6399 48.736C58.1479 49.288 57.9019 49.996 57.9019 50.86C57.9019 51.712 58.1479 52.42 58.6399 52.984ZM67.0219 55V46.702H68.5879V48.232C68.8159 47.692 69.1759 47.266 69.6679 46.954C70.1719 46.642 70.7779 46.486 71.4859 46.486C73.5499 46.486 74.5819 47.62 74.5819 49.888V55H73.0159V50.572C73.0159 49.636 72.8479 48.946 72.5119 48.502C72.1879 48.058 71.6599 47.836 70.9279 47.836C70.1719 47.836 69.5899 48.082 69.1819 48.574C68.7859 49.066 68.5879 49.744 68.5879 50.608V55H67.0219ZM77.1469 55V42.4H78.7129V55H77.1469ZM82.2104 45.28C81.8384 45.28 81.5324 45.16 81.2924 44.92C81.0524 44.68 80.9324 44.38 80.9324 44.02C80.9324 43.66 81.0524 43.36 81.2924 43.12C81.5324 42.868 81.8384 42.742 82.2104 42.742C82.5704 42.742 82.8704 42.868 83.1104 43.12C83.3504 43.36 83.4704 43.66 83.4704 44.02C83.4704 44.38 83.3504 44.68 83.1104 44.92C82.8704 45.16 82.5704 45.28 82.2104 45.28ZM81.4184 55V46.702H82.9844V55H81.4184ZM85.6898 55V46.702H87.2558V48.232C87.4838 47.692 87.8438 47.266 88.3358 46.954C88.8398 46.642 89.4458 46.486 90.1538 46.486C92.2178 46.486 93.2498 47.62 93.2498 49.888V55H91.6838V50.572C91.6838 49.636 91.5158 48.946 91.1798 48.502C90.8558 48.058 90.3278 47.836 89.5958 47.836C88.8398 47.836 88.2578 48.082 87.8498 48.574C87.4538 49.066 87.2558 49.744 87.2558 50.608V55H85.6898ZM103.23 50.374C103.23 50.602 103.212 50.914 103.176 51.31H96.7496C96.7616 52.102 97.0016 52.726 97.4696 53.182C97.9376 53.626 98.5676 53.848 99.3596 53.848C100.464 53.848 101.196 53.44 101.556 52.624H103.122C102.978 53.392 102.558 54.016 101.862 54.496C101.166 54.976 100.332 55.216 99.3596 55.216C98.0876 55.216 97.0736 54.826 96.3176 54.046C95.5736 53.254 95.2016 52.186 95.2016 50.842C95.2016 49.522 95.5736 48.466 96.3176 47.674C97.0616 46.882 98.0516 46.486 99.2876 46.486C100.464 46.486 101.412 46.846 102.132 47.566C102.864 48.286 103.23 49.222 103.23 50.374ZM96.7496 50.104H101.682C101.682 49.372 101.466 48.796 101.034 48.376C100.614 47.956 100.026 47.746 99.2696 47.746C98.5256 47.746 97.9256 47.962 97.4696 48.394C97.0256 48.826 96.7856 49.396 96.7496 50.104Z" fill="#444053"/>
</svg>
