<svg width="130" height="53" viewBox="0 0 130 53" fill="none" xmlns="http://www.w3.org/2000/svg">
<path d="M0.55 18V0.499999H5.75V13.525H11.7V18H0.55ZM27.173 11.15C27.173 11.7667 27.1314 12.375 27.048 12.975H17.898C17.9314 13.625 18.1564 14.1333 18.573 14.5C19.0064 14.8667 19.573 15.05 20.273 15.05C21.323 15.05 21.973 14.7417 22.223 14.125H26.973C26.7564 15.4417 26.0397 16.4917 24.823 17.275C23.6064 18.0417 22.0897 18.425 20.273 18.425C18.0064 18.425 16.223 17.85 14.923 16.7C13.6397 15.5333 12.998 13.9 12.998 11.8C12.998 9.73333 13.648 8.10833 14.948 6.925C16.248 5.725 17.9897 5.125 20.173 5.125C22.2397 5.125 23.923 5.68333 25.223 6.8C26.523 7.91667 27.173 9.36667 27.173 11.15ZM17.898 10.275H22.273C22.2564 9.59167 22.0647 9.05833 21.698 8.675C21.3314 8.29167 20.8064 8.1 20.123 8.1C19.4564 8.1 18.923 8.3 18.523 8.7C18.1397 9.1 17.9314 9.625 17.898 10.275ZM34.0324 18.35C32.3158 18.35 30.9491 17.7417 29.9324 16.525C28.9158 15.3083 28.4074 13.7333 28.4074 11.8C28.4074 9.86667 28.9241 8.29167 29.9574 7.075C30.9908 5.84167 32.3574 5.225 34.0574 5.225C34.9908 5.225 35.7908 5.425 36.4574 5.825C37.1241 6.225 37.6074 6.75833 37.9074 7.425V5.575H42.8324V18H37.9074V16.15C37.6241 16.8 37.1324 17.3333 36.4324 17.75C35.7491 18.15 34.9491 18.35 34.0324 18.35ZM35.7824 14.4C36.4991 14.4 37.0658 14.1583 37.4824 13.675C37.9158 13.175 38.1324 12.55 38.1324 11.8C38.1324 11.0333 37.9158 10.4083 37.4824 9.925C37.0658 9.425 36.4991 9.175 35.7824 9.175C35.0824 9.175 34.5241 9.425 34.1074 9.925C33.6908 10.4083 33.4824 11.0333 33.4824 11.8C33.4824 12.5667 33.6908 13.1917 34.1074 13.675C34.5241 14.1583 35.0824 14.4 35.7824 14.4ZM45.6643 18V5.575H50.5643V8.35C50.7809 7.4 51.2143 6.65833 51.8643 6.125C52.5143 5.59167 53.2726 5.325 54.1393 5.325C54.4559 5.325 54.7643 5.35 55.0643 5.4V10.025C54.6476 9.95833 54.2309 9.925 53.8143 9.925C52.7976 9.925 51.9976 10.2167 51.4143 10.8C50.8476 11.3667 50.5643 12.375 50.5643 13.825V18H45.6643ZM56.8947 18V5.575H61.7947V7.4C62.4614 5.95 63.8031 5.225 65.8197 5.225C68.8531 5.225 70.3697 6.95833 70.3697 10.425V18H65.3697V11.675C65.3697 10.1083 64.7947 9.325 63.6447 9.325C62.4114 9.325 61.7947 10.1417 61.7947 11.775V18H56.8947ZM0.55 47V29.5H7.15L10.875 40.925L14.575 29.5H21.025V47H16.025V35.9L12.825 47H8.975L5.55 35.85V47H0.55ZM28.759 47.35C27.0423 47.35 25.6757 46.7417 24.659 45.525C23.6423 44.3083 23.134 42.7333 23.134 40.8C23.134 38.8667 23.6507 37.2917 24.684 36.075C25.7173 34.8417 27.084 34.225 28.784 34.225C29.7173 34.225 30.5173 34.425 31.184 34.825C31.8507 35.225 32.334 35.7583 32.634 36.425V34.575H37.559V47H32.634V45.15C32.3507 45.8 31.859 46.3333 31.159 46.75C30.4757 47.15 29.6757 47.35 28.759 47.35ZM30.509 43.4C31.2257 43.4 31.7923 43.1583 32.209 42.675C32.6423 42.175 32.859 41.55 32.859 40.8C32.859 40.0333 32.6423 39.4083 32.209 38.925C31.7923 38.425 31.2257 38.175 30.509 38.175C29.809 38.175 29.2507 38.425 28.834 38.925C28.4173 39.4083 28.209 40.0333 28.209 40.8C28.209 41.5667 28.4173 42.1917 28.834 42.675C29.2507 43.1583 29.809 43.4 30.509 43.4ZM40.3908 47V34.575H45.2908V37.35C45.5075 36.4 45.9408 35.6583 46.5908 35.125C47.2408 34.5917 47.9992 34.325 48.8658 34.325C49.1825 34.325 49.4908 34.35 49.7908 34.4V39.025C49.3742 38.9583 48.9575 38.925 48.5408 38.925C47.5242 38.925 46.7242 39.2167 46.1408 39.8C45.5742 40.3667 45.2908 41.375 45.2908 42.825V47H40.3908ZM65.6713 47H59.8963L56.5213 41.85V47H51.6213V29.5H56.5213V39.475L59.9713 34.575H65.5213L60.9963 40.4L65.6713 47ZM79.175 40.15C79.175 40.7667 79.1333 41.375 79.05 41.975H69.9C69.9333 42.625 70.1583 43.1333 70.575 43.5C71.0083 43.8667 71.575 44.05 72.275 44.05C73.325 44.05 73.975 43.7417 74.225 43.125H78.975C78.7583 44.4417 78.0417 45.4917 76.825 46.275C75.6083 47.0417 74.0917 47.425 72.275 47.425C70.0083 47.425 68.225 46.85 66.925 45.7C65.6417 44.5333 65 42.9 65 40.8C65 38.7333 65.65 37.1083 66.95 35.925C68.25 34.725 69.9917 34.125 72.175 34.125C74.2417 34.125 75.925 34.6833 77.225 35.8C78.525 36.9167 79.175 38.3667 79.175 40.15ZM69.9 39.275H74.275C74.2583 38.5917 74.0667 38.0583 73.7 37.675C73.3333 37.2917 72.8083 37.1 72.125 37.1C71.4583 37.1 70.925 37.3 70.525 37.7C70.1417 38.1 69.9333 38.625 69.9 39.275ZM88.3908 43.375C88.6908 43.375 89.1075 43.3417 89.6408 43.275V47C88.7075 47.1667 87.6908 47.25 86.5908 47.25C85.9408 47.25 85.3658 47.1917 84.8658 47.075C84.3658 46.9583 83.8658 46.75 83.3658 46.45C82.8658 46.1333 82.4742 45.65 82.1908 45C81.9242 44.3333 81.7908 43.5083 81.7908 42.525V38.325H79.9658V34.575H81.7908V30.95H86.6908V34.575H89.5158V38.325H86.6908V41.5C86.6908 42.75 87.2575 43.375 88.3908 43.375ZM94.0127 34.15C93.2294 34.15 92.5794 33.8917 92.0627 33.375C91.546 32.8417 91.2877 32.2083 91.2877 31.475C91.2877 30.725 91.546 30.0917 92.0627 29.575C92.5794 29.0583 93.2294 28.8 94.0127 28.8C94.7794 28.8 95.421 29.0583 95.9377 29.575C96.471 30.0917 96.7377 30.725 96.7377 31.475C96.7377 32.2083 96.471 32.8417 95.9377 33.375C95.421 33.8917 94.7794 34.15 94.0127 34.15ZM91.5627 47V34.575H96.4627V47H91.5627ZM99.302 47V34.575H104.202V36.4C104.869 34.95 106.21 34.225 108.227 34.225C111.26 34.225 112.777 35.9583 112.777 39.425V47H107.777V40.675C107.777 39.1083 107.202 38.325 106.052 38.325C104.819 38.325 104.202 39.1417 104.202 40.775V47H99.302ZM124.138 34.575H129.038V45.875C129.038 48.2083 128.188 49.95 126.488 51.1C125.438 51.8167 123.913 52.175 121.913 52.175C119.963 52.175 118.438 51.875 117.338 51.275C116.622 50.8917 116.03 50.375 115.563 49.725C115.113 49.075 114.888 48.4167 114.888 47.75H119.838C119.972 48.4833 120.638 48.85 121.838 48.85C123.372 48.85 124.138 48.1 124.138 46.6V44.65C123.872 45.2667 123.38 45.7667 122.663 46.15C121.947 46.5333 121.163 46.725 120.313 46.725C118.58 46.725 117.197 46.1583 116.163 45.025C115.13 43.875 114.613 42.3833 114.613 40.55C114.613 38.6833 115.138 37.1667 116.188 36C117.238 34.8167 118.622 34.225 120.338 34.225C121.222 34.225 122.005 34.425 122.688 34.825C123.388 35.225 123.872 35.7583 124.138 36.425V34.575ZM122.013 43.25C122.73 43.25 123.297 43 123.713 42.5C124.13 42 124.338 41.375 124.338 40.625C124.338 39.875 124.13 39.25 123.713 38.75C123.297 38.25 122.73 38 122.013 38C121.33 38 120.772 38.25 120.338 38.75C119.905 39.2333 119.688 39.8583 119.688 40.625C119.688 41.3917 119.905 42.025 120.338 42.525C120.772 43.0083 121.33 43.25 122.013 43.25Z" fill="#444053"/>
</svg>
