<svg width="193" height="46" viewBox="0 0 193 46" fill="none" xmlns="http://www.w3.org/2000/svg">
<path d="M12.34 13.06C12.34 14.0733 12.1067 14.98 11.64 15.78C11.1733 16.5667 10.5333 17.16 9.72 17.56L12.18 22H8.5L6.3 18.12H4.6V22H1.36V8H7.32C8.77333 8 9.97333 8.48 10.92 9.44C11.8667 10.3867 12.34 11.5933 12.34 13.06ZM4.6 10.64V15.48H6.82C7.47333 15.48 8.00667 15.2533 8.42 14.8C8.84667 14.3467 9.06 13.7667 9.06 13.06C9.06 12.3533 8.84667 11.7733 8.42 11.32C8.00667 10.8667 7.47333 10.64 6.82 10.64H4.6ZM17.9125 22.26C16.5125 22.26 15.4058 21.7867 14.5925 20.84C13.7792 19.8933 13.3725 18.6733 13.3725 17.18C13.3725 15.7133 13.7925 14.5 14.6325 13.54C15.4725 12.58 16.5792 12.1 17.9525 12.1C18.6325 12.1 19.2392 12.2467 19.7725 12.54C20.3058 12.8333 20.7058 13.2333 20.9725 13.74V12.36H24.0125V22H20.9725V20.64C20.7058 21.12 20.2925 21.5133 19.7325 21.82C19.1858 22.1133 18.5792 22.26 17.9125 22.26ZM18.7925 19.72C19.5258 19.72 20.0925 19.48 20.4925 19C20.8925 18.52 21.0925 17.9133 21.0925 17.18C21.0925 16.46 20.8925 15.86 20.4925 15.38C20.0925 14.9 19.5258 14.66 18.7925 14.66C18.0992 14.66 17.5392 14.8933 17.1125 15.36C16.6992 15.8267 16.4925 16.4333 16.4925 17.18C16.4925 17.9267 16.6992 18.54 17.1125 19.02C17.5392 19.4867 18.0992 19.72 18.7925 19.72ZM36.413 22H32.673L29.613 17.82V22H26.553V8H29.613V16.38L32.753 12.36H36.353L32.513 16.92L36.413 22ZM44.2564 12.1C46.6031 12.1 47.7764 13.4133 47.7764 16.04V22H44.6964V17.04C44.6964 16.2133 44.5631 15.6133 44.2964 15.24C44.0431 14.8667 43.6097 14.68 42.9964 14.68C41.7564 14.68 41.1364 15.44 41.1364 16.96V22H38.0764V8H41.1364V13.76C41.7097 12.6533 42.7497 12.1 44.2564 12.1ZM53.1248 10.96C52.7648 11.32 52.3115 11.5 51.7648 11.5C51.2182 11.5 50.7648 11.32 50.4048 10.96C50.0582 10.6 49.8848 10.16 49.8848 9.64C49.8848 9.10667 50.0582 8.66 50.4048 8.3C50.7648 7.94 51.2182 7.76 51.7648 7.76C52.3115 7.76 52.7648 7.94667 53.1248 8.32C53.4848 8.68 53.6648 9.12 53.6648 9.64C53.6648 10.16 53.4848 10.6 53.1248 10.96ZM50.2248 22V12.36H53.2848V22H50.2248ZM60.7741 22V8H66.0541C68.2274 8 69.9607 8.67333 71.2541 10.02C72.5474 11.3667 73.1941 13.0267 73.1941 15C73.1941 16.9733 72.5474 18.6333 71.2541 19.98C69.9741 21.3267 68.2407 22 66.0541 22H60.7741ZM64.0141 19.28H65.7541C67.0607 19.28 68.0674 18.8667 68.7741 18.04C69.4941 17.2 69.8541 16.1867 69.8541 15C69.8541 13.8133 69.4941 12.8067 68.7741 11.98C68.0674 11.14 67.0607 10.72 65.7541 10.72H64.0141V19.28ZM78.8305 22.26C77.4305 22.26 76.3238 21.7867 75.5105 20.84C74.6971 19.8933 74.2905 18.6733 74.2905 17.18C74.2905 15.7133 74.7105 14.5 75.5505 13.54C76.3905 12.58 77.4971 12.1 78.8705 12.1C79.5505 12.1 80.1571 12.2467 80.6905 12.54C81.2238 12.8333 81.6238 13.2333 81.8905 13.74V12.36H84.9305V22H81.8905V20.64C81.6238 21.12 81.2105 21.5133 80.6505 21.82C80.1038 22.1133 79.4971 22.26 78.8305 22.26ZM79.7105 19.72C80.4438 19.72 81.0105 19.48 81.4105 19C81.8105 18.52 82.0105 17.9133 82.0105 17.18C82.0105 16.46 81.8105 15.86 81.4105 15.38C81.0105 14.9 80.4438 14.66 79.7105 14.66C79.0171 14.66 78.4571 14.8933 78.0305 15.36C77.6171 15.8267 77.4105 16.4333 77.4105 17.18C77.4105 17.9267 77.6171 18.54 78.0305 19.02C78.4571 19.4867 79.0171 19.72 79.7105 19.72ZM91.3309 22.3C89.9443 22.3 88.8376 22 88.0109 21.4C87.1843 20.8 86.7709 20.0333 86.7709 19.1H89.8109C89.8109 19.4333 89.9576 19.7067 90.2509 19.92C90.5443 20.1333 90.9243 20.24 91.3909 20.24C91.7243 20.24 91.9909 20.16 92.1909 20C92.4043 19.84 92.5109 19.62 92.5109 19.34C92.5109 18.9 92.2776 18.6267 91.8109 18.52L89.4509 17.92C88.6643 17.72 88.0643 17.38 87.6509 16.9C87.2376 16.42 87.0309 15.8333 87.0309 15.14C87.0309 14.2333 87.4043 13.5 88.1509 12.94C88.8976 12.3667 89.8976 12.08 91.1509 12.08C92.5376 12.08 93.5976 12.3467 94.3309 12.88C95.0776 13.4133 95.4509 14.1467 95.4509 15.08H92.4309C92.4309 14.7467 92.3109 14.4867 92.0709 14.3C91.8443 14.1133 91.5243 14.02 91.1109 14.02C90.7776 14.02 90.5109 14.0933 90.3109 14.24C90.1109 14.3867 90.0109 14.58 90.0109 14.82C90.0109 15.2467 90.2843 15.5333 90.8309 15.68L93.1109 16.3C93.8709 16.5 94.4643 16.8333 94.8909 17.3C95.3309 17.7533 95.5509 18.3133 95.5509 18.98C95.5509 19.98 95.1709 20.7867 94.4109 21.4C93.6643 22 92.6376 22.3 91.3309 22.3ZM104.351 12.36H107.411V21.34C107.411 23.2067 106.791 24.5733 105.551 25.44C104.738 26.0133 103.591 26.3 102.111 26.3C100.658 26.3 99.4981 26.04 98.6314 25.52C98.1381 25.2133 97.7314 24.82 97.4114 24.34C97.0914 23.86 96.9247 23.36 96.9114 22.84H100.031C100.178 23.6533 100.858 24.06 102.071 24.06C103.591 24.06 104.351 23.28 104.351 21.72V20.44C104.111 20.9067 103.705 21.2867 103.131 21.58C102.571 21.86 101.971 22 101.331 22C99.9314 22 98.8181 21.5467 97.9914 20.64C97.1647 19.72 96.7514 18.5333 96.7514 17.08C96.7514 15.64 97.1781 14.4533 98.0314 13.52C98.8847 12.5733 99.9981 12.1 101.371 12.1C102.038 12.1 102.638 12.2533 103.171 12.56C103.718 12.8533 104.111 13.2467 104.351 13.74V12.36ZM102.171 19.64C102.878 19.64 103.438 19.4 103.851 18.92C104.278 18.44 104.491 17.84 104.491 17.12C104.491 16.4 104.278 15.8 103.851 15.32C103.438 14.84 102.878 14.6 102.171 14.6C101.491 14.6 100.938 14.84 100.511 15.32C100.098 15.7867 99.8914 16.3867 99.8914 17.12C99.8914 17.8533 100.098 18.46 100.511 18.94C100.938 19.4067 101.491 19.64 102.171 19.64ZM113.392 22.26C112.245 22.26 111.365 21.92 110.752 21.24C110.139 20.5467 109.832 19.5733 109.832 18.32V12.36H112.932V17.64C112.932 19 113.465 19.68 114.532 19.68C115.772 19.68 116.392 18.9667 116.392 17.54V12.36H119.432V22H116.392V20.62C115.819 21.7133 114.819 22.26 113.392 22.26ZM128.163 12.1C129.483 12.1 130.55 12.5667 131.363 13.5C132.19 14.4333 132.603 15.66 132.603 17.18C132.603 18.6867 132.183 19.9133 131.343 20.86C130.503 21.7933 129.416 22.26 128.083 22.26C127.39 22.26 126.77 22.1067 126.223 21.8C125.676 21.4933 125.276 21.1067 125.023 20.64V26H121.963V12.36H125.023V13.74C125.276 13.26 125.69 12.8667 126.263 12.56C126.836 12.2533 127.47 12.1 128.163 12.1ZM127.203 19.72C127.87 19.72 128.416 19.4867 128.843 19.02C129.27 18.54 129.483 17.9267 129.483 17.18C129.483 16.4333 129.27 15.8267 128.843 15.36C128.416 14.8933 127.87 14.66 127.203 14.66C126.51 14.66 125.95 14.8933 125.523 15.36C125.096 15.8267 124.883 16.4333 124.883 17.18C124.883 17.94 125.096 18.5533 125.523 19.02C125.963 19.4867 126.523 19.72 127.203 19.72ZM139.465 19.62C139.891 19.62 140.245 19.6 140.525 19.56V22C139.938 22.1067 139.258 22.16 138.485 22.16C138.138 22.16 137.831 22.14 137.565 22.1C137.298 22.06 136.998 21.9733 136.665 21.84C136.331 21.6933 136.058 21.5 135.845 21.26C135.631 21.02 135.445 20.6733 135.285 20.22C135.138 19.7667 135.065 19.2333 135.065 18.62V14.78H133.545V12.36H135.065V9.5H138.125V12.36H140.305V14.78H138.125V17.98C138.125 18.6333 138.238 19.0733 138.465 19.3C138.691 19.5133 139.025 19.62 139.465 19.62ZM146.057 22.26C144.657 22.26 143.55 21.7867 142.737 20.84C141.924 19.8933 141.517 18.6733 141.517 17.18C141.517 15.7133 141.937 14.5 142.777 13.54C143.617 12.58 144.724 12.1 146.097 12.1C146.777 12.1 147.384 12.2467 147.917 12.54C148.45 12.8333 148.85 13.2333 149.117 13.74V12.36H152.157V22H149.117V20.64C148.85 21.12 148.437 21.5133 147.877 21.82C147.33 22.1133 146.724 22.26 146.057 22.26ZM146.937 19.72C147.67 19.72 148.237 19.48 148.637 19C149.037 18.52 149.237 17.9133 149.237 17.18C149.237 16.46 149.037 15.86 148.637 15.38C148.237 14.9 147.67 14.66 146.937 14.66C146.244 14.66 145.684 14.8933 145.257 15.36C144.844 15.8267 144.637 16.4333 144.637 17.18C144.637 17.9267 144.844 18.54 145.257 19.02C145.684 19.4867 146.244 19.72 146.937 19.72Z" fill="#444053"/>
<path d="M5.6 42.224C4.04133 42.224 2.80467 41.7433 1.89 40.782C0.984667 39.8207 0.532 38.5933 0.532 37.1C0.532 35.6067 0.984667 34.3793 1.89 33.418C2.80467 32.4567 4.04133 31.976 5.6 31.976C6.888 31.976 7.94267 32.2933 8.764 32.928C9.59467 33.5627 10.1033 34.3933 10.29 35.42H8.89C8.70333 34.7107 8.33 34.1507 7.77 33.74C7.21 33.3293 6.49133 33.124 5.614 33.124C4.45667 33.124 3.542 33.4927 2.87 34.23C2.198 34.9673 1.862 35.924 1.862 37.1C1.862 38.276 2.198 39.2327 2.87 39.97C3.542 40.7073 4.45667 41.076 5.614 41.076C6.49133 41.076 7.21 40.8707 7.77 40.46C8.33 40.0493 8.70333 39.4893 8.89 38.78H10.29C10.1033 39.8067 9.59467 40.6373 8.764 41.272C7.94267 41.9067 6.888 42.224 5.6 42.224ZM15.3368 35.378C16.9421 35.378 17.7448 36.26 17.7448 38.024V42H16.5268V38.556C16.5268 37.828 16.3961 37.2913 16.1348 36.946C15.8828 36.6007 15.4721 36.428 14.9028 36.428C14.3148 36.428 13.8621 36.6193 13.5448 37.002C13.2368 37.3847 13.0828 37.912 13.0828 38.584V42H11.8648V32.2H13.0828V36.736C13.2601 36.316 13.5401 35.9847 13.9228 35.742C14.3148 35.4993 14.7861 35.378 15.3368 35.378ZM25.5065 38.402C25.5065 38.5793 25.4925 38.822 25.4645 39.13H20.4665C20.4758 39.746 20.6625 40.2313 21.0265 40.586C21.3905 40.9313 21.8805 41.104 22.4965 41.104C23.3551 41.104 23.9245 40.7867 24.2045 40.152H25.4225C25.3105 40.7493 24.9838 41.2347 24.4425 41.608C23.9011 41.9813 23.2525 42.168 22.4965 42.168C21.5071 42.168 20.7185 41.8647 20.1305 41.258C19.5518 40.642 19.2625 39.8113 19.2625 38.766C19.2625 37.7393 19.5518 36.918 20.1305 36.302C20.7091 35.686 21.4791 35.378 22.4405 35.378C23.3551 35.378 24.0925 35.658 24.6525 36.218C25.2218 36.778 25.5065 37.506 25.5065 38.402ZM20.4665 38.192H24.3025C24.3025 37.6227 24.1345 37.1747 23.7985 36.848C23.4718 36.5213 23.0145 36.358 22.4265 36.358C21.8478 36.358 21.3811 36.526 21.0265 36.862C20.6811 37.198 20.4945 37.6413 20.4665 38.192ZM29.9405 33.208C29.7912 33.208 29.6559 33.222 29.5345 33.25C29.4225 33.2687 29.3012 33.3153 29.1705 33.39C29.0492 33.4647 28.9512 33.586 28.8765 33.754C28.8112 33.922 28.7785 34.1367 28.7785 34.398V35.546H30.5985V36.568H28.7785V42H27.5605V36.568H26.1885V35.546H27.5605V34.426C27.5605 34.0433 27.6072 33.7073 27.7005 33.418C27.8032 33.1287 27.9292 32.9047 28.0785 32.746C28.2279 32.578 28.4005 32.4473 28.5965 32.354C28.7925 32.2513 28.9699 32.186 29.1285 32.158C29.2872 32.13 29.4505 32.116 29.6185 32.116C30.0385 32.116 30.3652 32.1627 30.5985 32.256V33.306C30.3559 33.2407 30.1365 33.208 29.9405 33.208ZM31.4801 43.68C31.2934 43.68 31.1348 43.666 31.0041 43.638V43.05C31.1161 43.0687 31.2888 43.078 31.5221 43.078C31.9048 43.078 32.1661 42.9193 32.3061 42.602C32.4274 42.406 32.4881 42.154 32.4881 41.846C32.3668 41.9953 32.1754 42.07 31.9141 42.07C31.6434 42.07 31.4194 41.9813 31.2421 41.804C31.0648 41.6267 30.9761 41.3933 30.9761 41.104C30.9761 40.8147 31.0694 40.5767 31.2561 40.39C31.4521 40.2033 31.6948 40.11 31.9841 40.11C32.3201 40.11 32.6141 40.25 32.8661 40.53C33.1274 40.8007 33.2581 41.1927 33.2581 41.706C33.2581 42.294 33.0994 42.77 32.7821 43.134C32.4741 43.498 32.0401 43.68 31.4801 43.68ZM38.8134 42V32.2H44.3854V33.348H40.0874V36.554H44.3854V37.702H40.0874V40.852H44.3854V42H38.8134ZM48.9369 42.168C47.9382 42.168 47.1542 41.8507 46.5849 41.216C46.0249 40.5813 45.7449 39.7693 45.7449 38.78C45.7449 37.8 46.0342 36.988 46.6129 36.344C47.2009 35.7 47.9849 35.378 48.9649 35.378C49.4689 35.378 49.9216 35.4947 50.3229 35.728C50.7242 35.9613 51.0276 36.2787 51.2329 36.68V35.546H52.4369V42H51.2329V40.866C51.0276 41.258 50.7149 41.5753 50.2949 41.818C49.8749 42.0513 49.4222 42.168 48.9369 42.168ZM49.1049 41.076C49.7862 41.076 50.3182 40.8567 50.7009 40.418C51.0929 39.97 51.2889 39.424 51.2889 38.78C51.2889 38.1267 51.0929 37.5807 50.7009 37.142C50.3182 36.694 49.7862 36.47 49.1049 36.47C48.4516 36.47 47.9289 36.6893 47.5369 37.128C47.1449 37.5573 46.9489 38.108 46.9489 38.78C46.9489 39.452 47.1449 40.0027 47.5369 40.432C47.9289 40.8613 48.4516 41.076 49.1049 41.076ZM54.5344 42V35.546H55.7524V37.016C55.8737 36.5027 56.1117 36.1153 56.4664 35.854C56.821 35.5833 57.213 35.448 57.6424 35.448C57.8944 35.448 58.0904 35.4667 58.2304 35.504V36.624C58.0904 36.596 57.8897 36.582 57.6284 36.582C57.0217 36.582 56.555 36.8247 56.2284 37.31C55.911 37.7953 55.7524 38.416 55.7524 39.172V42H54.5344ZM59.593 42V35.546H60.811V36.736C60.9883 36.316 61.2683 35.9847 61.651 35.742C62.043 35.4993 62.5143 35.378 63.065 35.378C64.6703 35.378 65.473 36.26 65.473 38.024V42H64.255V38.556C64.255 37.828 64.1243 37.2913 63.863 36.946C63.611 36.6007 63.2003 36.428 62.631 36.428C62.043 36.428 61.5903 36.6193 61.273 37.002C60.965 37.3847 60.811 37.912 60.811 38.584V42H59.593ZM69.679 42.168C68.867 42.168 68.2137 41.9673 67.719 41.566C67.2337 41.1553 66.991 40.656 66.991 40.068H68.195C68.195 40.3947 68.335 40.6653 68.615 40.88C68.895 41.0853 69.2683 41.188 69.735 41.188C70.099 41.188 70.3883 41.104 70.603 40.936C70.8177 40.768 70.925 40.5393 70.925 40.25C70.925 39.7927 70.715 39.5127 70.295 39.41L68.573 38.962C67.649 38.71 67.187 38.1313 67.187 37.226C67.187 36.694 67.411 36.2553 67.859 35.91C68.307 35.5553 68.8903 35.378 69.609 35.378C70.393 35.378 70.9997 35.56 71.429 35.924C71.8677 36.2787 72.087 36.7453 72.087 37.324H70.883C70.883 37.016 70.7663 36.7733 70.533 36.596C70.2997 36.4093 69.973 36.316 69.553 36.316C69.217 36.316 68.937 36.3953 68.713 36.554C68.4983 36.7033 68.391 36.9087 68.391 37.17C68.391 37.6087 68.629 37.884 69.105 37.996L70.715 38.444C71.1723 38.5653 71.527 38.78 71.779 39.088C72.031 39.396 72.157 39.746 72.157 40.138C72.157 40.754 71.9377 41.2487 71.499 41.622C71.0603 41.986 70.4537 42.168 69.679 42.168ZM79.7327 42.168C78.9861 42.168 78.3887 41.944 77.9407 41.496C77.5021 41.0387 77.2827 40.3807 77.2827 39.522V35.546H78.5007V39.228C78.5007 40.488 79.0234 41.118 80.0687 41.118C80.6847 41.118 81.1421 40.922 81.4407 40.53C81.7487 40.1287 81.9027 39.6433 81.9027 39.074V35.546H83.1207V42H81.9027V40.824C81.7254 41.2347 81.4454 41.5613 81.0627 41.804C80.6894 42.0467 80.2461 42.168 79.7327 42.168ZM88.7981 35.378C89.7221 35.378 90.4734 35.6953 91.0521 36.33C91.6307 36.9553 91.9201 37.772 91.9201 38.78C91.9201 39.7693 91.6214 40.5813 91.0241 41.216C90.4267 41.8507 89.6614 42.168 88.7281 42.168C88.2334 42.168 87.7761 42.0513 87.3561 41.818C86.9454 41.5847 86.6374 41.2673 86.4321 40.866V44.982H85.2141V35.546H86.4321V36.68C86.6374 36.2787 86.9501 35.9613 87.3701 35.728C87.7994 35.4947 88.2754 35.378 88.7981 35.378ZM88.5601 41.076C89.1854 41.076 89.6987 40.8613 90.1001 40.432C90.5014 40.0027 90.7021 39.452 90.7021 38.78C90.7021 38.108 90.5014 37.5573 90.1001 37.128C89.6987 36.6893 89.1854 36.47 88.5601 36.47C87.9161 36.47 87.3887 36.6847 86.9781 37.114C86.5767 37.5433 86.3761 38.0987 86.3761 38.78C86.3761 39.452 86.5767 40.0027 86.9781 40.432C87.3887 40.8613 87.9161 41.076 88.5601 41.076ZM96.1329 40.978C96.4689 40.978 96.7395 40.9547 96.9449 40.908V41.986C96.6649 42.0513 96.3055 42.084 95.8669 42.084C95.6709 42.084 95.4982 42.0747 95.3489 42.056C95.2089 42.0373 95.0409 41.986 94.8449 41.902C94.6489 41.818 94.4855 41.7013 94.3549 41.552C94.2242 41.3933 94.1122 41.174 94.0189 40.894C93.9255 40.6047 93.8789 40.2593 93.8789 39.858V36.568H92.7169V35.546H93.8789V33.502H95.0969V35.546H96.7209V36.568H95.0969V39.592C95.0969 40.1613 95.1809 40.5347 95.3489 40.712C95.5169 40.8893 95.7782 40.978 96.1329 40.978ZM101.181 42.168C100.154 42.168 99.3377 41.846 98.7311 41.202C98.1244 40.5487 97.8211 39.7367 97.8211 38.766C97.8211 37.7953 98.1244 36.988 98.7311 36.344C99.3377 35.7 100.154 35.378 101.181 35.378C102.198 35.378 103.01 35.7047 103.617 36.358C104.233 37.002 104.541 37.8047 104.541 38.766C104.541 39.7367 104.233 40.5487 103.617 41.202C103.01 41.846 102.198 42.168 101.181 42.168ZM99.5991 40.432C99.9911 40.8613 100.518 41.076 101.181 41.076C101.844 41.076 102.366 40.8613 102.749 40.432C103.132 39.9933 103.323 39.438 103.323 38.766C103.323 38.1033 103.132 37.5573 102.749 37.128C102.366 36.6893 101.844 36.47 101.181 36.47C100.518 36.47 99.9911 36.6893 99.5991 37.128C99.2164 37.5573 99.0251 38.108 99.0251 38.78C99.0251 39.4427 99.2164 39.9933 99.5991 40.432ZM112.557 42.154C111.493 42.154 110.658 41.8787 110.051 41.328C109.454 40.768 109.155 39.9933 109.155 39.004H110.457C110.457 39.6573 110.639 40.166 111.003 40.53C111.377 40.8847 111.895 41.062 112.557 41.062C113.136 41.062 113.603 40.9033 113.957 40.586C114.321 40.2687 114.503 39.8533 114.503 39.34C114.503 38.78 114.331 38.3507 113.985 38.052C113.64 37.744 113.141 37.59 112.487 37.59H111.787V36.484H112.501C113.08 36.484 113.519 36.3487 113.817 36.078C114.125 35.8073 114.279 35.4153 114.279 34.902C114.279 34.454 114.116 34.09 113.789 33.81C113.472 33.53 113.052 33.39 112.529 33.39C111.951 33.39 111.489 33.5533 111.143 33.88C110.798 34.1973 110.625 34.6313 110.625 35.182H109.379C109.379 34.314 109.664 33.6233 110.233 33.11C110.803 32.5873 111.568 32.326 112.529 32.326C113.444 32.326 114.181 32.564 114.741 33.04C115.301 33.5067 115.581 34.1273 115.581 34.902C115.581 36.0033 115.003 36.708 113.845 37.016C114.415 37.0907 114.881 37.3427 115.245 37.772C115.609 38.2013 115.791 38.724 115.791 39.34C115.791 40.1707 115.488 40.8473 114.881 41.37C114.284 41.8927 113.509 42.154 112.557 42.154ZM123.442 40.908C122.835 41.7387 121.944 42.154 120.768 42.154C119.592 42.154 118.696 41.7387 118.08 40.908C117.473 40.068 117.17 38.8407 117.17 37.226C117.17 35.6207 117.473 34.4027 118.08 33.572C118.696 32.732 119.592 32.312 120.768 32.312C121.944 32.312 122.835 32.732 123.442 33.572C124.058 34.4027 124.366 35.6207 124.366 37.226C124.366 38.8407 124.058 40.068 123.442 40.908ZM120.768 41.034C122.355 41.034 123.148 39.7647 123.148 37.226C123.148 34.6967 122.355 33.432 120.768 33.432C119.172 33.432 118.374 34.6967 118.374 37.226C118.374 39.7647 119.172 41.034 120.768 41.034ZM133.191 32.2L128.641 37.044L133.191 42H131.539L127.437 37.436V42H126.163V32.2H127.437V36.792L131.553 32.2H133.191ZM137.96 42V35.546H139.178V36.722C139.309 36.3393 139.542 36.022 139.878 35.77C140.214 35.5087 140.625 35.378 141.11 35.378C142.221 35.378 142.911 35.84 143.182 36.764C143.331 36.3627 143.593 36.0313 143.966 35.77C144.339 35.5087 144.769 35.378 145.254 35.378C146.803 35.378 147.578 36.2227 147.578 37.912V42H146.36V38.15C146.36 37.002 145.893 36.428 144.96 36.428C143.905 36.428 143.378 37.1653 143.378 38.64V42H142.16V38.234C142.16 37.03 141.698 36.428 140.774 36.428C140.27 36.428 139.878 36.6147 139.598 36.988C139.318 37.352 139.178 37.9027 139.178 38.64V42H137.96ZM152.451 42.168C151.424 42.168 150.607 41.846 150.001 41.202C149.394 40.5487 149.091 39.7367 149.091 38.766C149.091 37.7953 149.394 36.988 150.001 36.344C150.607 35.7 151.424 35.378 152.451 35.378C153.468 35.378 154.28 35.7047 154.887 36.358C155.503 37.002 155.811 37.8047 155.811 38.766C155.811 39.7367 155.503 40.5487 154.887 41.202C154.28 41.846 153.468 42.168 152.451 42.168ZM150.869 40.432C151.261 40.8613 151.788 41.076 152.451 41.076C153.113 41.076 153.636 40.8613 154.019 40.432C154.401 39.9933 154.593 39.438 154.593 38.766C154.593 38.1033 154.401 37.5573 154.019 37.128C153.636 36.6893 153.113 36.47 152.451 36.47C151.788 36.47 151.261 36.6893 150.869 37.128C150.486 37.5573 150.295 38.108 150.295 38.78C150.295 39.4427 150.486 39.9933 150.869 40.432ZM157.388 42V35.546H158.606V36.736C158.783 36.316 159.063 35.9847 159.446 35.742C159.838 35.4993 160.309 35.378 160.86 35.378C162.465 35.378 163.268 36.26 163.268 38.024V42H162.05V38.556C162.05 37.828 161.919 37.2913 161.658 36.946C161.406 36.6007 160.995 36.428 160.426 36.428C159.838 36.428 159.385 36.6193 159.068 37.002C158.76 37.3847 158.606 37.912 158.606 38.584V42H157.388ZM167.828 40.978C168.164 40.978 168.435 40.9547 168.64 40.908V41.986C168.36 42.0513 168.001 42.084 167.562 42.084C167.366 42.084 167.194 42.0747 167.044 42.056C166.904 42.0373 166.736 41.986 166.54 41.902C166.344 41.818 166.181 41.7013 166.05 41.552C165.92 41.3933 165.808 41.174 165.714 40.894C165.621 40.6047 165.574 40.2593 165.574 39.858V36.568H164.412V35.546H165.574V33.502H166.792V35.546H168.416V36.568H166.792V39.592C166.792 40.1613 166.876 40.5347 167.044 40.712C167.212 40.8893 167.474 40.978 167.828 40.978ZM173.602 35.378C175.208 35.378 176.01 36.26 176.01 38.024V42H174.792V38.556C174.792 37.828 174.662 37.2913 174.4 36.946C174.148 36.6007 173.738 36.428 173.168 36.428C172.58 36.428 172.128 36.6193 171.81 37.002C171.502 37.3847 171.348 37.912 171.348 38.584V42H170.13V32.2H171.348V36.736C171.526 36.316 171.806 35.9847 172.188 35.742C172.58 35.4993 173.052 35.378 173.602 35.378ZM178.005 42V32.2H179.223V42H178.005ZM185.947 35.546H187.165V42.126C187.165 43.1433 186.871 43.918 186.283 44.45C185.761 44.9167 185.056 45.15 184.169 45.15C183.236 45.15 182.508 44.926 181.985 44.478C181.509 44.0767 181.267 43.5213 181.257 42.812H182.489C182.536 43.6893 183.091 44.128 184.155 44.128C185.35 44.128 185.947 43.4327 185.947 42.042V40.838C185.518 41.7247 184.771 42.168 183.707 42.168C182.895 42.168 182.284 41.9207 181.873 41.426C181.463 40.922 181.257 40.2453 181.257 39.396V35.546H182.475V39.144C182.475 39.7693 182.597 40.25 182.839 40.586C183.091 40.9127 183.516 41.076 184.113 41.076C184.701 41.076 185.154 40.866 185.471 40.446C185.789 40.0167 185.947 39.4893 185.947 38.864V35.546Z" fill="#444053"/>
</svg>
