<svg width="273" height="46" viewBox="0 0 273 46" fill="none" xmlns="http://www.w3.org/2000/svg">
<path d="M9.54 22L9.06 20.3H4.1L3.62 22H0.2L4.94 8H8.2L12.96 22H9.54ZM4.82 17.76H8.34L6.58 11.54L4.82 17.76ZM24.2841 22H20.5441L17.4841 17.82V22H14.4241V8H17.4841V16.38L20.6241 12.36H24.2241L20.3841 16.92L24.2841 22ZM28.7328 22.26C27.3328 22.26 26.2261 21.7867 25.4128 20.84C24.5995 19.8933 24.1928 18.6733 24.1928 17.18C24.1928 15.7133 24.6128 14.5 25.4528 13.54C26.2928 12.58 27.3995 12.1 28.7728 12.1C29.4528 12.1 30.0595 12.2467 30.5928 12.54C31.1261 12.8333 31.5261 13.2333 31.7928 13.74V12.36H34.8328V22H31.7928V20.64C31.5261 21.12 31.1128 21.5133 30.5528 21.82C30.0061 22.1133 29.3995 22.26 28.7328 22.26ZM29.6128 19.72C30.3461 19.72 30.9128 19.48 31.3128 19C31.7128 18.52 31.9128 17.9133 31.9128 17.18C31.9128 16.46 31.7128 15.86 31.3128 15.38C30.9128 14.9 30.3461 14.66 29.6128 14.66C28.9195 14.66 28.3595 14.8933 27.9328 15.36C27.5195 15.8267 27.3128 16.4333 27.3128 17.18C27.3128 17.9267 27.5195 18.54 27.9328 19.02C28.3595 19.4867 28.9195 19.72 29.6128 19.72ZM41.2333 22.3C39.8466 22.3 38.7399 22 37.9133 21.4C37.0866 20.8 36.6733 20.0333 36.6733 19.1H39.7133C39.7133 19.4333 39.8599 19.7067 40.1533 19.92C40.4466 20.1333 40.8266 20.24 41.2933 20.24C41.6266 20.24 41.8933 20.16 42.0933 20C42.3066 19.84 42.4133 19.62 42.4133 19.34C42.4133 18.9 42.1799 18.6267 41.7133 18.52L39.3533 17.92C38.5666 17.72 37.9666 17.38 37.5533 16.9C37.1399 16.42 36.9333 15.8333 36.9333 15.14C36.9333 14.2333 37.3066 13.5 38.0533 12.94C38.7999 12.3667 39.7999 12.08 41.0533 12.08C42.4399 12.08 43.4999 12.3467 44.2333 12.88C44.9799 13.4133 45.3533 14.1467 45.3533 15.08H42.3333C42.3333 14.7467 42.2133 14.4867 41.9733 14.3C41.7466 14.1133 41.4266 14.02 41.0133 14.02C40.6799 14.02 40.4133 14.0933 40.2133 14.24C40.0133 14.3867 39.9133 14.58 39.9133 14.82C39.9133 15.2467 40.1866 15.5333 40.7333 15.68L43.0133 16.3C43.7733 16.5 44.3666 16.8333 44.7933 17.3C45.2333 17.7533 45.4533 18.3133 45.4533 18.98C45.4533 19.98 45.0733 20.7867 44.3133 21.4C43.5666 22 42.5399 22.3 41.2333 22.3ZM53.5338 12.1C55.8804 12.1 57.0538 13.4133 57.0538 16.04V22H53.9738V17.04C53.9738 16.2133 53.8404 15.6133 53.5738 15.24C53.3204 14.8667 52.8871 14.68 52.2738 14.68C51.0338 14.68 50.4138 15.44 50.4138 16.96V22H47.3538V8H50.4138V13.76C50.9871 12.6533 52.0271 12.1 53.5338 12.1ZM69.0655 22.4C67.3455 22.4 65.9988 21.9667 65.0255 21.1C64.0521 20.22 63.5655 18.9933 63.5655 17.42H66.8055C66.8055 18.18 67.0055 18.7733 67.4055 19.2C67.8188 19.6267 68.3788 19.84 69.0855 19.84C69.6855 19.84 70.1455 19.7067 70.4655 19.44C70.7988 19.1733 70.9655 18.7933 70.9655 18.3C70.9655 17.8733 70.8388 17.5333 70.5855 17.28C70.3455 17.0133 69.9055 16.7533 69.2655 16.5L66.7455 15.52C64.8521 14.8133 63.9055 13.54 63.9055 11.7C63.9055 10.46 64.3521 9.46667 65.2455 8.72C66.1521 7.97333 67.3655 7.6 68.8855 7.6C70.4321 7.6 71.6721 8.00667 72.6055 8.82C73.5388 9.62 74.0055 10.6933 74.0055 12.04H70.7655C70.7655 11.3867 70.5988 10.8867 70.2655 10.54C69.9321 10.1933 69.4521 10.02 68.8255 10.02C68.3055 10.02 67.8921 10.1467 67.5855 10.4C67.2921 10.64 67.1455 10.9733 67.1455 11.4C67.1455 11.7867 67.2921 12.12 67.5855 12.4C67.8788 12.6667 68.3721 12.94 69.0655 13.22L71.3855 14.14C73.2655 14.8733 74.2055 16.1867 74.2055 18.08C74.2055 19.3867 73.7321 20.4333 72.7855 21.22C71.8521 22.0067 70.6121 22.4 69.0655 22.4ZM78.8866 10.96C78.5266 11.32 78.0732 11.5 77.5266 11.5C76.9799 11.5 76.5266 11.32 76.1666 10.96C75.8199 10.6 75.6466 10.16 75.6466 9.64C75.6466 9.10667 75.8199 8.66 76.1666 8.3C76.5266 7.94 76.9799 7.76 77.5266 7.76C78.0732 7.76 78.5266 7.94667 78.8866 8.32C79.2466 8.68 79.4266 9.12 79.4266 9.64C79.4266 10.16 79.2466 10.6 78.8866 10.96ZM75.9866 22V12.36H79.0466V22H75.9866ZM81.5725 22V12.36H84.6325V13.76C85.2058 12.6533 86.2458 12.1 87.7525 12.1C90.0992 12.1 91.2725 13.4133 91.2725 16.04V22H88.1925V17.04C88.1925 16.2133 88.0592 15.6133 87.7925 15.24C87.5392 14.8667 87.1058 14.68 86.4925 14.68C85.2525 14.68 84.6325 15.44 84.6325 16.96V22H81.5725ZM100.621 12.36H103.681V21.34C103.681 23.2067 103.061 24.5733 101.821 25.44C101.008 26.0133 99.8609 26.3 98.3809 26.3C96.9276 26.3 95.7676 26.04 94.9009 25.52C94.4076 25.2133 94.0009 24.82 93.6809 24.34C93.3609 23.86 93.1943 23.36 93.1809 22.84H96.3009C96.4476 23.6533 97.1276 24.06 98.3409 24.06C99.8609 24.06 100.621 23.28 100.621 21.72V20.44C100.381 20.9067 99.9743 21.2867 99.4009 21.58C98.8409 21.86 98.2409 22 97.6009 22C96.2009 22 95.0876 21.5467 94.2609 20.64C93.4343 19.72 93.0209 18.5333 93.0209 17.08C93.0209 15.64 93.4476 14.4533 94.3009 13.52C95.1543 12.5733 96.2676 12.1 97.6409 12.1C98.3076 12.1 98.9076 12.2533 99.4409 12.56C99.9876 12.8533 100.381 13.2467 100.621 13.74V12.36ZM98.4409 19.64C99.1476 19.64 99.7076 19.4 100.121 18.92C100.548 18.44 100.761 17.84 100.761 17.12C100.761 16.4 100.548 15.8 100.121 15.32C99.7076 14.84 99.1476 14.6 98.4409 14.6C97.7609 14.6 97.2076 14.84 96.7809 15.32C96.3676 15.7867 96.1609 16.3867 96.1609 17.12C96.1609 17.8533 96.3676 18.46 96.7809 18.94C97.2076 19.4067 97.7609 19.64 98.4409 19.64ZM112.381 12.1C114.728 12.1 115.901 13.4133 115.901 16.04V22H112.821V17.04C112.821 16.2133 112.688 15.6133 112.421 15.24C112.168 14.8667 111.735 14.68 111.121 14.68C109.881 14.68 109.261 15.44 109.261 16.96V22H106.201V8H109.261V13.76C109.835 12.6533 110.875 12.1 112.381 12.1Z" fill="#444053"/>
<path d="M1.12 42V32.2H2.352L5.712 40.194L9.072 32.2H10.304V42H9.072V34.846L6.202 42H5.222L2.352 34.804V42H1.12ZM13.0957 34.44C12.8064 34.44 12.5684 34.3467 12.3817 34.16C12.195 33.9733 12.1017 33.74 12.1017 33.46C12.1017 33.18 12.195 32.9467 12.3817 32.76C12.5684 32.564 12.8064 32.466 13.0957 32.466C13.3757 32.466 13.609 32.564 13.7957 32.76C13.9824 32.9467 14.0757 33.18 14.0757 33.46C14.0757 33.74 13.9824 33.9733 13.7957 34.16C13.609 34.3467 13.3757 34.44 13.0957 34.44ZM12.4797 42V35.546H13.6977V42H12.4797ZM18.49 42.168C17.51 42.168 16.7306 41.86 16.152 41.244C15.5733 40.6187 15.284 39.7973 15.284 38.78C15.284 37.7627 15.5733 36.946 16.152 36.33C16.7306 35.7047 17.51 35.392 18.49 35.392C19.358 35.392 20.058 35.6113 20.59 36.05C21.122 36.4793 21.4253 37.058 21.5 37.786H20.282C20.114 36.918 19.5166 36.484 18.49 36.484C17.8646 36.484 17.3746 36.6893 17.02 37.1C16.6653 37.5013 16.488 38.0613 16.488 38.78C16.488 39.4987 16.6653 40.0633 17.02 40.474C17.3746 40.8753 17.8646 41.076 18.49 41.076C19.5073 41.076 20.1046 40.656 20.282 39.816H21.5C21.4253 40.5347 21.122 41.1087 20.59 41.538C20.058 41.958 19.358 42.168 18.49 42.168ZM23.0754 42V35.546H24.2934V37.016C24.4147 36.5027 24.6527 36.1153 25.0074 35.854C25.3621 35.5833 25.7541 35.448 26.1834 35.448C26.4354 35.448 26.6314 35.4667 26.7714 35.504V36.624C26.6314 36.596 26.4307 36.582 26.1694 36.582C25.5627 36.582 25.0961 36.8247 24.7694 37.31C24.4521 37.7953 24.2934 38.416 24.2934 39.172V42H23.0754ZM30.7846 42.168C29.7579 42.168 28.9412 41.846 28.3346 41.202C27.7279 40.5487 27.4246 39.7367 27.4246 38.766C27.4246 37.7953 27.7279 36.988 28.3346 36.344C28.9412 35.7 29.7579 35.378 30.7846 35.378C31.8019 35.378 32.6139 35.7047 33.2206 36.358C33.8366 37.002 34.1446 37.8047 34.1446 38.766C34.1446 39.7367 33.8366 40.5487 33.2206 41.202C32.6139 41.846 31.8019 42.168 30.7846 42.168ZM29.2026 40.432C29.5946 40.8613 30.1219 41.076 30.7846 41.076C31.4472 41.076 31.9699 40.8613 32.3526 40.432C32.7352 39.9933 32.9266 39.438 32.9266 38.766C32.9266 38.1033 32.7352 37.5573 32.3526 37.128C31.9699 36.6893 31.4472 36.47 30.7846 36.47C30.1219 36.47 29.5946 36.6893 29.2026 37.128C28.8199 37.5573 28.6286 38.108 28.6286 38.78C28.6286 39.4427 28.8199 39.9933 29.2026 40.432ZM41.5299 38.402C41.5299 38.5793 41.5159 38.822 41.4879 39.13H36.4899C36.4992 39.746 36.6859 40.2313 37.0499 40.586C37.4139 40.9313 37.9039 41.104 38.5199 41.104C39.3786 41.104 39.9479 40.7867 40.2279 40.152H41.4459C41.3339 40.7493 41.0072 41.2347 40.4659 41.608C39.9246 41.9813 39.2759 42.168 38.5199 42.168C37.5306 42.168 36.7419 41.8647 36.1539 41.258C35.5752 40.642 35.2859 39.8113 35.2859 38.766C35.2859 37.7393 35.5752 36.918 36.1539 36.302C36.7326 35.686 37.5026 35.378 38.4639 35.378C39.3786 35.378 40.1159 35.658 40.6759 36.218C41.2452 36.778 41.5299 37.506 41.5299 38.402ZM36.4899 38.192H40.3259C40.3259 37.6227 40.1579 37.1747 39.8219 36.848C39.4952 36.5213 39.0379 36.358 38.4499 36.358C37.8712 36.358 37.4046 36.526 37.0499 36.862C36.7046 37.198 36.5179 37.6413 36.4899 38.192ZM43.1047 42V35.546H44.3227V36.736C44.5 36.316 44.78 35.9847 45.1627 35.742C45.5547 35.4993 46.026 35.378 46.5767 35.378C48.182 35.378 48.9847 36.26 48.9847 38.024V42H47.7667V38.556C47.7667 37.828 47.636 37.2913 47.3747 36.946C47.1227 36.6007 46.712 36.428 46.1427 36.428C45.5547 36.428 45.102 36.6193 44.7847 37.002C44.4767 37.3847 44.3227 37.912 44.3227 38.584V42H43.1047ZM53.545 40.978C53.881 40.978 54.1516 40.9547 54.357 40.908V41.986C54.077 42.0513 53.7176 42.084 53.279 42.084C53.083 42.084 52.9103 42.0747 52.761 42.056C52.621 42.0373 52.453 41.986 52.257 41.902C52.061 41.818 51.8976 41.7013 51.767 41.552C51.6363 41.3933 51.5243 41.174 51.431 40.894C51.3376 40.6047 51.291 40.2593 51.291 39.858V36.568H50.129V35.546H51.291V33.502H52.509V35.546H54.133V36.568H52.509V39.592C52.509 40.1613 52.593 40.5347 52.761 40.712C52.929 40.8893 53.1903 40.978 53.545 40.978ZM55.8332 42V35.546H57.0512V37.016C57.1725 36.5027 57.4105 36.1153 57.7652 35.854C58.1199 35.5833 58.5119 35.448 58.9412 35.448C59.1932 35.448 59.3892 35.4667 59.5292 35.504V36.624C59.3892 36.596 59.1885 36.582 58.9272 36.582C58.3205 36.582 57.8539 36.8247 57.5272 37.31C57.2099 37.7953 57.0512 38.416 57.0512 39.172V42H55.8332ZM66.4264 38.402C66.4264 38.5793 66.4124 38.822 66.3844 39.13H61.3864C61.3957 39.746 61.5824 40.2313 61.9464 40.586C62.3104 40.9313 62.8004 41.104 63.4164 41.104C64.2751 41.104 64.8444 40.7867 65.1244 40.152H66.3424C66.2304 40.7493 65.9037 41.2347 65.3624 41.608C64.8211 41.9813 64.1724 42.168 63.4164 42.168C62.4271 42.168 61.6384 41.8647 61.0504 41.258C60.4717 40.642 60.1824 39.8113 60.1824 38.766C60.1824 37.7393 60.4717 36.918 61.0504 36.302C61.6291 35.686 62.3991 35.378 63.3604 35.378C64.2751 35.378 65.0124 35.658 65.5724 36.218C66.1417 36.778 66.4264 37.506 66.4264 38.402ZM61.3864 38.192H65.2224C65.2224 37.6227 65.0544 37.1747 64.7184 36.848C64.3917 36.5213 63.9344 36.358 63.3464 36.358C62.7677 36.358 62.3011 36.526 61.9464 36.862C61.6011 37.198 61.4144 37.6413 61.3864 38.192ZM71.5852 35.378C72.5092 35.378 73.2605 35.6953 73.8392 36.33C74.4178 36.9553 74.7072 37.772 74.7072 38.78C74.7072 39.7693 74.4085 40.5813 73.8112 41.216C73.2138 41.8507 72.4485 42.168 71.5152 42.168C71.0205 42.168 70.5632 42.0513 70.1432 41.818C69.7325 41.5847 69.4245 41.2673 69.2192 40.866V44.982H68.0012V35.546H69.2192V36.68C69.4245 36.2787 69.7372 35.9613 70.1572 35.728C70.5865 35.4947 71.0625 35.378 71.5852 35.378ZM71.3472 41.076C71.9725 41.076 72.4858 40.8613 72.8872 40.432C73.2885 40.0027 73.4892 39.452 73.4892 38.78C73.4892 38.108 73.2885 37.5573 72.8872 37.128C72.4858 36.6893 71.9725 36.47 71.3472 36.47C70.7032 36.47 70.1758 36.6847 69.7652 37.114C69.3638 37.5433 69.1632 38.0987 69.1632 38.78C69.1632 39.452 69.3638 40.0027 69.7652 40.432C70.1758 40.8613 70.7032 41.076 71.3472 41.076ZM76.2727 42V35.546H77.4907V37.016C77.612 36.5027 77.85 36.1153 78.2047 35.854C78.5593 35.5833 78.9513 35.448 79.3807 35.448C79.6327 35.448 79.8287 35.4667 79.9687 35.504V36.624C79.8287 36.596 79.628 36.582 79.3667 36.582C78.76 36.582 78.2933 36.8247 77.9667 37.31C77.6493 37.7953 77.4907 38.416 77.4907 39.172V42H76.2727ZM86.8658 38.402C86.8658 38.5793 86.8518 38.822 86.8238 39.13H81.8258C81.8352 39.746 82.0218 40.2313 82.3858 40.586C82.7498 40.9313 83.2398 41.104 83.8558 41.104C84.7145 41.104 85.2838 40.7867 85.5638 40.152H86.7818C86.6698 40.7493 86.3432 41.2347 85.8018 41.608C85.2605 41.9813 84.6118 42.168 83.8558 42.168C82.8665 42.168 82.0778 41.8647 81.4898 41.258C80.9112 40.642 80.6218 39.8113 80.6218 38.766C80.6218 37.7393 80.9112 36.918 81.4898 36.302C82.0685 35.686 82.8385 35.378 83.7998 35.378C84.7145 35.378 85.4518 35.658 86.0118 36.218C86.5812 36.778 86.8658 37.506 86.8658 38.402ZM81.8258 38.192H85.6618C85.6618 37.6227 85.4938 37.1747 85.1578 36.848C84.8312 36.5213 84.3738 36.358 83.7858 36.358C83.2072 36.358 82.7405 36.526 82.3858 36.862C82.0405 37.198 81.8538 37.6413 81.8258 38.192ZM88.4406 42V35.546H89.6586V36.736C89.836 36.316 90.116 35.9847 90.4986 35.742C90.8906 35.4993 91.362 35.378 91.9126 35.378C93.518 35.378 94.3206 36.26 94.3206 38.024V42H93.1026V38.556C93.1026 37.828 92.972 37.2913 92.7106 36.946C92.4586 36.6007 92.048 36.428 91.4786 36.428C90.8906 36.428 90.438 36.6193 90.1206 37.002C89.8126 37.3847 89.6586 37.912 89.6586 38.584V42H88.4406ZM102.083 38.402C102.083 38.5793 102.069 38.822 102.041 39.13H97.0426C97.052 39.746 97.2386 40.2313 97.6026 40.586C97.9666 40.9313 98.4566 41.104 99.0726 41.104C99.9313 41.104 100.501 40.7867 100.781 40.152H101.999C101.887 40.7493 101.56 41.2347 101.019 41.608C100.477 41.9813 99.8286 42.168 99.0726 42.168C98.0833 42.168 97.2946 41.8647 96.7066 41.258C96.128 40.642 95.8386 39.8113 95.8386 38.766C95.8386 37.7393 96.128 36.918 96.7066 36.302C97.2853 35.686 98.0553 35.378 99.0166 35.378C99.9313 35.378 100.669 35.658 101.229 36.218C101.798 36.778 102.083 37.506 102.083 38.402ZM97.0426 38.192H100.879C100.879 37.6227 100.711 37.1747 100.375 36.848C100.048 36.5213 99.5906 36.358 99.0026 36.358C98.424 36.358 97.9573 36.526 97.6026 36.862C97.2573 37.198 97.0706 37.6413 97.0426 38.192ZM106.037 42.168C105.291 42.168 104.693 41.944 104.245 41.496C103.807 41.0387 103.587 40.3807 103.587 39.522V35.546H104.805V39.228C104.805 40.488 105.328 41.118 106.373 41.118C106.989 41.118 107.447 40.922 107.745 40.53C108.053 40.1287 108.207 39.6433 108.207 39.074V35.546H109.425V42H108.207V40.824C108.03 41.2347 107.75 41.5613 107.367 41.804C106.994 42.0467 106.551 42.168 106.037 42.168ZM111.519 42V35.546H112.737V37.016C112.858 36.5027 113.096 36.1153 113.451 35.854C113.805 35.5833 114.197 35.448 114.627 35.448C114.879 35.448 115.075 35.4667 115.215 35.504V36.624C115.075 36.596 114.874 36.582 114.613 36.582C114.006 36.582 113.539 36.8247 113.213 37.31C112.895 37.7953 112.737 38.416 112.737 39.172V42H111.519ZM116.054 43.68C115.868 43.68 115.709 43.666 115.578 43.638V43.05C115.69 43.0687 115.863 43.078 116.096 43.078C116.479 43.078 116.74 42.9193 116.88 42.602C117.002 42.406 117.062 42.154 117.062 41.846C116.941 41.9953 116.75 42.07 116.488 42.07C116.218 42.07 115.994 41.9813 115.816 41.804C115.639 41.6267 115.55 41.3933 115.55 41.104C115.55 40.8147 115.644 40.5767 115.83 40.39C116.026 40.2033 116.269 40.11 116.558 40.11C116.894 40.11 117.188 40.25 117.44 40.53C117.702 40.8007 117.832 41.1927 117.832 41.706C117.832 42.294 117.674 42.77 117.356 43.134C117.048 43.498 116.614 43.68 116.054 43.68ZM123.388 42V32.2H128.96V33.348H124.662V36.554H128.96V37.702H124.662V40.852H128.96V42H123.388ZM133.511 42.168C132.512 42.168 131.728 41.8507 131.159 41.216C130.599 40.5813 130.319 39.7693 130.319 38.78C130.319 37.8 130.608 36.988 131.187 36.344C131.775 35.7 132.559 35.378 133.539 35.378C134.043 35.378 134.496 35.4947 134.897 35.728C135.298 35.9613 135.602 36.2787 135.807 36.68V35.546H137.011V42H135.807V40.866C135.602 41.258 135.289 41.5753 134.869 41.818C134.449 42.0513 133.996 42.168 133.511 42.168ZM133.679 41.076C134.36 41.076 134.892 40.8567 135.275 40.418C135.667 39.97 135.863 39.424 135.863 38.78C135.863 38.1267 135.667 37.5807 135.275 37.142C134.892 36.694 134.36 36.47 133.679 36.47C133.026 36.47 132.503 36.6893 132.111 37.128C131.719 37.5573 131.523 38.108 131.523 38.78C131.523 39.452 131.719 40.0027 132.111 40.432C132.503 40.8613 133.026 41.076 133.679 41.076ZM139.109 42V35.546H140.327V37.016C140.448 36.5027 140.686 36.1153 141.041 35.854C141.395 35.5833 141.787 35.448 142.217 35.448C142.469 35.448 142.665 35.4667 142.805 35.504V36.624C142.665 36.596 142.464 36.582 142.203 36.582C141.596 36.582 141.129 36.8247 140.803 37.31C140.485 37.7953 140.327 38.416 140.327 39.172V42H139.109ZM144.167 42V35.546H145.385V36.736C145.563 36.316 145.843 35.9847 146.225 35.742C146.617 35.4993 147.089 35.378 147.639 35.378C149.245 35.378 150.047 36.26 150.047 38.024V42H148.829V38.556C148.829 37.828 148.699 37.2913 148.437 36.946C148.185 36.6007 147.775 36.428 147.205 36.428C146.617 36.428 146.165 36.6193 145.847 37.002C145.539 37.3847 145.385 37.912 145.385 38.584V42H144.167ZM154.253 42.168C153.441 42.168 152.788 41.9673 152.293 41.566C151.808 41.1553 151.565 40.656 151.565 40.068H152.769C152.769 40.3947 152.909 40.6653 153.189 40.88C153.469 41.0853 153.843 41.188 154.309 41.188C154.673 41.188 154.963 41.104 155.177 40.936C155.392 40.768 155.499 40.5393 155.499 40.25C155.499 39.7927 155.289 39.5127 154.869 39.41L153.147 38.962C152.223 38.71 151.761 38.1313 151.761 37.226C151.761 36.694 151.985 36.2553 152.433 35.91C152.881 35.5553 153.465 35.378 154.183 35.378C154.967 35.378 155.574 35.56 156.003 35.924C156.442 36.2787 156.661 36.7453 156.661 37.324H155.457C155.457 37.016 155.341 36.7733 155.107 36.596C154.874 36.4093 154.547 36.316 154.127 36.316C153.791 36.316 153.511 36.3953 153.287 36.554C153.073 36.7033 152.965 36.9087 152.965 37.17C152.965 37.6087 153.203 37.884 153.679 37.996L155.289 38.444C155.747 38.5653 156.101 38.78 156.353 39.088C156.605 39.396 156.731 39.746 156.731 40.138C156.731 40.754 156.512 41.2487 156.073 41.622C155.635 41.986 155.028 42.168 154.253 42.168ZM164.307 42.168C163.56 42.168 162.963 41.944 162.515 41.496C162.076 41.0387 161.857 40.3807 161.857 39.522V35.546H163.075V39.228C163.075 40.488 163.598 41.118 164.643 41.118C165.259 41.118 165.716 40.922 166.015 40.53C166.323 40.1287 166.477 39.6433 166.477 39.074V35.546H167.695V42H166.477V40.824C166.3 41.2347 166.02 41.5613 165.637 41.804C165.264 42.0467 164.82 42.168 164.307 42.168ZM173.372 35.378C174.296 35.378 175.048 35.6953 175.626 36.33C176.205 36.9553 176.494 37.772 176.494 38.78C176.494 39.7693 176.196 40.5813 175.598 41.216C175.001 41.8507 174.236 42.168 173.302 42.168C172.808 42.168 172.35 42.0513 171.93 41.818C171.52 41.5847 171.212 41.2673 171.006 40.866V44.982H169.788V35.546H171.006V36.68C171.212 36.2787 171.524 35.9613 171.944 35.728C172.374 35.4947 172.85 35.378 173.372 35.378ZM173.134 41.076C173.76 41.076 174.273 40.8613 174.674 40.432C175.076 40.0027 175.276 39.452 175.276 38.78C175.276 38.108 175.076 37.5573 174.674 37.128C174.273 36.6893 173.76 36.47 173.134 36.47C172.49 36.47 171.963 36.6847 171.552 37.114C171.151 37.5433 170.95 38.0987 170.95 38.78C170.95 39.452 171.151 40.0027 171.552 40.432C171.963 40.8613 172.49 41.076 173.134 41.076ZM180.707 40.978C181.043 40.978 181.314 40.9547 181.519 40.908V41.986C181.239 42.0513 180.88 42.084 180.441 42.084C180.245 42.084 180.072 42.0747 179.923 42.056C179.783 42.0373 179.615 41.986 179.419 41.902C179.223 41.818 179.06 41.7013 178.929 41.552C178.798 41.3933 178.686 41.174 178.593 40.894C178.5 40.6047 178.453 40.2593 178.453 39.858V36.568H177.291V35.546H178.453V33.502H179.671V35.546H181.295V36.568H179.671V39.592C179.671 40.1613 179.755 40.5347 179.923 40.712C180.091 40.8893 180.352 40.978 180.707 40.978ZM185.755 42.168C184.729 42.168 183.912 41.846 183.305 41.202C182.699 40.5487 182.395 39.7367 182.395 38.766C182.395 37.7953 182.699 36.988 183.305 36.344C183.912 35.7 184.729 35.378 185.755 35.378C186.773 35.378 187.585 35.7047 188.191 36.358C188.807 37.002 189.115 37.8047 189.115 38.766C189.115 39.7367 188.807 40.5487 188.191 41.202C187.585 41.846 186.773 42.168 185.755 42.168ZM184.173 40.432C184.565 40.8613 185.093 41.076 185.755 41.076C186.418 41.076 186.941 40.8613 187.323 40.432C187.706 39.9933 187.897 39.438 187.897 38.766C187.897 38.1033 187.706 37.5573 187.323 37.128C186.941 36.6893 186.418 36.47 185.755 36.47C185.093 36.47 184.565 36.6893 184.173 37.128C183.791 37.5573 183.599 38.108 183.599 38.78C183.599 39.4427 183.791 39.9933 184.173 40.432ZM197.286 42.154C196.38 42.154 195.629 41.9113 195.032 41.426C194.434 40.9313 194.112 40.2967 194.066 39.522H195.354C195.382 39.9793 195.573 40.3433 195.928 40.614C196.292 40.8847 196.749 41.02 197.3 41.02C197.953 41.02 198.466 40.8193 198.84 40.418C199.213 40.0167 199.4 39.4707 199.4 38.78C199.4 38.108 199.227 37.576 198.882 37.184C198.536 36.792 198.065 36.596 197.468 36.596C196.945 36.596 196.52 36.694 196.194 36.89C195.876 37.0767 195.624 37.3847 195.438 37.814H194.248V32.48H200.044V33.614H195.41V36.54C195.895 35.8867 196.637 35.56 197.636 35.56C198.55 35.56 199.278 35.8493 199.82 36.428C200.361 36.9973 200.632 37.7673 200.632 38.738C200.632 39.7273 200.324 40.544 199.708 41.188C199.092 41.832 198.284 42.154 197.286 42.154ZM208.208 40.908C207.601 41.7387 206.71 42.154 205.534 42.154C204.358 42.154 203.462 41.7387 202.846 40.908C202.239 40.068 201.936 38.8407 201.936 37.226C201.936 35.6207 202.239 34.4027 202.846 33.572C203.462 32.732 204.358 32.312 205.534 32.312C206.71 32.312 207.601 32.732 208.208 33.572C208.824 34.4027 209.132 35.6207 209.132 37.226C209.132 38.8407 208.824 40.068 208.208 40.908ZM205.534 41.034C207.12 41.034 207.914 39.7647 207.914 37.226C207.914 34.6967 207.12 33.432 205.534 33.432C203.938 33.432 203.14 34.6967 203.14 37.226C203.14 39.7647 203.938 41.034 205.534 41.034ZM217.957 32.2L213.407 37.044L217.957 42H216.305L212.203 37.436V42H210.929V32.2H212.203V36.792L216.319 32.2H217.957ZM222.726 42V35.546H223.944V36.722C224.074 36.3393 224.308 36.022 224.644 35.77C224.98 35.5087 225.39 35.378 225.876 35.378C226.986 35.378 227.677 35.84 227.948 36.764C228.097 36.3627 228.358 36.0313 228.732 35.77C229.105 35.5087 229.534 35.378 230.02 35.378C231.569 35.378 232.344 36.2227 232.344 37.912V42H231.126V38.15C231.126 37.002 230.659 36.428 229.726 36.428C228.671 36.428 228.144 37.1653 228.144 38.64V42H226.926V38.234C226.926 37.03 226.464 36.428 225.54 36.428C225.036 36.428 224.644 36.6147 224.364 36.988C224.084 37.352 223.944 37.9027 223.944 38.64V42H222.726ZM237.216 42.168C236.19 42.168 235.373 41.846 234.766 41.202C234.16 40.5487 233.856 39.7367 233.856 38.766C233.856 37.7953 234.16 36.988 234.766 36.344C235.373 35.7 236.19 35.378 237.216 35.378C238.234 35.378 239.046 35.7047 239.652 36.358C240.268 37.002 240.576 37.8047 240.576 38.766C240.576 39.7367 240.268 40.5487 239.652 41.202C239.046 41.846 238.234 42.168 237.216 42.168ZM235.634 40.432C236.026 40.8613 236.554 41.076 237.216 41.076C237.879 41.076 238.402 40.8613 238.784 40.432C239.167 39.9933 239.358 39.438 239.358 38.766C239.358 38.1033 239.167 37.5573 238.784 37.128C238.402 36.6893 237.879 36.47 237.216 36.47C236.554 36.47 236.026 36.6893 235.634 37.128C235.252 37.5573 235.06 38.108 235.06 38.78C235.06 39.4427 235.252 39.9933 235.634 40.432ZM242.154 42V35.546H243.372V36.736C243.549 36.316 243.829 35.9847 244.212 35.742C244.604 35.4993 245.075 35.378 245.626 35.378C247.231 35.378 248.034 36.26 248.034 38.024V42H246.816V38.556C246.816 37.828 246.685 37.2913 246.424 36.946C246.172 36.6007 245.761 36.428 245.192 36.428C244.604 36.428 244.151 36.6193 243.834 37.002C243.526 37.3847 243.372 37.912 243.372 38.584V42H242.154ZM252.594 40.978C252.93 40.978 253.2 40.9547 253.406 40.908V41.986C253.126 42.0513 252.766 42.084 252.328 42.084C252.132 42.084 251.959 42.0747 251.81 42.056C251.67 42.0373 251.502 41.986 251.306 41.902C251.11 41.818 250.946 41.7013 250.816 41.552C250.685 41.3933 250.573 41.174 250.48 40.894C250.386 40.6047 250.34 40.2593 250.34 39.858V36.568H249.178V35.546H250.34V33.502H251.558V35.546H253.182V36.568H251.558V39.592C251.558 40.1613 251.642 40.5347 251.81 40.712C251.978 40.8893 252.239 40.978 252.594 40.978ZM258.368 35.378C259.973 35.378 260.776 36.26 260.776 38.024V42H259.558V38.556C259.558 37.828 259.427 37.2913 259.166 36.946C258.914 36.6007 258.503 36.428 257.934 36.428C257.346 36.428 256.893 36.6193 256.576 37.002C256.268 37.3847 256.114 37.912 256.114 38.584V42H254.896V32.2H256.114V36.736C256.291 36.316 256.571 35.9847 256.954 35.742C257.346 35.4993 257.817 35.378 258.368 35.378ZM262.771 42V32.2H263.989V42H262.771ZM270.713 35.546H271.931V42.126C271.931 43.1433 271.637 43.918 271.049 44.45C270.526 44.9167 269.822 45.15 268.935 45.15C268.002 45.15 267.274 44.926 266.751 44.478C266.275 44.0767 266.032 43.5213 266.023 42.812H267.255C267.302 43.6893 267.857 44.128 268.921 44.128C270.116 44.128 270.713 43.4327 270.713 42.042V40.838C270.284 41.7247 269.537 42.168 268.473 42.168C267.661 42.168 267.05 41.9207 266.639 41.426C266.228 40.922 266.023 40.2453 266.023 39.396V35.546H267.241V39.144C267.241 39.7693 267.362 40.25 267.605 40.586C267.857 40.9127 268.282 41.076 268.879 41.076C269.467 41.076 269.92 40.866 270.237 40.446C270.554 40.0167 270.713 39.4893 270.713 38.864V35.546Z" fill="#444053"/>
</svg>
