<svg width="1260" height="602" viewBox="0 0 1260 602" fill="none" xmlns="http://www.w3.org/2000/svg">
<path d="M3.1 41V6H25.6V14.5H13.5V22.25H25.6V30.45H13.5V41H3.1ZM35.3379 15.3C33.7712 15.3 32.4712 14.7833 31.4379 13.75C30.4046 12.6833 29.8879 11.4167 29.8879 9.95C29.8879 8.45 30.4046 7.18333 31.4379 6.15C32.4712 5.11666 33.7712 4.6 35.3379 4.6C36.8712 4.6 38.1546 5.11666 39.1879 6.15C40.2546 7.18333 40.7879 8.45 40.7879 9.95C40.7879 11.4167 40.2546 12.6833 39.1879 13.75C38.1546 14.7833 36.8712 15.3 35.3379 15.3ZM30.4379 41V16.15H40.2379V41H30.4379ZM45.9164 41V16.15H55.7164V19.8C57.0497 16.9 59.7331 15.45 63.7664 15.45C69.8331 15.45 72.8664 18.9167 72.8664 25.85V41H62.8664V28.35C62.8664 25.2167 61.7164 23.65 59.4164 23.65C56.9497 23.65 55.7164 25.2833 55.7164 28.55V41H45.9164ZM95.5895 6H105.389V41H95.5395V37.3C94.9728 38.6 93.9895 39.6667 92.5895 40.5C91.2228 41.3 89.6228 41.7 87.7895 41.7C84.3561 41.7 81.6228 40.4833 79.5895 38.05C77.5561 35.6167 76.5395 32.4667 76.5395 28.6C76.5395 24.7333 77.5728 21.5833 79.6395 19.15C81.7061 16.6833 84.4395 15.45 87.8395 15.45C89.7061 15.45 91.3061 15.85 92.6395 16.65C93.9728 17.45 94.9395 18.5167 95.5395 19.85V16.15H95.5895V6ZM91.2895 33.8C92.7228 33.8 93.8561 33.3167 94.6895 32.35C95.5561 31.35 95.9895 30.1 95.9895 28.6C95.9895 27.0667 95.5561 25.8167 94.6895 24.85C93.8561 23.85 92.7228 23.35 91.2895 23.35C89.8895 23.35 88.7728 23.85 87.9395 24.85C87.1061 25.8167 86.6895 27.0667 86.6895 28.6C86.6895 30.1333 87.1061 31.3833 87.9395 32.35C88.7728 33.3167 89.8895 33.8 91.2895 33.8ZM132.318 41L119.718 6H130.768L137.068 27.1L143.118 6H151.368L157.418 27.1L163.718 6H174.768L162.168 41H153.068L147.268 21.95L141.418 41H132.318ZM195.114 15.45C201.181 15.45 204.214 18.9167 204.214 25.85V41H194.214V28.35C194.214 25.2167 193.064 23.65 190.764 23.65C188.297 23.65 187.064 25.2833 187.064 28.55V41H177.264V6H187.064V19.8C188.397 16.9 191.081 15.45 195.114 15.45ZM219.137 41.7C215.704 41.7 212.97 40.4833 210.937 38.05C208.904 35.6167 207.887 32.4667 207.887 28.6C207.887 24.7333 208.92 21.5833 210.987 19.15C213.054 16.6833 215.787 15.45 219.187 15.45C221.054 15.45 222.654 15.85 223.987 16.65C225.32 17.45 226.287 18.5167 226.887 19.85V16.15H236.737V41H226.887V37.3C226.32 38.6 225.337 39.6667 223.937 40.5C222.57 41.3 220.97 41.7 219.137 41.7ZM222.637 33.8C224.07 33.8 225.204 33.3167 226.037 32.35C226.904 31.35 227.337 30.1 227.337 28.6C227.337 27.0667 226.904 25.8167 226.037 24.85C225.204 23.85 224.07 23.35 222.637 23.35C221.237 23.35 220.12 23.85 219.287 24.85C218.454 25.8167 218.037 27.0667 218.037 28.6C218.037 30.1333 218.454 31.3833 219.287 32.35C220.12 33.3167 221.237 33.8 222.637 33.8ZM257.151 33.75C257.751 33.75 258.584 33.6833 259.651 33.55V41C257.784 41.3333 255.751 41.5 253.551 41.5C252.251 41.5 251.101 41.3833 250.101 41.15C249.101 40.9167 248.101 40.5 247.101 39.9C246.101 39.2667 245.317 38.3 244.751 37C244.217 35.6667 243.951 34.0167 243.951 32.05V23.65H240.301V16.15H243.951V8.9H253.751V16.15H259.401V23.65H253.751V30C253.751 32.5 254.884 33.75 257.151 33.75ZM275.61 41V6H288.81L296.26 28.85L303.66 6H316.56V41H306.56V18.8L300.16 41H292.46L285.61 18.7V41H275.61ZM332.028 41.7C328.594 41.7 325.861 40.4833 323.828 38.05C321.794 35.6167 320.778 32.4667 320.778 28.6C320.778 24.7333 321.811 21.5833 323.878 19.15C325.944 16.6833 328.678 15.45 332.078 15.45C333.944 15.45 335.544 15.85 336.878 16.65C338.211 17.45 339.178 18.5167 339.778 19.85V16.15H349.628V41H339.778V37.3C339.211 38.6 338.228 39.6667 336.828 40.5C335.461 41.3 333.861 41.7 332.028 41.7ZM335.528 33.8C336.961 33.8 338.094 33.3167 338.928 32.35C339.794 31.35 340.228 30.1 340.228 28.6C340.228 27.0667 339.794 25.8167 338.928 24.85C338.094 23.85 336.961 23.35 335.528 23.35C334.128 23.35 333.011 23.85 332.178 24.85C331.344 25.8167 330.928 27.0667 330.928 28.6C330.928 30.1333 331.344 31.3833 332.178 32.35C333.011 33.3167 334.128 33.8 335.528 33.8ZM370.041 33.75C370.641 33.75 371.475 33.6833 372.541 33.55V41C370.675 41.3333 368.641 41.5 366.441 41.5C365.141 41.5 363.991 41.3833 362.991 41.15C361.991 40.9167 360.991 40.5 359.991 39.9C358.991 39.2667 358.208 38.3 357.641 37C357.108 35.6667 356.841 34.0167 356.841 32.05V23.65H353.191V16.15H356.841V8.9H366.641V16.15H372.291V23.65H366.641V30C366.641 32.5 367.775 33.75 370.041 33.75ZM388.779 41.85C384.479 41.85 381.029 40.6333 378.429 38.2C375.829 35.7667 374.529 32.55 374.529 28.55C374.529 24.55 375.829 21.3333 378.429 18.9C381.029 16.4667 384.479 15.25 388.779 15.25C392.713 15.25 395.913 16.2333 398.379 18.2C400.879 20.1333 402.296 22.75 402.629 26.05H392.829C392.396 24.25 391.046 23.35 388.779 23.35C387.379 23.35 386.279 23.8167 385.479 24.75C384.713 25.65 384.329 26.9167 384.329 28.55C384.329 30.1833 384.713 31.4667 385.479 32.4C386.279 33.3 387.379 33.75 388.779 33.75C391.013 33.75 392.363 32.8667 392.829 31.1H402.629C402.296 34.4 400.879 37.0167 398.379 38.95C395.913 40.8833 392.713 41.85 388.779 41.85ZM424.069 15.45C430.136 15.45 433.169 18.9167 433.169 25.85V41H423.169V28.35C423.169 25.2167 422.019 23.65 419.719 23.65C417.252 23.65 416.019 25.2833 416.019 28.55V41H406.219V6H416.019V19.8C417.352 16.9 420.036 15.45 424.069 15.45ZM464.842 27.3C464.842 28.5333 464.759 29.75 464.592 30.95H446.292C446.359 32.25 446.809 33.2667 447.642 34C448.509 34.7333 449.642 35.1 451.042 35.1C453.142 35.1 454.442 34.4833 454.942 33.25H464.442C464.009 35.8833 462.576 37.9833 460.142 39.55C457.709 41.0833 454.676 41.85 451.042 41.85C446.509 41.85 442.942 40.7 440.342 38.4C437.776 36.0667 436.492 32.8 436.492 28.6C436.492 24.4667 437.792 21.2167 440.392 18.85C442.992 16.45 446.476 15.25 450.842 15.25C454.976 15.25 458.342 16.3667 460.942 18.6C463.542 20.8333 464.842 23.7333 464.842 27.3ZM446.292 25.55H455.042C455.009 24.1833 454.626 23.1167 453.892 22.35C453.159 21.5833 452.109 21.2 450.742 21.2C449.409 21.2 448.342 21.6 447.542 22.4C446.776 23.2 446.359 24.25 446.292 25.55ZM479.623 41.85C475.623 41.85 472.489 41.1 470.223 39.6C467.956 38.1 466.823 36.1 466.823 33.6H476.573C476.573 34.3 476.856 34.8667 477.423 35.3C477.989 35.7333 478.739 35.95 479.673 35.95C480.339 35.95 480.873 35.8 481.273 35.5C481.706 35.1667 481.923 34.7333 481.923 34.2C481.923 33.4 481.356 32.85 480.223 32.55L474.323 31.2C472.056 30.7 470.306 29.8167 469.073 28.55C467.873 27.25 467.273 25.6333 467.273 23.7C467.273 21.1 468.306 19.05 470.373 17.55C472.473 16.0167 475.323 15.25 478.923 15.25C482.923 15.25 485.973 15.9333 488.073 17.3C490.173 18.6333 491.223 20.55 491.223 23.05H481.573C481.573 21.6167 480.689 20.9 478.923 20.9C478.289 20.9 477.773 21.0333 477.373 21.3C476.973 21.5667 476.773 21.9333 476.773 22.4C476.773 23.3333 477.473 23.9667 478.873 24.3L484.723 25.8C489.323 26.9667 491.623 29.35 491.623 32.95C491.623 35.6833 490.539 37.85 488.373 39.45C486.206 41.05 483.289 41.85 479.623 41.85ZM527.189 6H538.789L521.439 41H509.789L515.789 28.7L504.039 6H516.289L521.839 18.5L527.189 6ZM547.866 41.85C543.499 41.85 539.999 40.6333 537.366 38.2C534.733 35.7333 533.416 32.5167 533.416 28.55C533.416 24.5833 534.733 21.3833 537.366 18.95C539.999 16.4833 543.499 15.25 547.866 15.25C552.266 15.25 555.783 16.4833 558.416 18.95C561.049 21.3833 562.366 24.5833 562.366 28.55C562.366 32.5167 561.049 35.7333 558.416 38.2C555.783 40.6333 552.266 41.85 547.866 41.85ZM547.866 33.8C549.299 33.8 550.433 33.3167 551.266 32.35C552.099 31.3833 552.516 30.1167 552.516 28.55C552.516 26.9833 552.099 25.7167 551.266 24.75C550.433 23.7833 549.299 23.3 547.866 23.3C546.466 23.3 545.333 23.8 544.466 24.8C543.633 25.7667 543.216 27.0167 543.216 28.55C543.216 30.0833 543.633 31.35 544.466 32.35C545.333 33.3167 546.466 33.8 547.866 33.8ZM574.885 41.7C571.751 41.7 569.435 40.7833 567.935 38.95C566.468 37.1167 565.735 34.5667 565.735 31.3V16.15H575.685V29.15C575.685 32.05 576.801 33.5 579.035 33.5C581.401 33.5 582.585 31.95 582.585 28.85V16.15H592.435V41H582.585V37.3C581.285 40.2333 578.718 41.7 574.885 41.7ZM598.065 41V16.15H607.865V21.7C608.298 19.8 609.165 18.3167 610.465 17.25C611.765 16.1833 613.282 15.65 615.015 15.65C615.648 15.65 616.265 15.7 616.865 15.8V25.05C616.032 24.9167 615.198 24.85 614.365 24.85C612.332 24.85 610.732 25.4333 609.565 26.6C608.432 27.7333 607.865 29.75 607.865 32.65V41H598.065ZM632.641 41V6H643.041V41H632.641ZM648.993 41V16.15H658.793V19.8C660.126 16.9 662.809 15.45 666.843 15.45C672.909 15.45 675.943 18.9167 675.943 25.85V41H665.943V28.35C665.943 25.2167 664.793 23.65 662.493 23.65C660.026 23.65 658.793 25.2833 658.793 28.55V41H648.993ZM695.871 33.75C696.471 33.75 697.305 33.6833 698.371 33.55V41C696.505 41.3333 694.471 41.5 692.271 41.5C690.971 41.5 689.821 41.3833 688.821 41.15C687.821 40.9167 686.821 40.5 685.821 39.9C684.821 39.2667 684.038 38.3 683.471 37C682.938 35.6667 682.671 34.0167 682.671 32.05V23.65H679.021V16.15H682.671V8.9H692.471V16.15H698.121V23.65H692.471V30C692.471 32.5 693.605 33.75 695.871 33.75ZM728.709 27.3C728.709 28.5333 728.626 29.75 728.459 30.95H710.159C710.226 32.25 710.676 33.2667 711.509 34C712.376 34.7333 713.509 35.1 714.909 35.1C717.009 35.1 718.309 34.4833 718.809 33.25H728.309C727.876 35.8833 726.443 37.9833 724.009 39.55C721.576 41.0833 718.543 41.85 714.909 41.85C710.376 41.85 706.809 40.7 704.209 38.4C701.643 36.0667 700.359 32.8 700.359 28.6C700.359 24.4667 701.659 21.2167 704.259 18.85C706.859 16.45 710.343 15.25 714.709 15.25C718.843 15.25 722.209 16.3667 724.809 18.6C727.409 20.8333 728.709 23.7333 728.709 27.3ZM710.159 25.55H718.909C718.876 24.1833 718.493 23.1167 717.759 22.35C717.026 21.5833 715.976 21.2 714.609 21.2C713.276 21.2 712.209 21.6 711.409 22.4C710.643 23.2 710.226 24.25 710.159 25.55ZM732.293 41V16.15H742.093V21.7C742.527 19.8 743.393 18.3167 744.693 17.25C745.993 16.1833 747.51 15.65 749.243 15.65C749.877 15.65 750.493 15.7 751.093 15.8V25.05C750.26 24.9167 749.427 24.85 748.593 24.85C746.56 24.85 744.96 25.4333 743.793 26.6C742.66 27.7333 742.093 29.75 742.093 32.65V41H732.293ZM781.395 27.3C781.395 28.5333 781.312 29.75 781.145 30.95H762.845C762.912 32.25 763.362 33.2667 764.195 34C765.062 34.7333 766.195 35.1 767.595 35.1C769.695 35.1 770.995 34.4833 771.495 33.25H780.995C780.562 35.8833 779.128 37.9833 776.695 39.55C774.262 41.0833 771.228 41.85 767.595 41.85C763.062 41.85 759.495 40.7 756.895 38.4C754.328 36.0667 753.045 32.8 753.045 28.6C753.045 24.4667 754.345 21.2167 756.945 18.85C759.545 16.45 763.028 15.25 767.395 15.25C771.528 15.25 774.895 16.3667 777.495 18.6C780.095 20.8333 781.395 23.7333 781.395 27.3ZM762.845 25.55H771.595C771.562 24.1833 771.178 23.1167 770.445 22.35C769.712 21.5833 768.662 21.2 767.295 21.2C765.962 21.2 764.895 21.6 764.095 22.4C763.328 23.2 762.912 24.25 762.845 25.55ZM796.175 41.85C792.175 41.85 789.042 41.1 786.775 39.6C784.509 38.1 783.375 36.1 783.375 33.6H793.125C793.125 34.3 793.409 34.8667 793.975 35.3C794.542 35.7333 795.292 35.95 796.225 35.95C796.892 35.95 797.425 35.8 797.825 35.5C798.259 35.1667 798.475 34.7333 798.475 34.2C798.475 33.4 797.909 32.85 796.775 32.55L790.875 31.2C788.609 30.7 786.859 29.8167 785.625 28.55C784.425 27.25 783.825 25.6333 783.825 23.7C783.825 21.1 784.859 19.05 786.925 17.55C789.025 16.0167 791.875 15.25 795.475 15.25C799.475 15.25 802.525 15.9333 804.625 17.3C806.725 18.6333 807.775 20.55 807.775 23.05H798.125C798.125 21.6167 797.242 20.9 795.475 20.9C794.842 20.9 794.325 21.0333 793.925 21.3C793.525 21.5667 793.325 21.9333 793.325 22.4C793.325 23.3333 794.025 23.9667 795.425 24.3L801.275 25.8C805.875 26.9667 808.175 29.35 808.175 32.95C808.175 35.6833 807.092 37.85 804.925 39.45C802.759 41.05 799.842 41.85 796.175 41.85ZM826.78 33.75C827.38 33.75 828.213 33.6833 829.28 33.55V41C827.413 41.3333 825.38 41.5 823.18 41.5C821.88 41.5 820.73 41.3833 819.73 41.15C818.73 40.9167 817.73 40.5 816.73 39.9C815.73 39.2667 814.946 38.3 814.38 37C813.846 35.6667 813.58 34.0167 813.58 32.05V23.65H809.93V16.15H813.58V8.9H823.38V16.15H829.03V23.65H823.38V30C823.38 32.5 824.513 33.75 826.78 33.75ZM844.076 41.85C840.076 41.85 836.942 41.1 834.676 39.6C832.409 38.1 831.276 36.1 831.276 33.6H841.026C841.026 34.3 841.309 34.8667 841.876 35.3C842.442 35.7333 843.192 35.95 844.126 35.95C844.792 35.95 845.326 35.8 845.726 35.5C846.159 35.1667 846.376 34.7333 846.376 34.2C846.376 33.4 845.809 32.85 844.676 32.55L838.776 31.2C836.509 30.7 834.759 29.8167 833.526 28.55C832.326 27.25 831.726 25.6333 831.726 23.7C831.726 21.1 832.759 19.05 834.826 17.55C836.926 16.0167 839.776 15.25 843.376 15.25C847.376 15.25 850.426 15.9333 852.526 17.3C854.626 18.6333 855.676 20.55 855.676 23.05H846.026C846.026 21.6167 845.142 20.9 843.376 20.9C842.742 20.9 842.226 21.0333 841.826 21.3C841.426 21.5667 841.226 21.9333 841.226 22.4C841.226 23.3333 841.926 23.9667 843.326 24.3L849.176 25.8C853.776 26.9667 856.076 29.35 856.076 32.95C856.076 35.6833 854.992 37.85 852.826 39.45C850.659 41.05 847.742 41.85 844.076 41.85Z" fill="#444053"/>
<path d="M1014.02 595V577.5H1020.62L1024.34 588.925L1028.04 577.5H1034.49V595H1029.49V583.9L1026.29 595H1022.44L1019.02 583.85V595H1014.02ZM1043.65 595.425C1041.47 595.425 1039.72 594.817 1038.4 593.6C1037.08 592.367 1036.42 590.758 1036.42 588.775C1036.42 586.792 1037.08 585.192 1038.4 583.975C1039.72 582.742 1041.47 582.125 1043.65 582.125C1045.85 582.125 1047.61 582.742 1048.92 583.975C1050.24 585.192 1050.9 586.792 1050.9 588.775C1050.9 590.758 1050.24 592.367 1048.92 593.6C1047.61 594.817 1045.85 595.425 1043.65 595.425ZM1043.65 591.4C1044.37 591.4 1044.93 591.158 1045.35 590.675C1045.77 590.192 1045.97 589.558 1045.97 588.775C1045.97 587.992 1045.77 587.358 1045.35 586.875C1044.93 586.392 1044.37 586.15 1043.65 586.15C1042.95 586.15 1042.38 586.4 1041.95 586.9C1041.53 587.383 1041.32 588.008 1041.32 588.775C1041.32 589.542 1041.53 590.175 1041.95 590.675C1042.38 591.158 1042.95 591.4 1043.65 591.4ZM1052.71 595V582.575H1057.61V585.35C1057.83 584.4 1058.26 583.658 1058.91 583.125C1059.56 582.592 1060.32 582.325 1061.18 582.325C1061.5 582.325 1061.81 582.35 1062.11 582.4V587.025C1061.69 586.958 1061.28 586.925 1060.86 586.925C1059.84 586.925 1059.04 587.217 1058.46 587.8C1057.89 588.367 1057.61 589.375 1057.61 590.825V595H1052.71ZM1077.26 588.15C1077.26 588.767 1077.22 589.375 1077.13 589.975H1067.98C1068.02 590.625 1068.24 591.133 1068.66 591.5C1069.09 591.867 1069.66 592.05 1070.36 592.05C1071.41 592.05 1072.06 591.742 1072.31 591.125H1077.06C1076.84 592.442 1076.13 593.492 1074.91 594.275C1073.69 595.042 1072.18 595.425 1070.36 595.425C1068.09 595.425 1066.31 594.85 1065.01 593.7C1063.73 592.533 1063.08 590.9 1063.08 588.8C1063.08 586.733 1063.73 585.108 1065.03 583.925C1066.33 582.725 1068.08 582.125 1070.26 582.125C1072.33 582.125 1074.01 582.683 1075.31 583.8C1076.61 584.917 1077.26 586.367 1077.26 588.15ZM1067.98 587.275H1072.36C1072.34 586.592 1072.15 586.058 1071.78 585.675C1071.42 585.292 1070.89 585.1 1070.21 585.1C1069.54 585.1 1069.01 585.3 1068.61 585.7C1068.23 586.1 1068.02 586.625 1067.98 587.275ZM1093.71 595.55C1090.84 595.55 1088.51 594.683 1086.71 592.95C1084.91 591.2 1084.01 588.967 1084.01 586.25C1084.01 583.533 1084.91 581.308 1086.71 579.575C1088.51 577.825 1090.84 576.95 1093.71 576.95C1096.44 576.95 1098.64 577.592 1100.31 578.875C1101.98 580.158 1102.92 581.942 1103.13 584.225H1097.63C1097.45 583.408 1097.02 582.767 1096.33 582.3C1095.65 581.817 1094.78 581.575 1093.73 581.575C1092.38 581.575 1091.33 581.992 1090.56 582.825C1089.81 583.658 1089.43 584.8 1089.43 586.25C1089.43 587.7 1089.81 588.842 1090.56 589.675C1091.33 590.508 1092.38 590.925 1093.73 590.925C1094.78 590.925 1095.65 590.692 1096.33 590.225C1097.02 589.742 1097.45 589.092 1097.63 588.275H1103.13C1102.92 590.558 1101.98 592.342 1100.31 593.625C1098.64 594.908 1096.44 595.55 1093.71 595.55ZM1111.33 595.425C1109.14 595.425 1107.39 594.817 1106.08 593.6C1104.76 592.367 1104.1 590.758 1104.1 588.775C1104.1 586.792 1104.76 585.192 1106.08 583.975C1107.39 582.742 1109.14 582.125 1111.33 582.125C1113.53 582.125 1115.28 582.742 1116.6 583.975C1117.92 585.192 1118.58 586.792 1118.58 588.775C1118.58 590.758 1117.92 592.367 1116.6 593.6C1115.28 594.817 1113.53 595.425 1111.33 595.425ZM1111.33 591.4C1112.04 591.4 1112.61 591.158 1113.03 590.675C1113.44 590.192 1113.65 589.558 1113.65 588.775C1113.65 587.992 1113.44 587.358 1113.03 586.875C1112.61 586.392 1112.04 586.15 1111.33 586.15C1110.63 586.15 1110.06 586.4 1109.63 586.9C1109.21 587.383 1109 588.008 1109 588.775C1109 589.542 1109.21 590.175 1109.63 590.675C1110.06 591.158 1110.63 591.4 1111.33 591.4ZM1120.38 595V582.575H1125.28V584.4C1125.88 582.95 1127.11 582.225 1128.96 582.225C1130.91 582.225 1132.2 583.008 1132.83 584.575C1133.18 583.842 1133.72 583.267 1134.43 582.85C1135.15 582.433 1135.98 582.225 1136.91 582.225C1139.83 582.225 1141.28 583.95 1141.28 587.4V595H1136.28V588.3C1136.28 586.983 1135.81 586.325 1134.86 586.325C1133.81 586.325 1133.28 587.142 1133.28 588.775V595H1128.28V588.3C1128.28 587.6 1128.17 587.1 1127.93 586.8C1127.72 586.483 1127.37 586.325 1126.88 586.325C1126.35 586.325 1125.95 586.517 1125.68 586.9C1125.42 587.267 1125.28 587.892 1125.28 588.775V595H1120.38ZM1146.47 582.15C1145.68 582.15 1145.03 581.892 1144.52 581.375C1144 580.842 1143.74 580.208 1143.74 579.475C1143.74 578.725 1144 578.092 1144.52 577.575C1145.03 577.058 1145.68 576.8 1146.47 576.8C1147.23 576.8 1147.88 577.058 1148.39 577.575C1148.93 578.092 1149.19 578.725 1149.19 579.475C1149.19 580.208 1148.93 580.842 1148.39 581.375C1147.88 581.892 1147.23 582.15 1146.47 582.15ZM1144.02 595V582.575H1148.92V595H1144.02ZM1151.76 595V582.575H1156.66V584.4C1157.32 582.95 1158.67 582.225 1160.68 582.225C1163.72 582.225 1165.23 583.958 1165.23 587.425V595H1160.23V588.675C1160.23 587.108 1159.66 586.325 1158.51 586.325C1157.27 586.325 1156.66 587.142 1156.66 588.775V595H1151.76ZM1176.59 582.575H1181.49V593.875C1181.49 596.208 1180.64 597.95 1178.94 599.1C1177.89 599.817 1176.37 600.175 1174.37 600.175C1172.42 600.175 1170.89 599.875 1169.79 599.275C1169.08 598.892 1168.49 598.375 1168.02 597.725C1167.57 597.075 1167.34 596.417 1167.34 595.75H1172.29C1172.43 596.483 1173.09 596.85 1174.29 596.85C1175.83 596.85 1176.59 596.1 1176.59 594.6V592.65C1176.33 593.267 1175.84 593.767 1175.12 594.15C1174.4 594.533 1173.62 594.725 1172.77 594.725C1171.04 594.725 1169.65 594.158 1168.62 593.025C1167.59 591.875 1167.07 590.383 1167.07 588.55C1167.07 586.683 1167.59 585.167 1168.64 584C1169.69 582.817 1171.08 582.225 1172.79 582.225C1173.68 582.225 1174.46 582.425 1175.14 582.825C1175.84 583.225 1176.33 583.758 1176.59 584.425V582.575ZM1174.47 591.25C1175.19 591.25 1175.75 591 1176.17 590.5C1176.59 590 1176.79 589.375 1176.79 588.625C1176.79 587.875 1176.59 587.25 1176.17 586.75C1175.75 586.25 1175.19 586 1174.47 586C1173.79 586 1173.23 586.25 1172.79 586.75C1172.36 587.233 1172.14 587.858 1172.14 588.625C1172.14 589.392 1172.36 590.025 1172.79 590.525C1173.23 591.008 1173.79 591.25 1174.47 591.25ZM1196.63 595.55C1194.35 595.55 1192.55 595 1191.23 593.9C1189.93 592.783 1189.28 591.242 1189.28 589.275H1194.48C1194.48 590.025 1194.67 590.617 1195.06 591.05C1195.46 591.483 1196.01 591.7 1196.71 591.7C1197.87 591.7 1198.46 591.217 1198.46 590.25C1198.46 589.85 1198.33 589.533 1198.08 589.3C1197.83 589.05 1197.41 588.808 1196.81 588.575L1193.33 587.3C1190.83 586.367 1189.58 584.717 1189.58 582.35C1189.58 580.717 1190.19 579.408 1191.41 578.425C1192.64 577.442 1194.32 576.95 1196.43 576.95C1198.57 576.95 1200.27 577.45 1201.53 578.45C1202.82 579.45 1203.46 580.817 1203.46 582.55H1198.26C1198.26 581.9 1198.09 581.4 1197.76 581.05C1197.44 580.683 1196.98 580.5 1196.38 580.5C1195.9 580.5 1195.52 580.617 1195.23 580.85C1194.95 581.083 1194.81 581.408 1194.81 581.825C1194.81 582.175 1194.95 582.483 1195.23 582.75C1195.52 583 1196.02 583.258 1196.73 583.525L1199.93 584.75C1202.42 585.717 1203.66 587.4 1203.66 589.8C1203.66 591.567 1203.02 592.967 1201.76 594C1200.49 595.033 1198.78 595.55 1196.63 595.55ZM1211.94 595.425C1209.75 595.425 1208 594.817 1206.69 593.6C1205.37 592.367 1204.71 590.758 1204.71 588.775C1204.71 586.792 1205.37 585.192 1206.69 583.975C1208 582.742 1209.75 582.125 1211.94 582.125C1214.14 582.125 1215.89 582.742 1217.21 583.975C1218.53 585.192 1219.19 586.792 1219.19 588.775C1219.19 590.758 1218.53 592.367 1217.21 593.6C1215.89 594.817 1214.14 595.425 1211.94 595.425ZM1211.94 591.4C1212.65 591.4 1213.22 591.158 1213.64 590.675C1214.05 590.192 1214.26 589.558 1214.26 588.775C1214.26 587.992 1214.05 587.358 1213.64 586.875C1213.22 586.392 1212.65 586.15 1211.94 586.15C1211.24 586.15 1210.67 586.4 1210.24 586.9C1209.82 587.383 1209.61 588.008 1209.61 588.775C1209.61 589.542 1209.82 590.175 1210.24 590.675C1210.67 591.158 1211.24 591.4 1211.94 591.4ZM1227.76 595.425C1225.57 595.425 1223.82 594.817 1222.51 593.6C1221.19 592.367 1220.53 590.758 1220.53 588.775C1220.53 586.792 1221.19 585.192 1222.51 583.975C1223.82 582.742 1225.57 582.125 1227.76 582.125C1229.96 582.125 1231.71 582.742 1233.03 583.975C1234.35 585.192 1235.01 586.792 1235.01 588.775C1235.01 590.758 1234.35 592.367 1233.03 593.6C1231.71 594.817 1229.96 595.425 1227.76 595.425ZM1227.76 591.4C1228.47 591.4 1229.04 591.158 1229.46 590.675C1229.87 590.192 1230.08 589.558 1230.08 588.775C1230.08 587.992 1229.87 587.358 1229.46 586.875C1229.04 586.392 1228.47 586.15 1227.76 586.15C1227.06 586.15 1226.49 586.4 1226.06 586.9C1225.64 587.383 1225.43 588.008 1225.43 588.775C1225.43 589.542 1225.64 590.175 1226.06 590.675C1226.49 591.158 1227.06 591.4 1227.76 591.4ZM1236.82 595V582.575H1241.72V584.4C1242.38 582.95 1243.72 582.225 1245.74 582.225C1248.77 582.225 1250.29 583.958 1250.29 587.425V595H1245.29V588.675C1245.29 587.108 1244.72 586.325 1243.57 586.325C1242.33 586.325 1241.72 587.142 1241.72 588.775V595H1236.82ZM1253.2 588.375V577.5H1258.38V588.375H1253.2ZM1257.98 594.4C1257.38 594.983 1256.64 595.275 1255.78 595.275C1254.91 595.275 1254.18 594.983 1253.58 594.4C1252.99 593.8 1252.7 593.075 1252.7 592.225C1252.7 591.392 1252.99 590.683 1253.58 590.1C1254.18 589.5 1254.91 589.2 1255.78 589.2C1256.64 589.2 1257.38 589.5 1257.98 590.1C1258.58 590.683 1258.88 591.392 1258.88 592.225C1258.88 593.075 1258.58 593.8 1257.98 594.4Z" fill="#444053"/>
</svg>
